/* XPM */
static char *result[] = {
/* columns rows colors chars-per-pixel */
"64 65 253 2 ",
"   c #1E0700",
".  c #240D03",
"X  c #2A1408",
"o  c #331A0D",
"O  c #362419",
"+  c #362D28",
"@  c #373736",
"#  c #4D2D1A",
"$  c #4E3727",
"%  c #633E26",
"&  c #295605",
"*  c #2D5A0E",
"=  c #366708",
"-  c #376A0C",
";  c #3C6C0B",
":  c #3E7306",
">  c #3F720B",
",  c #3A6814",
"<  c #3D592D",
"1  c #43750C",
"2  c #49730C",
"3  c #4B750E",
"4  c #457A0C",
"5  c #497D0D",
"6  c #456E14",
"7  c #446D1B",
"8  c #437413",
"9  c #4A7614",
"0  c #467A12",
"q  c #4B7C14",
"w  c #44731A",
"e  c #48771B",
"r  c #4C7C1B",
"t  c #517D16",
"y  c #527E1B",
"u  c #4E4E33",
"i  c #564535",
"p  c #6B4C35",
"a  c #785339",
"s  c #487527",
"d  c #4D7B24",
"f  c #517D25",
"g  c #4D6F33",
"h  c #323945",
"j  c #384751",
"k  c #3F5F70",
"l  c #524D4F",
"z  c #47585B",
"x  c #67584D",
"c  c #7B5C43",
"v  c #785A48",
"b  c #52714B",
"n  c #7C644C",
"m  c #796857",
"M  c #465867",
"N  c #4E5B68",
"B  c #4A6472",
"V  c #7D7469",
"C  c #8E5935",
"Z  c #8B6C3F",
"A  c #896648",
"S  c #976B4A",
"D  c #99744B",
"F  c #866C55",
"G  c #946E51",
"H  c #8C7753",
"J  c #9B7454",
"K  c #987759",
"L  c #A7754D",
"P  c #AF7C4F",
"I  c #A37652",
"U  c #A97650",
"Y  c #A47A55",
"T  c #AA7B54",
"R  c #A57D59",
"E  c #AB7E5A",
"W  c #947D64",
"Q  c #A17F61",
"!  c #46800F",
"~  c #4D820D",
"^  c #53880E",
"/  c #4D8314",
"(  c #4E8816",
")  c #4E831A",
"_  c #528515",
"`  c #548B15",
"'  c #598C15",
"]  c #53851B",
"[  c #5B8419",
"{  c #548A1B",
"}  c #5A8D1D",
"|  c #5B9115",
" . c #5B9817",
".. c #56911C",
"X. c #5C931C",
"o. c #61891D",
"O. c #629C16",
"+. c #61951D",
"@. c #63991E",
"#. c #4C8123",
"$. c #548422",
"%. c #5A8522",
"&. c #558A23",
"*. c #5B8C23",
"=. c #56862B",
"-. c #5C8C2A",
";. c #579121",
":. c #5D9223",
">. c #5E9924",
",. c #5E922B",
"<. c #5F9929",
"1. c #5B8933",
"2. c #5F9131",
"3. c #668B23",
"4. c #628E24",
"5. c #628D2B",
"6. c #619524",
"7. c #649A24",
"8. c #689E25",
"9. c #63942B",
"0. c #6A952B",
"q. c #659B2B",
"w. c #699C2C",
"e. c #628E33",
"r. c #738C35",
"t. c #659432",
"y. c #699532",
"u. c #669A32",
"i. c #6B9C33",
"p. c #689439",
"a. c #6C9D39",
"s. c #739A38",
"d. c #69A127",
"f. c #6CA22C",
"g. c #71A52C",
"h. c #67A131",
"j. c #6CA234",
"k. c #6DA23A",
"l. c #6FA939",
"z. c #72A533",
"x. c #73A43B",
"c. c #76AA3A",
"v. c #7BB13A",
"b. c #749D43",
"n. c #699152",
"m. c #78A746",
"M. c #7AAC43",
"N. c #7DB243",
"B. c #71A453",
"V. c #659670",
"C. c #83863E",
"Z. c #8A954C",
"A. c #A7825C",
"S. c #AD825C",
"D. c #B1845C",
"F. c #B8875A",
"G. c #B3895E",
"H. c #8BA752",
"J. c #86B552",
"K. c #9B8369",
"L. c #998976",
"P. c #9E907F",
"I. c #A48263",
"U. c #AD8562",
"Y. c #AD8A64",
"T. c #A4896B",
"R. c #AD8B6B",
"E. c #B28661",
"W. c #B38B64",
"Q. c #B98D63",
"!. c #B98B66",
"~. c #B28D6B",
"^. c #BC9165",
"/. c #B0906D",
"(. c #B5926C",
"). c #B99569",
"_. c #BB946C",
"`. c #A88E71",
"'. c #AC9577",
"]. c #B39473",
"[. c #BA9672",
"{. c #B59876",
"}. c #BC9A74",
"|. c #B49A7A",
" X c #BA9C7B",
".X c #93B067",
"XX c #AAAB73",
"oX c #BCA478",
"OX c #BDA07E",
"+X c #ABB97A",
"@X c #C1976B",
"#X c #C29D73",
"$X c #C49B77",
"%X c #C3A27C",
"&X c #C8A579",
"*X c #D0A97B",
"=X c #50758A",
"-X c #667E8F",
";X c #588997",
":X c #5592B0",
">X c #629CA3",
",X c #6697AB",
"<X c #64A7B1",
"1X c #69B7D6",
"2X c #71C5E5",
"3X c #A79C89",
"4X c #B39C81",
"5X c #BB9F81",
"6X c #BCA284",
"7X c #BBA68A",
"8X c #B3B88C",
"9X c #B9AB94",
"0X c #C3A583",
"qX c #C6A785",
"wX c #C5A985",
"eX c #CBAB84",
"rX c #C3AB8B",
"tX c #CAAE8B",
"yX c #D0AD86",
"uX c #CAB08B",
"iX c #CCB28D",
"pX c #D3B48D",
"aX c #D7BA8C",
"sX c #C3AD90",
"dX c #CCB493",
"fX c #C8B597",
"gX c #CDB99B",
"hX c #D2B693",
"jX c #D3B994",
"kX c #D7B997",
"lX c #D1BC9B",
"zX c #C4B9A4",
"xX c #CCBCA2",
"cX c #D2BEA1",
"vX c #B5C992",
"bX c #BDCCA4",
"nX c #C0C99D",
"mX c #DAC29B",
"MX c #E5CD9D",
"NX c #C8CBA8",
"BX c #D5C2A4",
"VX c #D8C6A9",
"CX c #D6CBB3",
"ZX c #DBCBB3",
"AX c #DBD2B9",
"SX c #E2CAA8",
"DX c #E9D3A7",
"FX c #E4CFB2",
"GX c #E6D6B9",
"HX c #E3DAC3",
"JX c #EDE9D2",
"KX c #EDEED7",
"LX c #F4EBD9",
/* pixels */
"6.` ` ` } _ &.9.9.:.:.-.u.-.&.2.9.j.h.j.<.( ( j.h.<.<.q.d.>.>...~ ` >.f.f.d.>.h.2.l.,.&.( &.;.( ;.>... .` ` ~ ^ @.^ ! ` ~ ^ ` i.",
"q.*.{ :.u.&.$.u.x.k.9.&.,.k.;.:.X.7.X.8.j.q.<.h.:.h.h.j.<.d.d.>.(  .d.h.h.d.<.<.,.;.( ( > #.;.#.;.(  . .` X.^ | ^ ~ : > / ( / 9.",
"9.` ] w.N.w.q.j.c.v.M.j.q.i.:.:.>.X.@.X.j.h.<.<.<.h.l.h.>...>.7. .>. .{ ;.( ( h.;.! ;.( #.#.;.&.! ( ..` | ` +.| ^ 5 = ; q.:.4 q ",
"6.:.q { j.w.d.f.q.z.N.z.z.w.` 7.d.@.g.7.j.h.<.l.l.q.<.:...( >.>.<.<.{ ! ( ( ;.h.<.;.h.;.#.&.;.#.! .. . .` ` 7. .` : = > 6.' > - ",
"9.i.6.] X.7.z.c.7.7.f.X.q.w.` :.../ 7.j.h.h.h.M.l.;.( ( ;...>.h.>.d.( ( ( &.;.( <.<.h.h.#.&.&.! ( ..;.>.<.<.:.X.^ ^ ] } q.q.` *.",
"} j.N.l.7.w.v.c.w.X.6.' ` ' ~ _ ( > { q.<.<.h.j.l.<.;.( ..>.d.f. .>.( ( ( ( ( ;.<.<.h.<.( ;.( ( <...( h.l.h.' ' X.@.:.7.f.f.x.k.",
"/ *.J.N.6.u.c.i.{ *.*._ 5 { ] / > - = #.( <.<.q.h.<.;.....0.9.0.k.m.B.j.( ! ! ;.<.h.h.>.;.;./ { <.( ( ;.k.,.( X.g.d.7.w.X.7.u.y.",
"_ / v.j.-.i.x.,.0 = > &.&.-.) > > * & - &.( { q.;.<.1.s g n.9XAXLXLXKXKXJXbXB.,.;.;.;.h.h.( 4 ( ;.;.<.&.-.$.{ d.g.O.+.X.~ _ &.$.",
") q 9.-.d $.e.e = & 6 f t.-.6 , s s & * 5.-.%.i.1.u h V xXZXxX6X6X0XtXhXFXJXLXJX8X;.;.k.x.&.4 0 ] } *.-.) q *.d.d.' 6.} > $.-.r ",
"] ] ,.-.f 7 p.f 7 d f f s.f e e f , & , &.*.n.b h l 9XxX4XI.'.9XfXzXxXdXiX%X*XDXKXHX.Xu.i.-.q t 4.%.y.y.q 0 } 7.` X.q.-.#.=.2.=.",
"&.&.] 5.e.f b.s.$.m.m.p.J.p.6 7 w = , s $.g N h m zX4XQ 9XCXCX9X9XgXxXcXCXZXgX}.(.VXLXvX9.-.y ] 9.s.i.5.r ) :.X.' 6.j.-.> , 1.2.",
"*.9.-.t.p.5.p.e.=.b.b.b.s.i.y e e , s s b B < F gXT.9XCX9XP.L.K.'.sX9X6X7XdXxXVXrXI.6XLXNX5.[ $.-.a.] y $.,.w.:.+.q.9.*.#.=.2.2.",
"2.i.u.,.t.5.%.f %.p.-.-.-.$.*.,.,.1.=.n.=X@ m BX|.zXzXL.K.9XNXVXCXAXHXGXZXgXrX7XxXxXR I.LXNX=.-.5.4.q y $.9.j.X.7.7.) -.2.1.-.! ",
"u.a.9.$.-.5.-.y 9 e y t.:.:.h.b.b.k.n.-Xj x VXaXCX3XW 7XCXgX4X4XrXBXBXCXGXHXAXgX6XfXcXK.K KXvXd %.9.y.%.r &.w.' ' { / u.-.&.=.> ",
"u.a.,.&.%.y.5.9 ; 1 %.i.h.<.h.<.<.n.=XM $ mXVXVXL.K.zXzXL.K /.OXkXtX|.|.gXBXZXAXCX6X9XxXW I.LX.X%.t.y.4.r / 6.' X.} *.u.*.,.,.&.",
"-.,.x.i.9.y.[ 2 t %.9.<.h.<.<.u.,.B B @ |.DXBXL.K.BX3XF D Y.}.tXhX0X'.'.gXBXgXBXCXAXrXrXgXG 5XJXm.9.9 9 9 q { ` :.q.j.k.a.k.k.j.",
"=.,.N.m.p.:.{ ] 6.w.y.,.k.k.i.M.V.;Xj v DXSXP.W cX3Xc S E Y.}.tXhXjX|.'.BXlXlXhXdXZXHXrXgX7XA ZXNXt.9 = 7 d 9 %.4.4.0.6.q.k.u.<.",
"2.u.m.m.k.&.6.X.6.j.u.*.i.u.-.B.,X=X@ tXDX7Xn sX'.v S U T Y.}.tXlXiX'.'.BXcXcXgXkXdXcXZXrXxXQ R JXn.f 7 7 s 7 =.5.y.0._ ` <.;...",
"-.*.*.,.9.*.f.8.' <.q.,.9.} / V.,Xj m DXgXm |.7Xv S I I R U.}.tXuXwX`.`.gXlXlXgXdXhXtXZXcX7X9XA xXbXe.f 7 7 s e.5.i.4.5 > ( ( ( ",
"q.:.} ;.&.:.j.7._ :.u.M.q.X.p.,X;X$ 4XDXL.W rXF C D J I R U.(.OXrX`.K.T.7XtXfXgXkXdXtXtXAXfXfXQ G HXH.e.7 7 e.e.%.%.[ q 4 0 / q ",
"X.X.+.} ) ;.f.:.` :.q.M.l.d.V.<XB i mXhXF OXL.a D I I Y Y A.OXrXfX'.K.R.dXsXtXtXdXtXtXqXlXCX0X7Xa cXvX5.f =.b.-.f 2 2 q $.&.r q ",
"5 ` 7.{ q *.w.6...;.u.x.v.l.;X:Xj A MXR.K 7Xn A Y Y Y J A.6XsXrXrX|.I.`.fXfXfXrXqXsXrXqX%XBXfXfXA Q AX5.y p.J.f 9 = = 9 -.-.&.$.",
"^ 8.f.9.-.u.c.7.;.<.<.h.l.N.:X:X+ (.mXH /.K.A A.T E A.K OX7X6X`.oX'.I.(.tX7XcXfXqXqXqX5X~.0XBXsX`.C CXb.t %.H.-.6 & 6 f %.%.-.=.",
":.w.w.i.i.w.v.f.;.;.;.>.( V.1X;X+ &XuXF |.F A W.S.S.T ].7X|.`.OX'.'.oXuXdXsXgXcXsX0X5X5X(.~.zXfX7X% 9X8Xt 9 &.t.6 6 e.f y f r %.",
"*.{ ` 9.y.9.s.i.6.] ] -.( >X2X=Xp *XXXK (.n G Y J H K fXrXR.|.|.{.6XrXrXsXCXmXgXgX6X{.OX{.Y.0XfXtXc R nXo.y y y.5.y.w._ ] ] 9 y ",
"&.{ _ 6.5.5.[ 9.s.*.%.[ #.<X1Xj a mXK.I.I.F K K A.A.Y.dXxXrX`.].6X7X6X7X7XuXZXgXuX'.A.OX{./.{.cXfXF p NXr.3.y t.m.c.X.` 6.5.%.y ",
"r &.} :.[ ] 6 q 5.5.%.] 1.<X1Xh Z aXA.R.K G I.R.I.A.%XdXgXrX].5X6X6X6X6X7X0XfXVX&X).J wX6X{.(.nXdXK.# 9XH.3.o.r.H.j.X.| } y.y.%.",
", &.*.%.y t = 6 ; 4.%.t 1.:X:Xh A aXK '.H A.Y.A.Y.}.uXiXiX|.6X5XOX6X6X7X6X6X6XxXmX&XG.wXiXoX(.mXgX'.o L.XX3.3.0.w.:.' :.} 5.y.] ",
"= d #.&.$.) 9 9 ; %.[ 8 s :X:X+ S hXG '.K I.A.Y.}.}.rXuXoXOX6X5X6X6X5X5X6X6X6XuXlX&X}.%XaXXX).fXlX4Xo m +X0.+.0.*.{ ;.*.4.5.t.%.",
", 7 - 1.*.&.q 9 9 r 2 1 s :X=X+ A dXJ ~.K E.Y.).G.}.iXuX6X|.6X6X5X6X5X5XOX6X6X0XgXdXuXiXpX}./.dXxX6XO x nX+.o.@.} ] *.,.%.t.y.4.",
"s , * 1.y 9 q q t t 1 ; g =X=XO a iXJ ~.J W.(.}.Y.).).).}.oX X X5X5X5X X5X5X5X0XlXaXuXiX%X(.).uXBXrXO i uX3 t @.` _ ] 2.$.y.y.y.",
"s * , 1.8 ; [ y 6 -.%.3 1.=Xk O c tXG R.J W./.}.(.).).).Q.G.[. X X X5X|.|. X XdXlXjXaXjX%X(.{.iXBXuXO i +Xt 5 o.^ _ &.=.$.%.s.x.",
"e w r =.] 4 9.$.- *.;.) =.k k O a tXS Y.J Y.Y.(.}./.W.W.!.~.].].].5X|. X|.{. X5XuXeXuXpX%X(.XXiXVXwX# i +X8.' +.+.+.X.6.6.6.z.x.",
"0 $.) ] 9.] q.j.&.:.] { s k B + p eXJ ~.J W./.A._.%XOX].E.].R.R.].[.[.$X X X{.[.%XwXoXW./.).).iXVXuXO i +X@.| | +.g.d.7.+.w.f.w.",
"( ) 0 ] :.6.q.c.j.:.{ ! , M k + p qXI W.D G.[.(.(.}.tX$XU.].R.R.~.qXcXkX5X4X[.[.iXhXrXG.Y.}.).uXVX7XO i +X| ' | | 7.7.| ^ 6.6.:.",
"r ) / ) _ i.i.9.] _ &.! w j z @ % 5XT E.D L [.$X_.#X$X0X~.R.R.R.R.[.FXSX0X~.].{.iXoX(.Y.).%X}.mXmX'.X x +X` X.:.' ' ` ^ _ X.:.6.",
"( } } ` } q.9.} q / ` ) ) z k l %  XE E L T _.0X%XQ.%XeX}.Y.].U.Y.W.^.#X_.].~.5X0XU.S.G.@X).oXmXlX`.. m .X{ ' X.` ~ ` ' 7.8.:.q.",
"*.q.w.*.*.:.` ] ] } _ q ` j M j # _.E.!.T L #XeXeX#X_.eXhX~.~.[.~.U.W.^.!.Q !.$XT.T D.D.)./.fXmXlXH   W m.( 4 _ ` 4 q :.f.f.} ` ",
":.f.g.X.:.} / ( } ( / ] q b M M # Q $XP S.L #X&XeXtXQ.&XhXtXE.(.(.E E E.~.!.(.Q Y D.G.D.G./.jXBXtXc X '.a.{ / *.9.q 1 _ ` +.:.5 ",
":.z.f.X.:.} q _ ) = ] 6.( g N M % S yXP E.L S.eX*XeX_._.iXkXtXE.Q R T E E.Q Q E A.G.^.D.A.Q.hXgXtX$ # XX9.9.9.<.9./ 0 5 / } } ` ",
"d.g.@.X.) *.! q ] > 9.w.( 9 N B x C pXP @XU U $XyX$XeX!.$XhXkXpX[.E U S.G.Y.G.G.S.Q.S.G.S.).iXdX|.o p +X} { 6.4.] _ o.o.t ^ o.@.",
"z.d.| X.q -.$.4 *.w.f.7.~ 4 b N l C pX@X@XE U @X*X$XyX$XF.$XhXhXkX$XL T #X).^.G.G.S.A.U.Y Q.tXiXK   K.H.5 / { } } o.3.t t 3.Z.0.",
"c.:.` ) 0 &.i.} 8.g.g.8.X._ b M N C $XkXP @XU F.qXyXqXpX$XT $XtXhXiXD.G.&X#X).Q.U.I D.D.E [.wXtXi o |.6.~ ` +.o._ O.8.t _ 4.g.@.",
"q.] q q 4 ) M.j.8.O.v.J.w.X.6.z N x U SX@X@X!.P $XqXyXyXkX0XE E.%X%XQ.Q.%X_.W.A.Y D.D.D.S.%XqX~.o p XX_ ` | @.+.o.H.g.o.[ [ +.o.",
"} *.9.] / 6.v.j.8.d.v.d.8.` 6.b =XN C yXpXP @XU E yXyXyXqXhXdX!.E T S.F.S.S.G.D.G.D.E S.[. XtXc . T.s./ ^ `  .7.J.C.t 2 [ 6.} [ ",
"} q.c.w.:.q.z.6.+.g.g.O.X.` } d l M v U SX@X@X@XU @XyXyXyXeXpXdXhX}.L S.%X@X^.^.E.D.E W. X0X].o i XXq q ~ ^ ` w.g.f t 6 9 s.6.o.",
"_ ' 8.f.X.6.8.@.O.@.O.| ` } } 5 l M N A $XkXU @XE T @XpXyXyXtXtXdXtXS.T #X#X).G.G.D.D.[.[.qXp X `.Z.%.5._ ~ _ s.3.3 7 , 6 s.4.} ",
"~ +.@.+.} X.7.d.O.| ^ ~ ~ 6.6.q 1.l M x U kX*XP 0XE U !.yXtXyXyXdXiXD.L #X#X).^.G.D.(.(.$XK X n XX9.y.y.{ _ _ 5.%.6 6 s t 0.6.t ",
"' +.o.^ X.X.X.7.X.~ ` ~ ~ X.7.+.8.1.j M n Q VX@XP $XE.U E eXpXtXdXdXS.L #X&X_.W.W.~.[.[.T.# u &X6.X.} _ ' ' / ] *.$.=.p.] ` 7.} ",
"} _ 3 _ X.~ ' X.( ` ' ~ ^ | @.g.8.+.g h l S !.SX@XP @X@XE P !.$XeXiX_.Q.#X#X!.!.R.~.$X!.$ # oXC.` +.' ^ ` ( 1 _ :.9.u.k.] q X.f.",
"^ 3 5 ^ 4 4 *.` 5 _ ` ` ~ `  .7.X.' *.g h l G [.SX@XU @X$XE U U T D.W.E.S.D.U.Y.~.}.E.$ # }.H.@.O.@.@.` _ ~ / :.:.*.k.M.*./ ' g.",
"^ ' ^ 2 = 0 } { _ 5 5 _ ~ ` ' X.} X.w.6.l h l G $XSX*XP E @X@X@XE.E E U.E.Q._._._.J $ i $XH.@.X.' +.8. .' 5 6.w.9.u.M.x.*.X.:.+.",
"' } ( : ! ` *.<./ 4 ( { 5 5 ~ X.} :.f.7...u @ l S @XFXSX@XP P @X#X@X#X$X#X_.W.E A % A $XH.X.X.^ ^ X.8.7.7._ 7.j.q.M.M.=.0 *.7.( ",
"^ ` ( 0 &.*.{ ) 1 1 1 ) 4 1 { :.:.:.6.9.;.-., @ l G E kXGXMX*X@XF.F.E D.D.F.S.S A _.}.s./ ~ ~ 5 / ' 7.:.+.X.w.j.9.k.l.-.) ( ' ^ ",
"( ..( ..,.*.) ) > 8 = 0 4 1 :.} q.9.] ` ;.,./ > u u v U @XpXFXGXFXSXMXkXaX*X$X*X$XH.u.X.4 q 0 q 4 q :.*.6.8.q.6.:.9.u.u.9./ ~ ~ ",
"` (  .d.q.&.9 r 9 #.r r > q *.] :.*.] 0 ( ;.9./ : 1 , g A L E $XyXpXkXpX$X@X@XZ.r.7.' ] 0 ) r 0 1 r ,.,.} :.:.X.*.) ] 9.i.6._ ^ ",
" . . .O.6.} / q &.2.1.d 8 ] 5.5.4.9 %.y _ q.c.*./ ` :.:.} f r.r.Z Z D Z.C.r.s.7.` } / 1 1 e #.0 : 4 6.:.5 ` } :.} / } x.M.M.0.+.",
"{ @.O.O.X.` / &.2.=.f =.t.9.y.9.9 6 y 4.] :.q.] ] :.j.9.[ ] 4.9.w.` / *.~ _ 6.6.( ] / ; 8 8 e > ; 0 } / 4 ] { :.:.j.x.w.9.9.0.z.",
"0 8.| | X.' _ ] &.=.#.$.y.%.t.4.= 9 y 9.9.i.q.{ / :.j.9.*.] _ :.w.} ` ` _ :.q.*.] &.q : 0 > > - 1 0 5 1 0 { } } q.x.x.0 1 y 0.6.",
"] 4.o.} | X._ / $.&.#.) 9 9 -.%.9 9 ] 4.9.i.,.] ] 9.k.y.:.` / :.:.6.9.] / 6.x.w.<.q.> q r q > e 9 : = 1 4 { :.*.w.l.j.q 1 y o.+.",
"=.y 4.o.X.X./ _ :.*.q 5 5 y 5.-.9.%.5.y 0 &.-.{ ; r <.u.9._ } 9.} ] 9._ 5 *.f.q.w.q.q q q ] ] &.q > > 0 q { { *.q.i.6.} 6 t [ o.",
"-.] 6.f.c.7.` :.6.} 5 1 [ 5.i.y.s.5.-.q > e &.#.= ; d a.q.] { :.{ ( _ q 5 ] *.{ q.q.q 5 0 :.9.,.> - r #.q / _ :.q.9.6.w.%.] 4.g.",
",.;.7.8.6.} 6.7.+.X.5 ~ 4.r %.y.x.i.*.) e > ) e ; > r a.,._ _ { 5 5 / { ] ` ` { :.q.q / :.q.q./ ; & e $.] / / *.q.6.j.x.9.%.4.6.",
"<.' ( ( / ` ' ` ` ` ^ } 4.; 9 [ y.i.y 0 r , , - * , r ,.] / { q.] 4 ] { { ) &.] X.q./ ` q.f.q.! = ; #.=.%.} ] 4.u.9.x.z.x.s.[ t ",
"u.) 0 4 5 / 5 / >.| | +._ = q %.o.} 3 1 ] e f * , , , $./ { q.u.{ 5 ( / ) ) &.> ( >...>.h.l.l.<.#.q $.t.y.y.s.s.e.%.r.y 3.5.2 6 "
};
