/* XPM */
static char *result[] = {
/* columns rows colors chars-per-pixel */
"63 63 229 2 ",
"   c #24181F",
".  c #2A1C24",
"X  c #2C1E26",
"o  c #2F222A",
"O  c #33242D",
"+  c #362730",
"@  c #372932",
"#  c #3C2B35",
"$  c #45333F",
"%  c #285604",
"&  c #2D5A0E",
"*  c #2F6105",
"=  c #366607",
"-  c #3B6C05",
";  c #33630A",
":  c #3C6D0B",
">  c #3E7306",
",  c #3E720B",
"<  c #386715",
"1  c #3D6514",
"2  c #3B6B13",
"3  c #3F7212",
"4  c #416A0B",
"5  c #477506",
"6  c #43750C",
"7  c #4A740D",
"8  c #457A0C",
"9  c #4A7D0D",
"0  c #527C0E",
"q  c #436E14",
"w  c #446D1B",
"e  c #47681D",
"r  c #437413",
"t  c #4A7613",
"y  c #467A12",
"u  c #4B7C14",
"i  c #45721A",
"p  c #4A751C",
"a  c #467919",
"s  c #4C7C1B",
"d  c #527D15",
"f  c #52771A",
"g  c #517E1B",
"h  c #4B7826",
"j  c #4C7A25",
"k  c #517D25",
"l  c #537730",
"z  c #4E3D49",
"x  c #4F404B",
"c  c #594B55",
"v  c #5B5158",
"b  c #665963",
"n  c #776B77",
"m  c #46800F",
"M  c #4D820D",
"N  c #51820E",
"B  c #548B0F",
"V  c #4D8214",
"C  c #4E8914",
"Z  c #4E821A",
"A  c #4D8719",
"S  c #528515",
"D  c #5B8316",
"F  c #548B15",
"G  c #598C16",
"H  c #53841B",
"J  c #5B851B",
"K  c #558A1B",
"L  c #5A8D1D",
"P  c #5B9116",
"I  c #5B9817",
"U  c #56911C",
"Y  c #5C921C",
"T  c #60861C",
"R  c #628B1C",
"E  c #629C16",
"W  c #61951D",
"Q  c #63991E",
"!  c #4D8023",
"~  c #548422",
"^  c #598622",
"/  c #568A23",
"(  c #5B8C23",
")  c #548329",
"_  c #5A852B",
"`  c #578A2B",
"'  c #5C8C2A",
"]  c #579121",
"[  c #5D9223",
"{  c #5E9924",
"}  c #5E922A",
"|  c #5F9929",
" . c #568231",
".. c #5C8C31",
"X. c #5F9131",
"o. c #668B23",
"O. c #628E24",
"+. c #628E2A",
"@. c #619424",
"#. c #6A9523",
"$. c #649A24",
"%. c #699C25",
"&. c #63942B",
"*. c #6A952C",
"=. c #659B2B",
"-. c #6A9C2B",
";. c #709B2A",
":. c #618D32",
">. c #628D3A",
",. c #649432",
"<. c #699532",
"1. c #669A32",
"2. c #6B9C33",
"3. c #659439",
"4. c #699439",
"5. c #6D9C39",
"6. c #729E36",
"7. c #69A127",
"8. c #6CA22C",
"9. c #71A72B",
"0. c #67A131",
"q. c #6DA234",
"w. c #6DA23A",
"e. c #6FA939",
"r. c #72A433",
"t. c #75A936",
"y. c #72A43B",
"u. c #75AA3B",
"i. c #7AAB3C",
"p. c #7BB13A",
"a. c #749A46",
"s. c #758F59",
"d. c #7A9753",
"f. c #76A942",
"g. c #7AAC43",
"h. c #7AA649",
"j. c #7DB242",
"k. c #819B5A",
"l. c #83B04C",
"z. c #86B552",
"x. c #8AA369",
"c. c #92A96D",
"v. c #97AB76",
"b. c #A9AE7D",
"n. c #877888",
"m. c #8D7C91",
"M. c #978898",
"N. c #989694",
"B. c #AC9F94",
"V. c #9DA68E",
"C. c #AAB486",
"Z. c #ADAA96",
"A. c #9F92A1",
"S. c #A499A6",
"D. c #AAA6A7",
"F. c #AFACAE",
"G. c #BDAFA5",
"H. c #B5B5A5",
"J. c #B4AAB4",
"K. c #BBB9B5",
"L. c #C7B8BB",
"P. c #B9C2AC",
"I. c #CCC3B3",
"U. c #E3C4BD",
"Y. c #BDA8C8",
"T. c #C6ABC6",
"R. c #C4ABCC",
"E. c #C8B9CB",
"W. c #D3B9C7",
"Q. c #C4ACD2",
"!. c #CBAEDB",
"~. c #C5B4D2",
"^. c #CAB4D5",
"/. c #CDBBD7",
"(. c #CDB4DC",
"). c #D7BBD8",
"_. c #D3BCDB",
"`. c #CEB5E1",
"'. c #D2B7E7",
"]. c #D4BCE5",
"[. c #D6BBE9",
"{. c #C9C8CA",
"}. c #D9C4C9",
"|. c #CCC3D5",
" X c #DAC4D5",
".X c #D5C2DB",
"XX c #D5CBDB",
"oX c #DBCADA",
"OX c #DBD4DD",
"+X c #E3C5C4",
"@X c #E7CAC7",
"#X c #E3C5CB",
"$X c #E6C9CC",
"%X c #E7D2CA",
"&X c #E2C4D2",
"*X c #E5CBD4",
"=X c #E2CDDA",
"-X c #E5D6D9",
";X c #E4D3DD",
":X c #E2E2DB",
">X c #D6C2E6",
",X c #D8C4E7",
"<X c #D8C5E7",
"1X c #DAC5E9",
"2X c #DDCBEA",
"3X c #DDD5E2",
"4X c #DFDAE2",
"5X c #DFD1EB",
"6X c #E1CEEA",
"7X c #E5D5E3",
"8X c #E4DBE5",
"9X c #E9DEE4",
"0X c #E2D4EC",
"qX c #E6DBED",
"wX c #E9DEED",
"eX c #E4D5F0",
"rX c #E6DAF0",
"tX c #E9DEF1",
"yX c #E5E3E3",
"uX c #EAE2E6",
"iX c #E7E2E9",
"pX c #EBE4ED",
"aX c #EEEAEE",
"sX c #F0EDEE",
"dX c #EBE4F1",
"fX c #EEE9F2",
"gX c #F1EDF4",
"hX c #F4F1F4",
"jX c #F8F7F9",
/* pixels */
"@.K F F K S / &.&.} [ } 1.` / | ,.0.0.q.| A A 0.0.{ =.0.7.{ { U C I { 8.7.7.| 0.1.w.] / A ] / A | | I U C C M B Q M 9 C M B F ",
"=.( K } 1.~ H 1.u.q.&./ } w.( @.Y { Q $.0.0.0.0.[ =.0.0.=.{ 7.Y C I 7.0.0.0.] 1.] ] A A a ! ! A U C I I C I B P B M 5 , V V V ",
"@.K H -.j.-.&.q.u.g.g.q.&.q.( [ @.Q Q Y q.0.| | | 0.e.0.{ U { | U { I C ] A U 0.] A ] A a ! ] ! m C I U P F I I B m * , =.Y 8 ",
"[ [ M K q.-.8.q.$.r.j.r.e.%.F { %.Q 8.%.q.0.] e.e.=.| | ] C U 7.{ { U m C A U | | ] 0.] A / ` A m U U I F G $.W B > * r @.L , ",
"&.q.{ F W $.r.t.$.$.8.Y %.-.F [ Y M $.q.e.0.=.j.e.] A A U U { 7.{ 7.C C A A U A | | q.0.A / ] m C U U { &.&.Y Y B N F L -.=.H ",
"L 0.j.t.$.-.p.t.%.Y @.F F F V S V , A =.| | 0.0.q.0.U U { I 0.0.{ { C C A U A ] | | 0.| / ] A A | U U | e.=.F P Y Q $.@.8.8.w.",
"S [ z.l.@.1.p.0.L ( [ S 9 K S V 6 * ; ! A | | 0.0.0.] ] U { 0.I U C U C C m m ] | =.0.| U U A A | A C } w.} K Y 9.%.$.=.Y $.0.",
"V V i.1.' 2.y.} r = , / / ( s r r 2 % ; K A A 0.] ] ] ] C { U C m C U A C 8 8 V ] ] ] 0.| A m A ] ] } / ' H K 8.9.W Q Q M S ( ",
"Z V &./ g k :.p ; % : k <._ i 1 h w % < } [ } w.| | } [ [ K 9 M V K S S g s s g H V ( 2.q.( 6 t Z / } ( Z u ( =.$.G { K r / ' ",
"H ~ } ' k i 4.k i h k _ 5.k f p h e % 1 ~ ( 1.1.} ' / K H S u S D 7 9 u w w k ' ~ f +.2.6.+.u u ( ( 2.&.t y L $.G Y 1.( ! ! ..",
"/ / / ' :.k a.4._ h.h.4.l.4.2 3 w ; 2 h Z ~ ' / / / / H d J J J 6 5 6 g q q k 4.:.O.O.^ &.( g H *.6.5.+.u Z [ Y G @.w.} 3 i ` ",
"' } } <.4.+.4.:._ 5.a.a.f.2.) a i q j ) ~ 1.} } } } / / J L O.d * t d L g r f ,.+.+.O.g ^ +.^ ^ ^ 5.H f ( } -.[ Q =.&./ a ) 3.",
"} 5.1.&.,.' ^ k _ <._ +.' ~ / } ' ' ` X.} =.1.1.} / ~ H ( ( O.F 6 g O.@.( H H +.+.@.+.*.] ' ' ' +.( f g H &.q.Y @.%.Z ' ' ' ` ",
"&.w.&.~ ' :.' H t t g &.[ [ 0.w.f.L.-XpXsX:X( &.~ y u H ( R L O.L R *.J H R O.&.+.g x.OX4XiX3XP.( +.<.H u / 8.L L K u 1.' ~ ~ ",
"1.5.} H ^ <.+.t : 4 J q.=.| 0.0.C.*XyXaXhXjXyX,.( Z H H d S L O.J &.-.O.D W #.#.^ K 3XiXsXgXfXiX^ 1.5.O.s u &.F Y K [ 2.` } } ",
"} } w.5.&.*.J t f ^ &.&.0.| | C.}.-X9XpXhXjXhX1.1.} &./ t d ^ #.+.#.O.*.#.W @.@.-.K.3XpXgXjXgXiX7Xv.t t y u L F Q =.q.2.w.w.q.",
"` X.h.f.1.[ L F *.-.&.} y.y.I.%X-X-XuXiXaXsXpX( &.( 1.' L W @.-.1.+.S O.#.Q O.&.h.K.8XpXgXjXsXpXfXpXH.; < ~ p ^ [ } *.@.0.q.0.",
"X.5.h.w.5.( } Y @.q.1.( 1.z.U.%X-XyX8X9XuXuX:XF [ &.w.5.r.#.#.;.=./ u d N J +.<.l.v.3XpXgXsXfXsXhXfX3Xw w l e _ +.*.#.S C | } ",
"} ] ( } &.( 8.$.G $.1.' =.b.@X-X9XuX8X9XaXsXsX-X} } 1.q.L.|.XX3X3X3X|.{.a.g ( <.a.|.3XiXpXaXpXaXgXsX8X_ w 1 h +.+.<.@.9 5 A Z ",
"&.[ L } H [ r.$.F [ -.g.-.C.}.-X8XuX;X;XuXaXaXsX:X} }. X-X0XrXtXdXdXfXfXfX8XP.4./.3X3XiXaXaXiXpXaXpX3X..i w :.:._ ^ H u 6 m V ",
"Y I Q ( Z [ -.Y S [ 1.f.9.9.W. XoX=X=XOX;XuXaXsX7X*X=X7X7XwXwXdXgXgXgXgXgXgXgXfX3X3XiXfXaXiXiXpXiX4XXX} p _ h._ H t 7 u H ^ s ",
"M F [ F s [ 8.[ G [ 1.u.l.j.H.E.W./.|. X;X;X9X*X$X*X;X7X9XtXdXgXgXgXgXgXgXgXgXgXfXpXfXfX3X3X3X3X3XXXc.[ k 4.z.k p = = p ' ' / ",
"F %.8.&.[ 1.e.$.Y } &.w.q.u.u.1.Z.H.q.L. XOX$X$X*X=X;X9XwXdXgXgXgXgXgXgXgXgXgXgXfXfXfX8XXXE.c.H.C.r.G S f ^ h.+.4 % 4 k ^ _ _ ",
"[ -.-.0.5.-.i.8.Y L ( ' Z } q.w.w.u.w.1.L. X@X$X*X;X7XwXdXfXgXgXgXgXgXgXgXgXgXgXgXgXfX3XE.,.q.&.;.%.G N 0 q +.<.q q +.^ f k s ",
"( L K @.1.&.6.-.#.s H ( H / H } 1.r.1.@.c.@X@X*X;X7X7XwXdXfXfXhXgXhXgXgXgXgXgXgXfXgXdXwX' +.<.*.+.^ ^ J L g f <.,.<.-.F H J t ",
"/ H S [ &.O.^ +.y.^ ^ J L ( V L [ @.&.@.U.@X*X=X;X7XwXwXdXfXfXhXgXgXgXgXgXhXgXgXhXfXfXdXH.+.*.+.J g ^ J o.o.k <.h.i.Y F [ +.J ",
"s / L [ ^ g 7 f +.+.^ H ( &.U L H K &.v.@X#X*X=X7X7XwXtXtXfXfXfXgXhXgXgXhXgXgXgXfXfXdXdXOX*.<.&.( t g g o.o.o.*.g.r.U P J *.<.",
": ` / ( J s : : 1 O.^ S S @.&.@.K S O.U.#X&X&X=X7X7XeXwXtXdXfXfXgXgXhXgXgXgXgXgXhXfXdXdXiXd.^ ^ ( ^ ^ O.o.o.o.<.1.} L U ( &.<.",
"< k s ' g g r i : J ^ 6 6 K [ &.F u K +X#X&X=XM.b c n {.tXpXdXfXfXgXgXgXfXD.b v n.{.dXdXqXP.H H g ' ^ +.*.*.o.#.( J [ [ ( +.<.",
"< 2 < ..( ^ d t t u t 4 - V [ @.u V H #X&X&Xn + + + X   S.wXdXfXfXfXgXgXn @ @ O . o S.qX5X{.s ^ f J t J <.o.T #.J F ( } ~ <.*.",
"h < & _ g t u 0 f g 6 - 5 V L K V K K #X&Xn.# # # @ O X   E.tXdXdXfXfXN.# # # @ O o O XX0X Xu ^ g u u +.o.0 0 Q F S ~ ..~ <.<.",
"h & < :.r 4 H g q ' ( y L L V t K L t &X&Xz # # # # # O . n.wXdXdXdXdXv # # # # @ o X M.0X.X^ L t t +.*.T 0 0 R F V ~ ' ~ ^ 6.",
"3 3 j ` H y @.~ ; ( ( H F V 8 V / / y ).&X# + $ + $ O O X c rXtXwXdXwX# # # # # # @ X n.2XXXL d 7 S [ S L #.G E W Q Y } [ @.y.",
"a / A ~ =.K *.5.( } V K y u s u y ! j  X].$ $ + $ O $ O X n qXrXtXqXtXx # # # # # @ X m.2XE.T 5 N L Y G W $.P G W 7.7.Q Q %.8.",
"Z Z y A [ @.=.u.8.} F V > ~ ~ 3 * < j `.).M.$ $ $ $ + O @ E.6XJ.v XXqXA.# # # # # O x /.,XL.R 0 F W Y Y I P Y Y P $.Q P B [ @.",
"s V V Z H -.0.&.K V K y , ~ ..3 % < j J.[.[.Y.n.n.n.n.m.|.2X2Xc # M.qXqXE.M.m.m.n.S.5X2X].W D N N [ { Y Y F P @.Y G G S S Y Y ",
"Z L L K L =.&.L 8 V K Z s ~ X.3 < h h w !.[.[.1X).[.1X6X6X2X0X$ @ n rXrXqXqXqX0X6X3X1X>XZ.R 5 9 9 F %.%.[ F K Y S M F L %.$.[ ",
"( %.-.Y ( @.K S H L S V Z ! ` i k ..!  .l B.'.[.[.[.,X,X1X3X0X0X0X5XqX0XrXqXeX2X1X,X>Xd.G R N D D 9 Y { L V 8 F F 8 V [ 8.q.L ",
"[ 0.9.Y [ ( V V L Z V V V V ~ Z ' ,.3.>.e B.T.T.^.].[.6X1X6X6X0XrX0X5X2XrXtX2X2XwXfXsX-X0 R R ;.%.G M F K H V ( &.u 6 V F $.Y ",
"[ r.8.Y [ L V V V = K &.V y L / } _ ,.h B.W.W.T.T.!.[.[.1X1X>X0XtX5X<X1XrXtX2X2XwXpXsXsX:X#.;.;.-.G m [ [ @.&.@.@.V 8 9 V G K ",
"-.9.$.Y H / u u Z , [ 8.V 9 [ [ ( H ~ Z.W.W.T.R.Y.`.[.1X2X].Q.2XrX1XQ.[.eXdX1X1X2XqXdXaXsX:X%.P G G G %.L ~ @.( F D D T D S O.",
"r.8.I L a / / 8 [ 8.8.$.M 9 b.U.U.}.L.W.W.Q.Q.R.Y.`.[.2XeX^.s.>XeX/.d.`.eXtX2X,X<X5XtXdXsXfXiXgXjXuX%.W 9 V J L J R R T d O.u.",
"e.$.V S u / 2.L %.q.r.9.P k.U.+X$X}.W./.^.Q.Q.R.Y.Q.[.eXeX~./ ].5X~.@.'.eXdX6X~.<X2X5XrXwXfXwXgXjXjX-Xd N F Y W S ;.;.0 D O.r.",
"&.S V y 6 H i.q.=.$.p.p.7.G.}.#X X&X X).(.^.^.Q.N.Y.'.2X5X~.[ >X2X^.^ '.1XeX,X-.~.1X2X5XqXaXwXdXgXhXaXF F P Q Q R i.6.T J F ^ ",
"Y ( &.H V } p.8.Q 7.t.9.%.G.&X X XoX)._./.^.!.V.s Z `.'.].V.Y ~.1XF./ J.].].J.o.-.^.<X2X0XqX0XiXpXpXpX9 B P I #.r.r.T 7 D O.L ",
"Y &.u.0.[ *.r.$.E 9.9.E P v.).).oX.X.X.X_._.J.s : 6 [ ( [ $.F 9 y Z ( ( o.T 5 d #.( `.1X5X0X0XrXwXiX<Xu 9 N F *.6.T f 4 t 6.#.",
"M G 7.8.W W %.W E %.E P F L L.!.].).]..X_._.^.u = , Y Y Y Y L 8 > y / &.T g d d J R.`.2X0X9XqX0X0X0XT.( V M S 2.+.p e e q 6.@.",
"N W Q Y L W Q %.E P B M M @.@.d R.(..X.X_./.^.K / V L F G Q @.m 6 a Z ' T T d q O.J.'.1X7X8X0X5X|.D.1.-.K F F +._ w e e p #.@.",
"G @.G B W Y Y $.P B F M M Y $.W 7.!.]._._.(.Q.} q.} V F L K &.K K K y H ( / H ^ ,.&.`.>X2X5X5X,XV.[ L F G L S H K ~ ~ 4.^ K @.",
"G S 9 F R S G L N F Y M B P Q 8.%.D.!._.(.!.D.=.[ &.K [ ( u Z V &.( , V ' } 1.y.5.1.D.(.>X<X.XE.F W P M F N 5 S } } 1.w.H u [ ",
"0 0 9 N 6 6 Y K m V G V M B I $.W G 6.d.k.@.( ( -.r.1.q.( Z 6 : Z ' a s } / &.' ( &.( V a.d.2.Q W W Q B F M C [ &.[ w.f.( V F ",
"F G N 5 - y L F V 9 V V 9 F L P G Y -.$.} ( K L q.=.y.f.,.` Z a r / / Z K V ( ( m H ( S F Y Q Y P E 7.I G u [ =.&.1.g.y.( Y Y ",
"K Y F > m K ( } A 8 H K 9 9 V [ Y @.8.$.K ( S L ( K &.e.1.1.=.1.~ } } Z 6 V L q.F K } L Y Y I N B Y $.$.Y S $.0.=.g.j.` 6 ( %.",
"C F C m L / / H , , 6 K 9 6 F Y [ } [ &.[ [ 8 8 V V [ %.-.y.q.=.[ @.Y V 8 V G @.} [ @.F S M V m M K $.[ $.Y 8.q.&.w.e.' K V K ",
"C C C ] } / A s , , = y , 5 [ ( =.} S K L @.u 6 V V K [ P $.$.Y Y $.F N F L Y F Y %.@.Y 9 u y y y V ( [ @.-.-.@.[ } &.5.1.u M ",
"C U U 7.1./ y u a ~ s Z , y ( H @.L H t V [ =.m 5 9 H F G G $.7.7.W P Y G $.8.[ [ %.F F y Z a a , s } } Y Y Y ( [ Z H &.1.@.S ",
"U I E E @.L V s / X...j t H +.+.( u ^ d V =.u.L V K } [ Y L &.$.Y M F [ F K =.&.G L V 6 3 a ~ y : y @.[ 9 K L [ L V K y.g.f.*.",
"C Q E E Y F V K X.) ) ) :.*.<.*.t q g +.K &.-.H V [ 0.%.H K [ [ =.V u L V H @.} V S V > 3 i y : , 8 L V 8 H K ( @.0.u.1.*.*.-.",
"t %.I P Q F S K ( ) ! ) ,.^ *.' : t g &.&.1.1.H S } q.&.L K V [ =.L K L H [ =.[ K Y y , y r , : 3 8 8 6 y K K L -.u.y.t : g #.",
"H +.L P P L V u H / ! s u t ^ ^ t t H +.&.q.} Z s 1.5.=.[ H S [ @.[ &.H V @.r.-.} &.3 u V a , 6 y > - 6 8 F } [ =.q.q.V : g L ",
"' g ( W W Y M S [ ( V 8 t g +.O.+.^ +.g t ' ' H , u } 1.} K L } L H [ H 9 [ 1.=.=.=.u u u K H / u , : 3 V K L ( *.1.} K 6 f D ",
"( H @.8.t.&.K Y [ [ 9 6 H +.2.<.6.+.^ s 6 a ~ ! = : ! 5.&.K L [ K V S V 8 K / L =.=.V 9 8 ( &.} y = s ~ y A V [ %.=.&.-.( H @.",
"} ( $.$.@.Y Y $.Y Y M M +.d ^ <.6.6._ H y : a y : : Z 5.[ V Z L u 8 V L S K K K &.=.9 V [ %.=.Z = * a ~ Z V V [ =.&.0.u.&.^ @."
};
