/* XPM */
static char *result[] = {
/* columns rows colors chars-per-pixel */
"64 64 247 2 ",
"   c #291A09",
".  c #30130B",
"X  c #39160A",
"o  c #2D2909",
"O  c #37290C",
"+  c #273709",
"@  c #38370D",
"#  c #392813",
"$  c #3C3511",
"%  c #393A14",
"&  c #38342A",
"*  c #47140C",
"=  c #561B0E",
"-  c #431C13",
";  c #551711",
":  c #651809",
">  c #45270F",
",  c #5D260E",
"<  c #463B0F",
"1  c #462814",
"2  c #4D2C12",
"3  c #5D2411",
"4  c #532D13",
"5  c #5B2D14",
"6  c #443313",
"7  c #493716",
"8  c #563717",
"9  c #5C3214",
"0  c #54341A",
"q  c #5D3A1C",
"w  c #672D0D",
"e  c #672913",
"r  c #722A13",
"t  c #772812",
"y  c #633316",
"u  c #693616",
"i  c #633519",
"p  c #633C1D",
"a  c #6B3B1B",
"s  c #773D18",
"d  c #493828",
"f  c #593A24",
"g  c #453E33",
"h  c #643F23",
"j  c #37480D",
"k  c #38580C",
"l  c #3A4714",
"z  c #2F5811",
"x  c #3E5714",
"c  c #366707",
"v  c #3C6D0A",
"b  c #3F7209",
"n  c #396714",
"m  c #434817",
"M  c #504411",
"N  c #425415",
"B  c #445B18",
"V  c #6C451E",
"C  c #764419",
"Z  c #7B431D",
"A  c #426B0C",
"S  c #437409",
"D  c #42730D",
"F  c #46790C",
"G  c #4A7D0E",
"H  c #446415",
"J  c #436B14",
"K  c #496618",
"L  c #4B6B1C",
"P  c #457513",
"I  c #487517",
"U  c #467912",
"Y  c #4B7C14",
"T  c #4C741C",
"R  c #4C7D1B",
"E  c #517415",
"W  c #527918",
"Q  c #527C1C",
"!  c #4F492D",
"~  c #59462C",
"^  c #674525",
"/  c #6B4422",
"(  c #754A25",
")  c #744B25",
"_  c #75512F",
"`  c #7E522A",
"'  c #654D35",
"]  c #66513A",
"[  c #755538",
"{  c #4E6725",
"}  c #4C7821",
"|  c #557925",
" . c #355650",
".. c #3D6259",
"X. c #45544F",
"o. c #6A5944",
"O. c #765E46",
"+. c #47635D",
"@. c #7D684F",
"#. c #7C6A53",
"$. c #55716D",
"%. c #862C14",
"&. c #8C2911",
"*. c #8D3016",
"=. c #973317",
"-. c #A52D15",
";. c #A43719",
":. c #AD3A1A",
">. c #B43D1B",
",. c #B93F1C",
"<. c #83451E",
"1. c #874818",
"2. c #90541B",
"3. c #BE411C",
"4. c #A45918",
"5. c #874A22",
"6. c #944E23",
"7. c #82552C",
"8. c #895A2C",
"9. c #955324",
"0. c #9D5424",
"q. c #985C29",
"w. c #825830",
"e. c #8D5E31",
"r. c #915F31",
"t. c #A35B26",
"y. c #A65B26",
"u. c #B25F25",
"i. c #95622E",
"p. c #936232",
"a. c #9A6634",
"s. c #9D6935",
"d. c #9F6B38",
"f. c #A7662A",
"g. c #B36126",
"h. c #B66A2D",
"j. c #B27829",
"k. c #A46A35",
"l. c #A46E38",
"z. c #B46D32",
"x. c #A77139",
"c. c #AC743B",
"v. c #BC7434",
"b. c #B57539",
"n. c #B47A3E",
"m. c #BC7B3C",
"M. c #C0411D",
"N. c #C17936",
"B. c #C37D3B",
"V. c #816A50",
"C. c #867259",
"Z. c #B97E40",
"A. c #8C7C64",
"S. c #907F66",
"D. c #4C810D",
"F. c #52860E",
"G. c #4E8214",
"H. c #4E811A",
"J. c #528514",
"K. c #548A15",
"L. c #588D15",
"P. c #53841B",
"I. c #5B861B",
"U. c #558A1B",
"Y. c #5A8D1C",
"T. c #5A9216",
"R. c #5C921C",
"E. c #61951E",
"W. c #629B1C",
"Q. c #548422",
"!. c #598426",
"~. c #568A22",
"^. c #5B8C23",
"/. c #578929",
"(. c #5C8C2B",
"). c #5D9223",
"_. c #5F9229",
"`. c #618B27",
"'. c #629524",
"]. c #659A25",
"[. c #63942B",
"{. c #699629",
"}. c #65992B",
"|. c #699C2C",
" X c #638A33",
".X c #679734",
"XX c #6A9C33",
"oX c #719F38",
"OX c #6BA125",
"+X c #6CA22D",
"@X c #6AA133",
"#X c #6DA134",
"$X c #72A43A",
"%X c #74A938",
"&X c #759E44",
"*X c #7BAB46",
"=X c #738A7B",
"-X c #BF822B",
";X c #CC8B2E",
":X c #C5813E",
">X c #C9823E",
",X c #DC9731",
"<X c #E19B31",
"1X c #BD8142",
"2X c #B08056",
"3X c #82B649",
"4X c #95856B",
"5X c #9D8D73",
"6X c #AF9372",
"7X c #C48543",
"8X c #CA8642",
"9X c #C68845",
"0X c #CC8B46",
"qX c #CF8E48",
"wX c #D18E47",
"eX c #D18F48",
"rX c #CF9048",
"tX c #D39149",
"yX c #D5934A",
"uX c #C49E73",
"iX c #C9A377",
"pX c #648987",
"aX c #69918E",
"sX c #6C9693",
"dX c #6D9997",
"fX c #8B9B85",
"gX c #AD9D81",
"hX c #ADA386",
"jX c #B8A78A",
"kX c #B1B195",
"lX c #C1AC8D",
"zX c #C9B897",
"xX c #D2BB99",
"cX c #D1C19E",
"vX c #CBC4A4",
"bX c #D9CAA6",
"nX c #D9D2AE",
"mX c #E6D2AC",
"MX c #E6D2AD",
"NX c #E7DAB4",
"BX c #EEE1BA",
"VX c #F4E6BD",
"CX c #F7E8BE",
"ZX c #F9E9BF",
"AX c #F7E9C0",
"SX c #FAEBC1",
"DX c #FEF1C7",
/* pixels */
"'.U.K.U.Y.P.U.[.[.'.).).[.(./._.[.|.|.@X[.K.U.@X@X_._.}.!.Q T n k J Q !.`.[.}.|..XXX).H.H.~.~.~.).).T.U.K.K.D.T.R.D.D.D.D.F.~.XX",
"[.Y.U.).}.^.Q..X$X#X}.)._..X_.).R.].).].@X_._.}.).Q.{ l % 6 7 q M 8 7 7 % l x } ~.~.U.G.b H.~.H.K.K.T.T.K.K.K.K.K.D.b F G.F.G._.",
").U.J.}.%XXX].@X$X%X*X@X}.|.).).).R.W.).@X@X).T l 6 ^ e.Z.Z.7X9X0X9X1XZ.c.e.) 7 @ j I R H././.H.H.K.T.T.K.T.W.T.K.F c b ).Y.F U ",
"'.^.J.Y.+X|.+X+X|.#X%X%X+X}.R.'.].].OXOX@X_.l 7 ` n.qXtXyXtXeXeXtXtXtXtXwXwXeX1Xs.^ $ N } /./.H.U T.T.U.T.U.W.T.K.b c F '.Y.U b ",
"[.|.].U.R.].%X%X].].|.R.].'.U.R.U.K.).+X[.% ^ Z.tXyXwXZ.k.c.0XeXeXqXqXqXv.h.N.0XB.N.k.q @ } P.Y G.T.T.).@X).R.T.K.G.J.Y.}.].Q.~.",
"Y.XX*X@X'.+X%X%X|.'.).L.K.U.J.J.D.b H.~.% ) 9XtXrXtXk.d ! g h l.tXrXeXqXN.g.h.9XB.h.B.0X` o j l H.~.K.}.@X@XK.T.R.].'.'.|.+X#X#X",
"G.).3X*X}.XX%X|.Y.U.U.J.G.P.P.Y b c n + / 0XtXeXrX9Xf +.aXpX+.d a.qXeXeXeX>XB.0X8X9XqXtXp.& X.X.z ~.~._.@X_.U.T.+X].].].R.)..X[.",
"G.P.$X|.^.}.XX(.P c P P.~.(.R b n n + 0 7XtXeXqXtX9X0 $.dXsXaX$.& a.tXqXeXeXeX8Xv.9XtXe.d $.dXaX& b ~.~./.H.~.@X+XW.].R.D.P.^.Q.",
"H.H._./.R Q. X| n z n /. X!.I n } n o k.tXeXeXeXeXeXr.& $.aXdXdX$.d c.yXeXqXqXqX9XeXk.d $.dXdX$.% T [.(.R Y Y.|.].R.'.U.Y Q./.Q.",
"P.Q.(.(.| } } x j n | (.oX!.I I } l f 9XB.B.qXqXeXeXeX7.  X.pXdXaXX.q 9XeXwXqXeXtXZ.d $.sXdX$.& o !.XX(.Y U Y.R.L.R.}.^.} } /.(.",
"~.Q.~.(.(.l 6 f f 7 < { &X.XI P n # a.0Xg.h.9XeXtX0Xr.f g g & $.sXaX& e.eX7X0XeX0X) X.aXsX$.& ^ f { XX(.H.P.).).Y.'.XX^.P I (. X",
")._.(..X{ 7 x.eXrX1Xp.f l | Q.} H 1 Z.0Xv.v.0XeXqX7.' jXNXMX5X! X.sX$.d 7Xb.B.yXZ.d pXpXX.g ~ ^ ) l H.Y Q.[.}.'.'.].'.~.} /.[./.",
"[.XX[.(.% w.yXeXqXtXtX7X` # H  X{ h 0XeX0XqXqXtXa.' bXAXAXAXAXzXo. .pX& d.a.Z.yXl.& $.& o.vXNXA.d $ T Q P._.|.R.).).P./.(.(./.I ",
".XXX[.T $ n.yXeXeXqXqXeXtXd.6 B l ` tXqXeX:XB.0X^ hXAXAXVXVXCXBXcX@.& & e.Z.0XeX7Xf # 4XnXAXSXNX]   | ^.Y ~.}.R.R.Y.P.[.(.~.~.U ",
"}..X[.} 7 1XeXeXrXqXeXeXeXtXZ.d   e.yXqXeX8X8Xb.' nXAXAXVXAXNX=X=XvXf ) 7XeXeXeXtX( C.vX=XnXAXSX5X  { Y.Y Y ^.L.R.R._..X[._._._.",
"^.}.&X| 8 Z.7X9XtXrXeXeXeXeXeXc.2 ) qXtXeXeXeXs.@.VXAXVXAXAXvX..+.vX#.d.yXwXqXeX0X' gXfX .fXAXSXjX# k A n j @ B ^.}.oX.XoX#X@X@X",
"(..X*X X6 f 0 0 e.0XwXwXtXeXeXyXn.0 e.eXqXeXtXk.O.BXAXAXAXAXkX....vX@.s.yXeXtX0X9X_ hXfX .kXAXDXjX. l z O 5 a > K [.{.I.].XX}.).",
"(..XoX X# 1 s u - e.tXeXeXeXeXeXtXc.q n.tXrXrXZ.~ bXAXAXAXAXbX$.=XvX' n.9Xp.) V / 1 o.hXsXNXAXAX4X1 o > s 6.0.i m  X'.J.J.^.~.P.",
"/.).).^.l 5 6.0.i h 0XeXeXtXwXeXeXyXs.d.tXqXrXqX) A.AXSXVXAXAXnXnXC.` c.p 5 s 1.<.C u f A.MXDXzX[ h X ( 0.6.6.y m [.^.G b D.G.G.",
").R.R.).{ $ 3 <.5 ` eXeX0Xv.v.:X0XeXeX0XrXtXqXtXZ.h S.nXBXAXBXbXC.) c.i s u.g.g.g.g.u.0.u O.4X[ l.` 5 0.6.6.0.4 N U.Q Y G.H.H.D.",
"L.Y.E.Y.P.} l . 2 Z.eXeX0Xv.g.g.B.tXeXtXrXrXqXqXeXm.) ] C.A.#.' _ 1Xs.9 u.g.u.g.g.u.g.g.u.5 0 b.eX` y 9.6.6.<.O H P v Y ~./.H.Y ",
"D.Y.].^.P._.| o y f.m.0XwX0XN.h.B.0XqXqXqXtXqXrXwXwXZ./ 2 0 7.Z.rXyX7.C g.g.g.u.g.g.u.g.g.1.h wXeX( y 9.1.6.y @ v k c R /.(./.Q.",
"L.].XX}.{.XXoXL O 4 5.f.m.8XwXwXeXeXeXeXqXrXrXtX7X7.5 r r e 9 w.1XtXa.9 y.g.u.g.g.g.g.u.u.1.a 0XwX/ y %.s Z # L n k I Q.Q.} Q.!.",
").'.'.}.XX{.%X+XR @ # 5 Z 0.k.v.:X>X9XqX0X0XrX0X( e ;.M.,.>.;.: y k.7Xp s u.g.g.g.g.g.g.u.y w.eX0Xh u <.%.> m  XH.Q.[.~.x % H Q.",
"^.U.P.).[.[.}.}.{.Q K l O # 4 5 i i ` 9XB.z.0Xs.e >.,.*.e t =.>.*.5 e.x.i 9 1.y.y.y.y.2.y ^ 9XeX9X0 s <.> % Q  XoX#X).x ~ f x R ",
"U.Q.U.).).Q.Q ^.XX[.Y.U.Q K x j + X 9.8XN.g.B.h *.M.t X . ~ o.t >.;.e / s.w.p 5 5 9 5 i 7.B.8XyXn.- > > N Q I..X*X Xm #.nX4Xm Q.",
"I ~.^.^.Q.W A U Q (.!.P.Y.[.'.^.T O 9.m.9XB.Z.5 :.-.* * * o.bXS.e =.,.%.5 ( 7.` _ ) ^ ` n.0X>XwXk.O l L `.`.`..X X! 5XBXBX6XN Q.",
"n } U.~.P.Y D A v Q.U.Y Y ^.].'.P.j 9 b.qX0XZ.e >.%.X ; ; - 4XNXhXh %.>.>.*.r r r r t t 5 l.wXwX7.j I.'.E.{.`.| d gXBXVXNXlXm | ",
"n P } /.Q.H.I I k B l j + j N B x k o 9.>XtXc.e >.t X * * * . @.vXvXC.e &.:.,.,.,.,.,.M.*.p >X0Xq H P.I.{.'.E m 6XZXZXNXMXxX! L ",
"} n n } Q.I j o O V ` e.r.r.7.( q 6   4 v.wXZ.y >.*.. = 3 = * . 1 #.hXgXO.f 3 3 3 = = :.>.9 1Xc.$ I Y (.{.W M 4XZXZXVXmXmXxX' | ",
"} n z /.n m o.o.' e.9XtXyXwXh.h.:Xm.( X Z 0X0Xa =.:.= ;.M.,.:.%.X . - d f 1 . X * * X =.:.9 1XV j Y I.[.I.N o.BXZXVXmXbXmXxX! [.",
"n n } } ! zXAXAXnXS.7.qXwXwXN.h.>XtXwX5.X i.wXr.e ,.t r ,.M.M.,.-.* * * ; * ; ; ; * * :.*.V l.> H Y `.^.I.m jXZXZXmXxXbXmXlX! .X",
"I } x $ o.zXMXSXVXhX' 9XtXeXwXwXB.N.wX0X/ > c.7Xy *.>.e r >.M.M.M.*.* * ; ; ; ; ; . t >.e 8.V j G L.L.W A ] NXCXVXbXxXbXmXlXm |.",
"H.x 7 a.w.^ A.nX4X^ k.eXeXtXtXtXwX8XwXyX8Xh 4 m.x.3 =.>.t = *.>.3.M.e * ; ; ; * X e ,.%.a 7.@ E F.E m < o 4XCXCXmXxXxXmXmX2XB {.",
"n 2 Z.eXeXZ._ [ 7.1XyXqX0X:XB.B.7X8XwXeXeX7Xh 4 b.a.5 =.,.=.e = r *.r . * * * * %.>.*.i ( 6 K F.G m 4 2., 4XVXZXmXxXcXmXbXo.K '.",
"@ e.tXeXeXeX9X7X0XtXyXm.7.0.q.9.t.y.z.B.wXyX1Xa 2 a.d.i t ;.>.;.%.r 3 ; = e %.:.>.t q ( 7 K G G A M -X2.C p C.cXcXcXbXmXjXm !.].",
"O n.tXqXeXeXeXyXyXeXeX0Xp 4 2 > 1 4 Z q.B.eXeX7X( > ( k.7.y r *.;.:.>.3.,.:.;.%.e h V $ E L.G E N C <X;Xj.C M / C.zXmXmXV.K E.Y.",
"$ p.tXtXeXeXeXeXeX9XqXtX/ + H J B # > a Z.eXeXeX>Xq.5 2 ) r.7.( h e u r r i h h V 2 j K W I.I.'.E M -X<X,X-X2.C u ] 6X6Xd N U.J.",
"K 8 l.eXtXtXeX8Xk.( 9XZ.6 H U.U.x q 0.q.0XeXeXeXeX0Xv.6.i > 0 / ( ` _ ( / ^ 9 4 > O E I.W W.{.I.M > 4 f.,X<X;Xf.1.C s q 1.1.m Y ",
"].L 6 / p.f.t.<.- O f 7 j Y ^.T # 6.g.0XeXeXeXeXeXeXeXb.) f 1 X 5 5 4 4 5 X 2 5.0.w < W E.{.`.M a.9Xa.2 C ;X<X<X;X2.1.2.4.s 6 Q ",
"|.|.Y j O > O O N E B E Y D.'.m a y.m.eXtXwX:X:XqXeX9X_ 4XvXxXA.h 0.0.0.9.2 <.f.t.0.4 % N N 6 ` yXyXyX8.  9 f.,X<X<Xj.C w w B OX",
"%X].L.H.J L Q Q '.+X%X|.L.J.T 2 0.h.0XtXtXwXN.N.tXtXs.#.VXSXSXNX[ k.v.b.Z 4 0.t.y.y.9.e.r.d./ x.0XeXtXl.= : * C -X<X,X2.1.w | {.",
"|.U.G.Y F ^.$X}.OXOXOX3X].I.m a y.B.eX1Xc.l.k.n.9XyXa.C.SXSXSXNX[ b.tXn.> C y.t.y.t.m.yXyX0X) n.e.Z.eXr.t &.* > > 2.f.u w < `.I.",
"^.Y.~.P.Y [.%X#XW.W.3X%X].E 6 2.z.n.e.) ) ( / q ^ Z.1X_ 5XnXvXC.[ 0X0X) o y t.t.t.f.0XeXeX9X) Z.7.^ ` 5 &.w d.Z.i.C O o N W I.I.",
"^.'.$X[.^.}.#X].W.OXOXW.T.H 5 t.v.n.c.1X9X0X9X1X7.0 c.n.` _ _ e.0XeX8.l K $ <.y.t.z.qXeXeXqX7.x.9Xh = -.%./ eXtXwXm.q j Y {.'.^.",
"K.R.OX|.).'.+XW.E.OXOXT.L.x p t.b.eXeXyXeXyXrXtXtX` h 0XrXb.7XeXeXi.6 | `.B # 2.f.v.eXeXeXeX1XZ.Z.y &.-.3 0 8.l.l.` $ k Y {.`.`.",
"F.R.W.'.Y.R.].].E.T.T.F.F.B 9 y.f.z.:X0XrXyX0XeXtX7X0 a.wXv.8X0Xe.$ H ^.I.Q m > <.z.qXtXtXeX1X7.4 = -.t ) Z.7.( ( - l L W [.'.J.",
"J.E.R.L.R.R.E.].L.F.A j j J $ C t.y.9.b.rX>Xv.v.0XtX7.i b.N.v.q.O n Y I.^.I.W x $ 9 ( 8.8.` 0 4 1.: &.&.a 9XyXeXf.6 L (.Q.Y.].L.",
"I.F.Y F.R.J.Y.R.Y j > u 9 $ l @ 4 Z y q.rX:Xg.h.wXyXc.2 <.t.0.6.2 k D R ~.^.}..X!.{ l j j j @ f.0.1., : * M a.9.8 B _..XQ.H.R.].",
"J.G G J.Y F R.P.l 5 6.t.0.s > o . - X Z 0X0X>X1Xx.x.n.2 5 6.t.t.Z @ J H.(.).[.[._.[.~.G.K.K.M ;X;Xq.1.C w w O N T ^.oX$X^.G.R.OX",
"J.F.F.F v F U.H 2 6.0.0.0.0.y y <.6.5 V 0XeXc._ @.C._ # i t.t.t.0.2 x H.Q.U.Y.U.H.P.Y.J.L.T.N 2.,X,Xj.1.C w < ).]..X*X$X).U.R.].",
"L.Y.J.S F P.Q < Z 0.0.0.0.6.s 0.t.t.u a >X1XO.zXVXCXcXd = ( 6.0.t.a l R F G.).[.Y.H.Y.R.R.T.P.j ) ;X<X4.%.y K |.|.$X%X[.H.~.R.K.",
"J.I.G.F H.~.H 4 0.y.0.0.0.0.0.0.0.0.u u 9Xe.jXDXCXCXCXjXC.7 > u t.*.% P S J.L.].).Y.).U.K.H.G.F k M 8.u w m `.+X}.$X#X(.H.G.L.K.",
"K.K.K.U.).~.j [ Z.6Xk.6.0.0.0.0.0.0.u i 9Xe.5XhXMXCXNXVXNX#.` h y 5.@ G G.K.R.U.R.].'.L.D.U F U F S N l K L.|.'.).[..X[._.H.D.F.",
"K.K.K.]._.P.% 2XlXuXZ._ s 0.0.0.t.0.2 y 9X7Xp._ V.4X@.C.#.` 9X1X5 > l K.U.].}.R.E.'.R.J.Y } Y U S Y ^._.Y.).).^.^.P.I.}.}.^.G.F.",
"U.T.W.W.].U.j C.iXuXuX6X0 5 <.<.C 2   y 7XtXeX9Xl.a.c.x.c.9XrXtX) o G R.L.R.[.'.Y.U.J.S b I H.I b Y ).).G.K.Y.).Y.H.(.$X%X$X].W.",
"U.E.W.W.R.L.H 7 [ h O.V.7 N < $ @ j l p :XrXrXtXeX8XN.h.h.f.z.7X) k R Y.P.U.[.).P.J.Y b b P I b v Y U.J.G P.P.^.).}.XXXX}..X{.+X",
"G.].T.R.R.L.G.H N N l l | (. X| v U x q 1XyXrX7Xz.y.0.0.0.0.0.y.q H U.U.P.U.}.^.U.U.Y b U U v c S U F S F U.U.Y.}.$X$XJ.D P.[.{.",
"P.^.R.L.R.T.J.Y Q.Q.R R R R Y.!.I Y J 9 z.0Xv.t.0.0.0.0.0.0.0.C @ Q.^.P.H.).#X}.).).U U Y Y D P F b v S F U.^.).}.#X|.Y A Y I.'.",
"^.I.^.R.).R.G.P.(.^.Y U U J.^.).^.^.T 6 9.t.0.0.t.0.t.0.t.0.Z > H Y.'.P.D.^..X}.|.).H.F Y R P.P.Y b v U Y J.U.R.}.+X].P.F W I.E.",
"Q.U.).}.@X].K.R.'.Y.G F P.`.{.}.oX{.| % a 0.0.t.0.t.0.6.<.9 $ H U.J.J.H.D.U.U.^.OX_.H.D.G.~._.~.P c I H.R J.P.^.].}.'.[.(.I.`.}.",
").Y.'.].'.Y.R.R.R.L.G J.^.P.!.}.oXoX^.H O 9 Z Z <.s i 4 O j I I.G.F G.J.J.U.U.U.).}.G.G.R.|.}.H.c c Y Q.P.J.G.Y.}.[.|.$X}.`.`.].",
"_.Y.U.K.F.K.L.U.L.L.F.R.^.A U Y.XX}.Y P J j @ o o % l B T J.U.[.J.F K.U.P.H.U.P.~.).K.K.].XX[.H.v v H./.!.I.Y.(.}.[.oXXXoX{.P.E ",
"[.H.G S F G.U J.R.L.L.E.J.c Y !.^.I.F P R R T z z n n R G.U.[.}.P.G G.H.H.H.H.G.H.).T.R.@X$X#X_.H.I Q.[.[.{.oXoX X!.{.!.[.[.E S "
};
