/* XPM */
static char *_fcbc49eac43465e90d710c91f221afftZNNHTeCNflTOfLh[] = {
/* columns rows colors chars-per-pixel */
"64 65 224 2 ",
"   c #2F1E39",
".  c #321F3C",
"X  c #38392D",
"o  c #2E203A",
"O  c #362A37",
"+  c #392E36",
"@  c #34223D",
"#  c #38243E",
"$  c #3B2C3B",
"%  c #3C3733",
"&  c #3C3339",
"*  c #413938",
"=  c #285603",
"-  c #2D5D12",
";  c #375A19",
":  c #2F6108",
">  c #366607",
",  c #3B6C0B",
"<  c #3E7306",
"1  c #3F720B",
"2  c #386515",
"3  c #3C6D12",
"4  c #3C4727",
"5  c #425E1E",
"6  c #446B0C",
"7  c #42750C",
"8  c #4A750F",
"9  c #457A0D",
"0  c #497D0C",
"q  c #476A19",
"w  c #456C1A",
"e  c #437413",
"r  c #4A7614",
"t  c #467A12",
"y  c #4A7C14",
"u  c #44741A",
"i  c #4B741C",
"p  c #467919",
"a  c #4C7C1B",
"s  c #517B16",
"d  c #517D1B",
"f  c #465B26",
"g  c #465B2A",
"h  c #444635",
"j  c #485530",
"k  c #4A5833",
"l  c #496525",
"z  c #516A2B",
"x  c #4D7725",
"c  c #547D26",
"v  c #55752C",
"b  c #536834",
"n  c #577531",
"m  c #372241",
"M  c #3B2342",
"N  c #462549",
"B  c #4B264B",
"V  c #51274E",
"C  c #542A52",
"Z  c #5A2A55",
"A  c #5A2C59",
"S  c #642D5B",
"D  c #682D5B",
"F  c #68315F",
"G  c #712F62",
"H  c #6C3366",
"J  c #773367",
"K  c #83366C",
"L  c #893A75",
"P  c #953A79",
"I  c #4D820D",
"U  c #51850E",
"Y  c #548A0F",
"T  c #4D8314",
"R  c #4E8917",
"E  c #4E821B",
"W  c #528514",
"Q  c #5D8415",
"!  c #548B15",
"~  c #598C16",
"^  c #53851B",
"/  c #5A851B",
"(  c #558A1B",
")  c #5A8D1C",
"_  c #5B9216",
"`  c #5B9817",
"'  c #56911C",
"]  c #5C931C",
"[  c #618A1C",
"{  c #629C16",
"}  c #61951D",
"|  c #63991E",
" . c #4C8123",
".. c #548422",
"X. c #5A8624",
"o. c #558A23",
"O. c #5B8C23",
"+. c #538329",
"@. c #59872B",
"#. c #5C8C2A",
"$. c #579121",
"%. c #5D9223",
"&. c #5E9924",
"*. c #5E922A",
"=. c #5E9929",
"-. c #5B8C31",
";. c #5F9131",
":. c #618F23",
">. c #628D2B",
",. c #629524",
"<. c #649A24",
"1. c #689E26",
"2. c #63942C",
"3. c #6A952D",
"4. c #659B2B",
"5. c #699C2C",
"6. c #628D33",
"7. c #659532",
"8. c #699533",
"9. c #669B32",
"0. c #6B9C33",
"q. c #69933A",
"w. c #6C9D39",
"e. c #729D38",
"r. c #68A129",
"t. c #6BA12C",
"y. c #71A42D",
"u. c #74AA2E",
"i. c #67A131",
"p. c #6CA333",
"a. c #6DA23A",
"s. c #6FA939",
"d. c #72A434",
"f. c #77A937",
"g. c #73A43B",
"h. c #74AA3C",
"j. c #7CB13E",
"k. c #729D42",
"l. c #78A646",
"z. c #7AAC43",
"x. c #7DB242",
"c. c #85B651",
"v. c #AB3E86",
"b. c #8F4182",
"n. c #994487",
"m. c #A9448A",
"M. c #B5458B",
"N. c #AB4994",
"B. c #BB4694",
"V. c #B24C9B",
"C. c #BB4EA2",
"Z. c #C8479A",
"A. c #D2429E",
"S. c #D34B9D",
"D. c #CB4AA2",
"F. c #D544A2",
"G. c #DA46A4",
"H. c #D848A7",
"J. c #DD49A6",
"K. c #DD4BA9",
"L. c #C752A9",
"P. c #DA55A8",
"I. c #DD52B2",
"U. c #DC5AB9",
"Y. c #E047A7",
"T. c #E14AA6",
"R. c #E44CAA",
"E. c #E94FAB",
"W. c #E551AB",
"Q. c #E557AA",
"!. c #EC52AD",
"~. c #F154AF",
"^. c #E455B4",
"/. c #ED56B1",
"(. c #ED5AB4",
"). c #E557B8",
"_. c #E25BBC",
"`. c #EA5BBA",
"'. c #F256B1",
"]. c #F45BB3",
"[. c #F85EB5",
"{. c #FC5FB9",
"}. c #EE60B7",
"|. c #EE62BC",
" X c #F561B5",
".X c #F963B6",
"XX c #F365BB",
"oX c #FC65B9",
"OX c #F66ABC",
"+X c #FC6ABA",
"@X c #FA72BE",
"#X c #E55FC1",
"$X c #EA5EC3",
"%X c #EC62C5",
"&X c #EF68C4",
"*X c #F267C0",
"=X c #F56CC2",
"-X c #F46DC8",
";X c #F771C3",
":X c #F974C4",
">X c #FB7AC5",
",X c #F671C9",
"<X c #FA76CA",
"1X c #FD7CCC",
"2X c #FE7FD0",
"3X c #FB82C6",
"4X c #FE83CD",
"5X c #FE8BCE",
"6X c #FC93CF",
"7X c #FF84D1",
"8X c #FF8BD1",
"9X c #FF93D2",
"0X c #FE9BD3",
"qX c #FDA3D6",
"wX c #FBADD9",
"eX c #FAB9DD",
"rX c #FAC1DF",
"tX c #FAC9E3",
"yX c #FAD6E8",
"uX c #FAE2ED",
"iX c #FCEEF2",
"pX c #FEF5F4",
"aX c #FEFAF6",
"sX c #FEFBF8",
/* pixels */
",.( ! ! ( T o.,.,.*.%.%.9.#.o.2.2.p.t.p.4.R E p.9.=.4.4.5.<.%.' I _ <.t.r.5.&.9.9.a.%.) ( o.o.( %.&.] ` W ! I ! <.U 0 W I U ( 0.",
"4.O.( %.9.....9.g.a.2.o.*.a.O.,.] ,.} <.s.4.4.9.%.4.i.p.5.<.5.&.R ] r.i.p.4.%.4.%.o.( T e  .o.^ ( R ` _ ~ _ ! ~ ! 0 7 7 T W T 2.",
",.( ^ 5.x.0.,.p.h.z.z.p.5.0.O.,.,.} | ] p.i.=.4.=.p.p.i.&.] &.<.] &.&.( $.R ( i.$.T $.T p +.#.( T R ` ! ~ ! } _ Y 0 > , 4.] 9 y ",
",.%.y ( p.5.5.p.<.d.x.d.d.5.( ,.1.| t.1.p.i.%.h.s.4.=.%.' ! ] <.&.&.! 9 R R ' 4.4.$.i.%.E o.o.E 9 ' ] ' ~ ( <.] ! < > e ,.) < , ",
",.p.%.( ] <.d.f.<.<.t.) 1.5.! %.] T <.p.s.i.4.z.s.$.E i z g k k j k g l i E ( ( &.&.p.4.^ o.( t T ' ] %.4.4.] _ ! W ^ ) 5.<.^ o.",
") p.x.d.,.5.j.f.5.] ,.( ! ( T W T < ^ 4.=.4.4.6.b h $ # M M M m m m m m @ $ % g c =.p.=.( o.( R =.' ( 4.g.5.( ~ ] | ,.,.t.t.p.g.",
"W %.c.x.,.0.h.0.) O.%.W 0 ( W T 7 : : E E z h M M M # N Z A S D D S S C N m @ M m * b O.) ) R ( =.R R %.a.*.( ] y.1.<.5.] ,.0.2.",
"W T h.0.O.0.g.*.e > 1 o.( O.E e e 2 = ; * M m M C K M.S.W.!.'.].'.'.!.J.Z.m.K C @ @ m & b E 9 R $.$.%.o.#...( 1.u.| } } I W O...",
"E y 2.o.a ..6.i : = , ..8.#.e 2 i l X M m M G M.Q.[.oXoXoXoXOXOXOXOX X].].].'.J.M.G M @ M % q t ^ ( *.O.E y ) t.1.~ ,.( 7 ..#.a ",
"^ ^ O.#.c u q.c w x +.@.w...i i g $ M . G Z.].oXoXOX:X>X3X3X5X3X3X3X1X>X:XOX X'.'.!.B.G . m # f #.#.8.2.r t ) <.~ ) 5.O. .+.-.@.",
"o.o.o.#.6.c k.q.@.l.l.q.c.8.3 4 M @ B m. XoX+X:X3X5X5X5X5X5X5X5X3X5X3X3X4X3X1X:X X/.'.!.v.B . M h e.w.>.y E %.] ~ ,.p.*.e e @.;.",
"O.2.#.7.8.#.q.6.@.k.k.w.g.8.h M . F P.+XoX@X5XqXrXyXyXeX6X5X5X5X5X5X5X3X4X3X3X1X1X:X X!.'.S.D . m h d a X.*.4.,.} <.,.o.p +.8.7.",
"2.w.7.7.7.>.X...X.8.#.#.o.h M . K  X+XOX3XwXyXiXpXpXpXsXrX5X6X5X5X5X5X5X5X5X3X3X1X1X>XOX!.~.R.L @ M % i ..,.p.] <.4.T #.#.#.#.a ",
"7.w.2.^ #.>.#.^ r r d 2.j M . P .X+X:X6XtXpXaXpXpXpXpXaXyX6X9X9X8X8X5X5X5X5X4X3X3X1X1X1X=X/.!.!.P @ M h r ( 5.) ) ( T 9.#.....t ",
"9.0.*...X.8.>.r > 6 X.b M . L oX+X:X0XyXsXaXpXpXpXpXpXaXtX6X9X9X9X9X8X5X5X5X5X5X3X1X1X1X1X:X/.!.!.L . m h y ,.) ] ) %.9.#.#.*.o.",
"#.*.a.w.2.3.X.8 y X.n M . J  X+X:X0XuXsXpXpXpXpXaXpXaXiXwX0X0X9X9X6X8X8X8X5X5X5X5X4X3X1X>X1X:X/.!.E.J . m 5 ( ! ,.4.p.w.w.a.a.0.",
"#.;.c.l.0.%.) W ,.2.* @ Z Q.+X@X6XyXsXaXaXaXaXaXaXaXsXtX0X0X0X9X9X9X9X8X5X8X5X5X5X5X3X1X1X1X1X=X!.E.G.Z @ $ w ..,.,.3.,.4.s.9.=.",
";.8.l.a.0.O.,.] ,.k m M Z.+X+X3XeXaXaXaXaXaXpXpXaXsXyXqX0X0X0X0X9X9X9X9X8X8X8X5X5X5X5X3X1X1X>X>XXXW.E.B.M M 4 @.>.3.,.W ( &.%.( ",
"#.O.O.*.2.O.t.1.d $ . L oXoX>X6XyXsXaXaXpXaXaXsXsXtXqXqX0X5X3X:X:X:X>X4X5X8X8X5X5X5X5X3X3X1X1X1X<X(.R.E.K . # n #.0.:.0 9 T E R ",
",.,.) %.o.O.d.<.h M B P.oX+X5X0XyXsXaXaXaXsXsXiXtXqX0X3X@X.X.X[.[.[.].].OX4X8X5X5X5X5X3X3X1X1X1X1X=XW.T.A.B @ h X.X.^ y 9 y T y ",
"] ] } ) E O.t...$ @ P oX.X>X9X9XtXsXsXsXsXiXtXwXqX5X@X+XoX.X.X.X[.].].].].].:X8X5X5X5X4X4X1X1X1X<X<X(.T.T.P @ # x r 8 y ^ o.a r ",
"0 ~ ,.( y %.t.g m B P..X+X5X9X0X0XeXyXyXrXwXqX0X3X+X+X+XoX.X.X.X].].].].].].'.>X8X5X5X7X4X4X1X1X1X<X=XT.Y.Z.B @ 4 > > r #.#.o...",
"W 5.t.,.*.9.d.& @ K [. X>X9X9X0X0X0X0X0X0XqX0X>X+X+X+XoX.X.X[.].].].].].].].'.].4X8X5X4X4X4X1X1X1X<X:X!.J.Y.J @ + = , ..X.X.#.#.",
"%.5.5.0.0.5.q.# M B.{..X3X9X9X9X0X0X0X0X0X0X>X+X+X+X+XoX.X X[.].].].].].].'.'.'.OX8X5X4X4X4X1X1X1X<X<X}.J.Y.v.@ @ 5 6...a d a ..",
"O.) ( ,.9.2.b @ C W.[.OX5X9X9X9X9X0X0X0X0X3X+X+X+X+X.X.X.X X[.].].].].].].'.'.'.].4X5X5X4X4X1X1X1X<X<XXXJ.J.Z.V @ b 5.W ^ ..r d ",
"o.^ W ,.2.#.* @ J ].].OX8X9X9X9X9X9X9X0X5X+X+X+XoX.X.X.X.X].].].].].].].].'.'.'.].<X8X7X7X4X1X1X1X<X<X=XR.F.J.G @ h ] ! %.>.^ ^ ",
"a o.) %.X.d O @ v.].].;X8X8X9X9X9X9X9X9X@X.XoXoX.X.X.X.X.X].].].].].].].].'.'.'.'.:X8X7X7X4X1X1X1X1X<X=XR.F.J.P @ & ) _ ) 8.8.X.",
"3 o.o.O.^ q @ M Z.].].:X8X8X8X8X9X9X9X4X.X.X.X.X.X X X.X].].].OXOXOX].].].'.'.'.'.:X8X7X4X4X1X1X1X1X<X=XR.F.J.v.. @ d ] X.>.9.^ ",
": x a #.^ l @ B S.'.].>X8X8X8X8X8X8X9X:X.XoX.X.X X].].].].OX4X8X8X8X4XOX'.].'.'.'.<X8X7X4X4X4X1X1X1X<X=XR.F.F.B.N @ x %.O.>.2.X.",
"3 u 2 @.o.g @ Z J.!.'.>X8X8X8X8X8X8X5XOX X X X].].].].].OX8X8X8X8X8X8X5X X].].'.].4X7X7X4X4X4X1X1X<X<X=XR.F.F.Z.V @ l *...8.3.#.",
"x 2 - @.d f @ S T.!.'.:X8X5X8X8X8X8X5X X].].].].].].].].4X8X8X8X8X8X8X8XOX'.].'.OX7X7X5X4X7X1X1X1X<X<X=XT.F.F.Z.C @ g -...2.0.8.",
"x - 2 -.7 4 @ S T.!./.:X5X5X5X5X8X8X>X].].].].].].'.'.OX8X8X8X8X8X8X8X8XOX'.'.].4X7X7X7X7X4X1X1X1X<X<XXXJ.F.F.D.Z @ g @...X.e.g.",
"p p a #.^ 4 @ S Y.!.!.OX5X5X5X5X5X8X:X].].'.'.'.'.'.'.;X8X8X8X8X8X7X8X4X].'.].1X8X7X7X7X7X1X1X1X1X<X<X}.J.F.F.D.Z @ l %.,.,.g.g.",
"t ..E ^ 4.f @ A J.E.!.XX7X4X5X5X5X7X:X'.'.'.'.'.'.'.'.:X8X7X8X8X8X7X8X>XXX=X4X7X7X7X7X7X1X1X1X1X1X<X,X^.F.F.F.D.C @ v <.} 5.5.5.",
"E E t ^ %.z @ C S.R.!.].1X7X4X4X4X7X:X'.'.'.'.'.'.'.'.:X7X7X7X7X7X7X7X7X7X7X7X7X7X7X7X7X1X1X1X1X<X<X=XR.F.A.F.Z.B @ v _ W ,.,.%.",
"E T y ^ W n @ B Z.R.!./.:X4X4X4X4X4X:X'.'.'.'.'.'.'.'.OX7X5X7X7X7X7X7X7X7X7X7X7X7X7X7X7X1X1X1X1X<X<X}.J.F.A.F.B.M @ i W W ) %.,.",
"E ) ) ( ) @.# M B.R.W.!.=X1X1X1X1X7X<X/.~.~.~.!.!.'.'.XX4X7X7X5X7X7X7X7X7X7X7X7X7X4X1X2X1X1X1X<X<X=XR.G.F.A.G.m.. O a ) <.1.%.4.",
"O.4.5.) %.O.& @ P R.T.!.(.1X1X1X1X1X1X].!.!.~.!.!./.'.'.:X7X7X7X7X7X7X7X7X7X7X7X7X2X1X1X1X1X1X<X<X(.J.G.F.A.K.L @ + 0 %.t.t.] ( ",
"O.t.y.] %.) X @ G R.J.R.!.,X1X1X1X1X1XXX!.!.!.!.!.!./.~.].1X7X4X7X7X4X4X4X4X1X2X2X1X1X1X1X1X<X<X|.Y.J.F.A.A.I.F @ 4 7 T ! ,.%.T ",
",.d.t.] %.) f @ V D.Y.T.W.(.<X1X1X1X1X:X!.!.!.!.!.!.!./.!. X1X7X7X7X1X1X4X2X1X2X1X1X1X1X1X<X1X*XR.J.G.F.A.H.D.N @ f y 0 T ~ ( ( ",
"5.y.| ] E o.w # @ N.R.J.R.!.=X1X1X1X1X1X/.E.!.!.!.!.!.!.!.!.].1X7X1X1X1X2X1X1X1X1X1X1X1X1X<X|.R.J.J.F.A.A.^.m.. @ i / / W W ) ,.",
"d.t.] ) r o.^ % @ J ^.G.T.R.(.:X<X<X<X1X=XE.!.!.!.!.!.!.!.!.!./.=X1X1X1X1X1X1X1X1X1X1X<X=X(.T.T.J.G.F.F.F.U.H . % [ [ Q Q :.f.5.",
"f.,.W W y o.0.f # N D.T.J.R.R.(.<X<X<X<X<X(.E.!.!.E.E.E.!.!.!.!.E.(.=X:X1X1X1X1X<X=X*X(.R.T.T.J.J.F.F.F.^.C.M @ f 5.3.Q W :.d.,.",
"4.^ y y 7 ^ z.2.$ o L ^.F.J.R.R.|.<X,X,X<X=X!.R.E.E.E.E.E.E.E.E.E.E.E.!./.(.(.(./.W.R.T.T.T.J.J.G.F.F.H._.J   + / f.e.[ / ( O.) ",
"O.O.2.^ T ,.j.p.g m N Z.R.F.J.R.W.|.,X,X,X<XXXR.E.R.R.R.R.R.R.R.E.E.R.R.R.R.R.R.R.R.R.T.T.J.J.G.G.F.F._.V.# @ l f.d./ 8 / :.) W ",
") <.h.5.%.4.d.<.) & . H ).J.F.Y.R.W.|.,X,X,X,X|.R.R.R.R.R.R.R.R.R.R.R.R.R.R.R.R.T.T.T.T.J.J.G.G.F.F.U.U.A . + 2.d.X.s 6 r d.,.:.",
"I ~ 1.t.%.%.5.| } z m @ n.`.H.G.J.T.R.`.-X-X-X,XXXR.R.R.R.R.R.R.R.R.R.T.T.T.T.T.T.J.J.J.J.G.G.F.F.I.$Xb.  # f 0.>.w q q 6 e.:.) ",
"I } | } ) ] <.r._ Y 4 m N V.).F.F.J.T.R.^.&X-X-X-XXXE.T.T.T.T.T.T.Y.Y.Y.T.Y.Y.T.J.J.J.J.G.G.F.F.I.$XV.M @ 4 ^ #...w q x d 2.,.W ",
"~ ,.~ W } ) ] <._ Y s $ @ B L.).F.F.J.J.T.W.`.&X-X-X=X/.T.Y.Y.Y.Y.Y.Y.T.Y.J.J.J.J.J.G.G.G.F.F.I.$XL.N . + ^ W ^ X.....8...) ,.) ",
"~ W 0 W ] W ) ) T ! ) q #   Z P.`.F.F.J.J.J.T.W.(.|.&X-X|.^.R.J.J.J.J.J.J.J.J.J.J.G.G.G.F.F.U.%XL.C   @ w U 9 ^ %.2.9.a.^ 0 ] t.",
"U 0 0 I 7 9 ] ( 0 T ! W 5 # . C L.`.H.F.G.J.J.J.J.R.W.^.`.`.^.R.J.J.J.J.J.J.G.G.G.F.F.F.H._.%XL.C   @ q W I T %.,.O.a.z.O.T ~ y.",
"! ) W 7 > t ( ) W 0 T W 0 f # . N V.$X^.J.G.G.J.J.J.J.J.J.J.J.J.J.J.J.J.J.G.G.G.F.F.F.I.#X%XV.N   @ z ] ( y %.4.,.9.z.g.O.O.] } ",
"! ] W < y ( O.,.T 9 T ^ 0 0 f # @ M b.U.$XI.J.G.G.G.J.J.J.J.J.J.J.J.G.G.G.G.F.F.H.K._.%XU.b.M . # l 1.<.<.W <.p.5.z.z.o.e O.<.W ",
"T ~ T 0 ( O.o.^ 7 7 7 ^ 0 7 ( x & @   A V.#X$X^.K.H.G.G.G.G.G.G.F.F.F.G.G.F.K.I._.%X#XV.A . @ + q ( ,.%.,.] t.p.,.p.g.#.^ T ) U ",
"! ! ! $.*.o.E a < e > t 7 7 %.O.#.h # @ @ H V._.%X$X).I.K.K.H.H.H.H.K.I.U._.$X%X_.V.H @ . m X e t E %.O.,.1.5.,.%.,.7.9.5.T I U ",
"! ! _ 5.9.( t y t ..a a 7 y O.( 2.O.l % M . @ A b.V.U.#X$X$X$X$X$X$X$X%X#XU.C.b.S @   M + g a t 7 y *.*.) ] %.%.O.E ^ 2.0.,.W U ",
"' ` ` ` ,.) T y o.;.-.x e ^ 2.2.#.y X.a f * # @ . M C H L n.N.V.V.N.n.L H C M   @ # $ 4 3 p ..e , 9 ,.%.0 ^ ) %.) T ( g.z.z.3.,.",
"( <.` { ] ! T o.;.+.+.@.7.2.8.2.r 7 d O.( O.n h $ m @ @ @ . . @ @ . . . @ @ @ $ % f r < e u p 1 , y ) T 9 ^ ( O.,.0.g.0.2.2.5.y.",
"t 3._ _ ] ! W ^ o.o.....2.#.2.#.> r d 2.2.0.5.( a v k h & $ # @ @ @ $ & % j n c ^ O.y < t u , > 7 9 0 7 9 ( ) ) 5.h.g.t , ^ ,.,.",
"^ :.[ ~ _ ) W y ^ o.E a y r #.X.e y ^ O.2.0.*.^ E 2.a.5.O.d i c c c #.^ T ,.g.5.,.,.e y y y 7 t t < > 7 9 ( %.O.5.p.p.y , ^ ) ,.",
"#.^ :.} ,.] I W O.O.y 9 r d >.#.2.X.>.d r #.#.^ , a *.9.,.^ ) ,.) ( ,.^ 0 O.0.4.5.4.y y y ^ ^ o.y 1 1 e y ( ( O.4.0.,.( 7 y / } ",
"o.^ ,.t.f.<.! %.,.] 0 7 ^ >.w.8.e.2.X.y e a ....> , ^ w.5.( ( %.^ W W T 9 ( ) ) 4.4.T 0 0 O.2.%.e > a ..y T W %.5.4.,.5.#./ :.y.",
"%.$.<.1.,.) ] <.] _ I I :.d o.2.g.w.#.^ e , p e , , a w.%.T T ) y 0 T ( W ( ( ( ,.5.y T %.5.4.T > = p ..^ R T O.5.,.p.g.2.X.:.,.",
"=.) ! T I ! ) ( ~ ~ Y ) O., e / 9.0.d e a 3 u : : 3 p *.^ T ( 4.^ 9 W ( ^ T ) ( ) 5.T ( 5.5.,.y > , ....X.) ( O.5.2.g.p.g.e./ s ",
"9.^ y 7 0 T 0 T ,._ _ } W > a X.) ~ 0 7 ..a x - 2 3 e a T ( ,.5.^ 0 W T E E o.t T <.' &.p.h.s.2.E r ..7.3.3.l.e.>.X.8.d >.>.8 6 "
};
