/* XPM */
static char *_3ce13f9d52045089d68a312dab105bcuC9lQtTBjJdhrMvM[] = {
/* columns rows colors chars-per-pixel */
"64 64 195 2 ",
"   c #1C4C02",
".  c #234C07",
"X  c #255604",
"o  c #295605",
"O  c #275901",
"+  c #2D5C04",
"@  c #2F570A",
"#  c #2B5B0E",
"$  c #315E05",
"%  c #37570F",
"&  c #2D5C13",
"*  c #2E6203",
"=  c #336504",
"-  c #3B6706",
";  c #376906",
":  c #3B6C05",
">  c #33630C",
",  c #396609",
"<  c #356A0C",
"1  c #3C6D0A",
"2  c #377406",
"3  c #3D7105",
"4  c #397803",
"5  c #3E710B",
"6  c #3F7808",
"7  c #366312",
"8  c #396514",
"9  c #366811",
"0  c #3D6C14",
"q  c #3D6C1B",
"w  c #3E7313",
"e  c #3E7A12",
"r  c #456E06",
"t  c #41660D",
"y  c #416D0B",
"u  c #486E0D",
"i  c #427507",
"p  c #457B06",
"a  c #487805",
"s  c #42750C",
"d  c #49760C",
"f  c #457A0D",
"g  c #4A7D0D",
"h  c #517B0D",
"j  c #406312",
"k  c #426D14",
"l  c #4A6F10",
"z  c #45671B",
"x  c #436D1A",
"c  c #447412",
"v  c #497613",
"b  c #467913",
"n  c #4B7C14",
"m  c #45731A",
"M  c #4A751B",
"N  c #467B1A",
"B  c #4C7C1B",
"V  c #517E14",
"C  c #587F15",
"Z  c #50771C",
"A  c #527E1B",
"S  c #486A23",
"D  c #467421",
"F  c #497423",
"G  c #4C7B23",
"H  c #4E7728",
"J  c #527621",
"K  c #537D23",
"L  c #547C2A",
"P  c #527730",
"I  c #597F31",
"U  c #4A8007",
"Y  c #4C820D",
"T  c #51840E",
"R  c #53890E",
"E  c #59900D",
"W  c #468013",
"Q  c #4D8214",
"!  c #4E8A14",
"~  c #4E821B",
"^  c #4F8919",
"/  c #528415",
"(  c #5A8416",
")  c #548A15",
"_  c #598C15",
"`  c #53841B",
"'  c #5A861C",
"]  c #558A1C",
"[  c #5A8C1C",
"{  c #549017",
"}  c #5B9215",
"|  c #5E9B15",
" . c #56911D",
".. c #5C921C",
"X. c #5B9919",
"o. c #628C1D",
"O. c #61941D",
"+. c #63991D",
"@. c #689F1E",
"#. c #4C8121",
"$. c #4F8822",
"%. c #4E8028",
"&. c #548422",
"*. c #5A8622",
"=. c #568A23",
"-. c #5B8C23",
";. c #55832B",
":. c #5A852B",
">. c #568A29",
",. c #5C8C2B",
"<. c #579121",
"1. c #5D9223",
"2. c #5E9923",
"3. c #5E922A",
"4. c #5E9929",
"5. c #538230",
"6. c #5A8437",
"7. c #5C8C31",
"8. c #5F9130",
"9. c #628D23",
"0. c #618E2A",
"q. c #629424",
"w. c #6A9424",
"e. c #649A24",
"r. c #699C25",
"t. c #63942B",
"y. c #69952C",
"u. c #659B2B",
"i. c #6A9C2D",
"p. c #699E2D",
"a. c #719E2C",
"s. c #628D32",
"d. c #649333",
"f. c #699632",
"g. c #669932",
"h. c #659A32",
"j. c #669E31",
"k. c #699E31",
"l. c #6B9C33",
"z. c #649539",
"x. c #6A953A",
"c. c #6C9C3A",
"v. c #709730",
"b. c #719E36",
"n. c #719E3A",
"m. c #6BA126",
"M. c #66A12B",
"N. c #66A02D",
"B. c #6AA12A",
"V. c #69A32D",
"C. c #6CA22C",
"Z. c #6DA32E",
"A. c #72A12F",
"S. c #73AA2D",
"D. c #67A131",
"F. c #6AA232",
"G. c #6BA433",
"H. c #6FA431",
"J. c #6EA235",
"K. c #6BA535",
"L. c #6DA536",
"P. c #67A03B",
"I. c #6DA23A",
"U. c #6EA23B",
"Y. c #6FA838",
"T. c #72A434",
"R. c #7BA334",
"E. c #74AA34",
"W. c #7BA837",
"Q. c #73A43B",
"!. c #78A53D",
"~. c #75AA3C",
"^. c #7AAC3C",
"/. c #7DB33B",
"(. c #689441",
"). c #6E9940",
"_. c #719D41",
"`. c #74A442",
"'. c #7AA643",
"]. c #75A942",
"[. c #7BAC42",
"{. c #7EAA4C",
"}. c #7CB243",
"|. c #7CB14A",
" X c #7FAA50",
".X c #7DB550",
"XX c #82AE4E",
"oX c #82B645",
"OX c #83B149",
"+X c #84B84A",
"@X c #84AF54",
"#X c #85B455",
"$X c #8BB659",
"%X c #8EBB5B",
"&X c #8EC254",
/* pixels */
"q.) ) ) -.Q -.t.t.1.1.1.g.>.=.t.t.L.i.F.t.Q Q L.F.4.t.i.r.2.2. .Y } e.B.B.M.4.j.g.I.1.] ` =.=.^ 4.e. . .Q ) Y _ r.Y p ) g ) ] l.",
"u.-.] 1.l.` ` g.].I.t.=.,.Q.=.t.[ q...e.Y.t.u.F.<.D.D.L.r.e.M.2.Q ..N.N.G.u.1.D.<.=.] W w #.=.^ ] Y X.} _ ..R _ ) g i 5 Q ) n g.",
"1.] / i.oXl.u.J.~.^.}.J.t.H.[ q.e...+...G.D.1.t.4.K.Y.D.4. .4.e...4.1.) <.! ] G.<.W <.Q N >.>.` Q ! X.) } ) +.} R g = 1 H...i n ",
"q.1.g ] H.r.i.H.q.T.oXH.T.i.) e.B.+.S.e.K.D.<.~.Y.u.4.1. .! ..u.2.2.] f ^ Q <.N.u.<.K.3.~ >.>.~ f ..X. ._ ) e.X._ 3 * s q.[ 5 1 ",
"t.J.q.` ..e.E.E.e.e.C.) e.B./ q...g e.C.Y.D.u.}.Y.] ^ Q  ._ 2.M.2.M.! ! ^ ] ] Q 4.1.K.u.^ >.^ b Q  ...1.u.u...} ) / _ [ i.u.` ,.",
"] l.+XT.q.C./.^.i...q._ ) ] Y Q Q 3 ` j.4.4.u.F.K.u.<. .1.1.M.G.2.2.! ! Q ] ] <.t.4.K.4.^ <.^ Q u.] ! i.~.u.) _ O.e.q.q.C.C.Q.Q.",
"/ ] &X}.1.l.~.u.] -.1./ g ] ` ~ s + + ~ ^ 1.4.D.u.u. . .! e.V.2.! )  .! Q f f 1.t.u.D.4.<.] Q ] 4.^ ^ <.c.3.] ..S.e.e.i...2.l.3.",
"` f [.u.-.l.Q.3.c = 1 -.=.3.B w m 0   9 ` ] ^ i.<.1.1. .) 2. .Y f !  .] Q f i Q <.] <.N.i.] 6 Q <.<.4.=.,.` ] i.E.O.+.q.p Q -.&.",
"~ n u.=.B B s.m > o 0 K x.*.c > M F . 8 t.3.3.I.4.3.3.1.1.] g Q / ' g ` B B N ` &.b ,.J.Q.-.s n ` ` 3.,.~ b [ C.e.) e.] 5 =.8.B ",
"&.&.,.,.;.k ).;.m ;.:.:.n.K B G L x @ q &.=.g.g.3.,.` ] / / n / / d a V k x L s.&.n t.y.l.0.B B t.-.c.f.b b [ q.) ..l.-.;.G 7.,.",
"=.=.` ,.d.K `._.K @X Xs.%Xc., k m $ q G ` ` =.` =.-.` ] / ' *.' 1 d y ' k 0 K x.d.9.9.' t.,.` ` t.'.c.,.n ` 4..._ q.Q.3.1 0 ,.7.",
"-.t.,.g.x.s.d.:.:.x.x.x.c.g.=.B M m ;.:.=.l.t.g.t.3.=.-.' [ q.V + B V 9.` v A d.,.0.-./ -.,.*.*.` c.b n =.t.i.q.q.e.1.=.N 7.x.3.",
"t.I.t.t.d.,.*.A *.x.*.,.=.` =.d.d.d.>.7.=.u.t.t.-.=.` ` -.-.[ ' v / q.9.*.' ' 0.0.0.0.c.*.9.-.-.t.-.A ` ` 3.H.[ e.i.b t.,.,.>.c ",
"t.c.t.` -.0.,.` c s A g.1.t.I.I.I.c.z.`.g.~ =.g.` b n ` -.-.[ q.[ q.y.' / 9.q.t.,.n -.t.*.-.*.A *.t.c.&.b ` H.) [ ) Q c.=.&.&.b ",
"g.l.3.=.=.f.0.v - s *.l.N.1.i.4.>.g.].|.3.; b g.,.~ =.-.V n ' -.' q.y.q./ q.r.q.9.-.f.` n *.A v -.f.t.9.B b t.) +.[ t.g.,.3.t.1.",
"-.-.].Q.u.u.' d ' t.f.-.L.4.4.K.>.~ P..Xt.b -.g.l.3.g.&.n V 9.y.q.q.-.i.r.+.O.[ T.y.` A n 0.-.*.b.t.y y c b ' / q.i.Q.c.Q.Q.Q.H.",
",.d.#X`.l.-.[ ) u.i.u.3.Q.Q.l.|.].3.8.Q.H.1.] ] 1.=.g.3.q.q.q.i.i.9.V *.O.O.q.0.XXd.M A t.t.-.:.s.s.M 8 8 ;.m :.0.' w.' q.K.t.<.",
"8.d._.c.l.] e.q...H.j.` g.t.` [.l.t.I.~.^.T.i.Q 1.g.Q.l.W.q.q.i.t.' v V g ' t.d.@Xc.,.-.l.t.` c K K L F D H m :.0.l.y.T Q 1.<.] ",
"-.-.] -.t.-.H.r.) 1.u.t.t.[ Q ~.i.4.i.q.T.~.^.] t.1.3.l.W.o.q.y.9.A y y y ` *.d.n.A t.i.' y = d *.&.d.7.x 7 L s.=.f.*.g i W Q Q ",
"e.e...q.` ,.E.2.) q.u.|.C.e.i.C.e.e.e.q.q.C.C.1.t.t.3.t.y.9.[ t.-.B - - B d.s.x.d.l.w.O.,.A v ` &.0.c.,.m m x.s.*.` ` V n ~ Q n ",
") _ e.[ ~ -.i.../ 1.u.~.E.E.E...e.C.i.e...u.i.H.t.I.I.`.l.' 9.y.*.:.M m B d.x.d.`.b.o.( t.g.t.t.b.T.!.t.B s.XXA &.c y n -.,.B b ",
"p [ e.] n 1.T.q.[ 1.u.].oXoX^.q.r.^.T.i.q.i.E.u.l.g.g.].OX!.[.0.,.:.M M A c.x.x.#X!.9./ v ` y.*.!.^.w.[ A d.%X&.v + $ n ,.,.,.*.",
"_ H.H.l.g.l.^.e...1.3.g.t.l.Q.l.l.Q.l.l./ 2.T.i.u.-.t.g.b.b.'.`.n.x.:.:./ i.b.'._.,.A d d *.Q.9.b.a./ T B v '.,., o M :.&.K &.:.",
"1.u.1.i.l.t.^.C...] ] ,.n -.t.g.I.[.Q.l.[ 1.q.u.] ` 3.&.] l.c.`.{.{._.d.9.q.t.t.M M m M A t.b.q.i.q.[ / V v Z c.B K c.` M K v &.",
"-.` Q q.u.t.u.y.y.n ` -.] -.Q 1.t.l.t.1.[ ] 1.1.l.-.` g -.l.u.-.t.u.t.` ] V v A M k M K 0.0.t.0.*./ 9./ w.*.A x.c.Q.e.R -.*.n A ",
"` =.] q.-.*.B 0.!.t.*.] ' 1.Q ] ] 1.t.q.1.t.1.1.~.H.g s ] ` -.Q / ] i.' *.0.0.0.0.s.s.s.d.0.f.t.*.n ` A 9.' A d.{.~...} [ f.-.*.",
"c ,.] 1.] A : v n 0.*.` -.u.1.1.` / u.q.] q.1.` 1.q.i i n Q 1.-.] 1.T.q.b.y.f.,.n.$Xs.:.0.0.t.0.-.n A ' 9.9.9.d.'.i.[ ../ t.l.` ",
"> ;.` ,.A A , c > -.=.n n 1.u.t.] n 1.1.n ` [ f Q 1.g : ` q.t.-.] q.q.[ q.V *.,.f.x.K s.*.A ` ` 9.-.-.t.w.y.9.y.u.] [ ..q.0.f.*.",
"> G w ,.` ` v A y ` ` s 3 Q 1.t.Q n ` i.f ] Q f n ] ` g ` ] q.-.Q Q / t.[ / q.y.B v &.d.*.n ` *.n -.` ' y.y.o.w.[ ' 1.3.-.t.f.*.",
"D q # 7.*.*.v d n n y 1 : Q 1.1.g ] ] 1.Q [ / ` Q g ] n Q Q 1.] i f ] i.[ ( q.q.-.] c.t.` v n *.A / y *.v.C ( r./ ' ` d.&.c.u.0.",
"G & & 7.d y A A n *.n : Q ] ` Q / [ / Q Q q.] / / ] 1.Q Q g ] ] g n / [ ( ( o.' / ' t.,.A n A *.n n *.c.o.r d O./ / &.,.&.0.b.b.",
"m 7 q d.v 1 ,.` $ u.y.n q.] i f -.-.f 3 n t.-.Q Q n / / Q i ` / i n Q ] ' [ [ ' ' *.B *./ ' 9.' d v t.' [ o.R O._ ) -.=.=.' Q.Q.",
"b &.&.` 1.n i.3.0 1.Q ] Q n n ` ` &.N c b ~ ^ Q f ] 0.A ` 1 Q ) i Q Q n -.-.' -.[ ' V w.o.o.[ a g [ ..) ..r.} } +.m.+.e.e.e.T.H.",
"n ] b ` i.] u.[.H.t./ ] 5 ` ~ 5 1 c G G w w W e 5 &.Z t ` ~ ] e.../ ` v / [ q.' n d t.q.o.w.o.a / ......e.e._ _ } C.B.+._ e.e.q.",
"` Q b ` / H.u.l.1.[ ] f ; =.>.c X 7 G q 7 > < e ~ B L K =.3.C.e.e.) n b V V 9.-.[ -.t.q.w.w.o./ / q.q....._ ....[ .._ ) R ..1.1.",
"n ` ` ` ` i.i.1.g f ] ` N #.z.0 X D 5.8 7 7 < w $.#.7.:.&.` e...q.Q s ] V n ' 9.T.[.q.y.R.o.h g g [ e.....) ..q._ ) [ / _ ..2.u.",
"-.t.e.[ -.t.] ` Q ] ` B ` &.,.0 N 7.D F P 6.%.N e N ~ 1 5 ] q.q.e.i n t.' ' ' ' !.OXt.9.w.( h h T Y e.r.q.] Q ] / p / 1.T.E.[ 1.",
"-.i.T.[ 1.1./ / [ [ Q Q B ~ &.b ;.d.7.(.S I ,.~ 2 f ^ 5 b =.1...+.i ` ] t./ ' ' T.T.' / h o.( w.O.Y / ] Q Q i ] -.f p -...e...Q ",
"1.T.C...1.] g / ] 5 Q 1.Q n -.] t.,.x.:.% L ,.` f 4 ! ] -.` / ..../ ` s *.' / / i.i./ ' h w.w.r.T.[ Y ..-.t.-.1.l.n f f / ..1.Q ",
"e.E.e.q.] 1.Q Q Q + 1.H.Q g 1.] -.=.,.M M :.&.N c f ] 1.=.b n q.e.u./ f g ' ' n t.t.' q.[ a.a.o.[ / g e.1.1.u.1.' / / / / / / 1.",
"C.C.} ..c -.~ 5 1.<.i.i.Y p u.l.-.] =.B t.c.7.7.G >.,.g.B b n -.] e./ ) ] ] [ g <.i.[ 1.O.w.O.( ( i.r.r.Q n ] ' / [ ' o.( [ T.y.",
"E.r.) ] n -.u.Q u.T.C.B.) g H.Q.l.u.g.&.-.g.d.7.G ,.t.l.~ ~ ` ` i 1...) [ Q f / <.l.1.-.q.q./ o.T.^.w.T g / ....' w.o.h C q.^.y.",
"F.] n Q s ~ [.t.r.q.E./.e.[ e.J.t.=.` 5 ] g.N ;.;.,.-.t.] t.1.` Q [ ..f ] -.' H.t.i.' 9.u.T.[ t.i.u.[ / ) _ e.+.h W.R.o.[ ' t.-.",
"-.` =.~ n -.oXH.C.B./.E.B.) q.J.n s -.` u.~.&.d.=.=.3.1.1.u.-.` ] [ ] n ' ' V t.i.[ / [ [ ' d V ' ' V V _ } O.r.A.^.o.V ' ' ' / ",
"1.u.[.t.[ u.~.e...m.S.X.+.Q 1.] 3 s c.].H.~.l.&.v s 1.[ q.e.] Q n ` -.-.*.' r C y.[ ' ' V n s *.V : d B g R ) w.!.9.A t n T.q.-.",
"/ _ C.C.1.q.B.+.O.S.@.} _ _ [ f n ] c.].q.i.].c = : <.......] p i n =.t.9.' C V ' 9.' C / A A b.c.n ` A Q Y / T.f.M J j y !.*.q.",
"Y ..+.e.[ ..e.m.} } E R Y e.e.f t.J.Q.Q./ / -.` n d 1._ ..q.q.p i c ` ,.' C ' u 9.9.C d 1 ` b.=.t.t.g.b.] Q Q t.:.k z z v i.q.V ",
"/ r.O.) ......B...R _ U p +.e._ e.C.i.e.q.4.Q -.J.1./ / [ [ u.] ` ` n =.,.*.V v t.t.` n ; ` q./ / q.-.' [ [ ] ] &.K B x.&.[ u.) ",
"[ ( g / e./ [ ../ ) [ Y R O.e.B.m.+.+...i.T.l.l.1.q.Q 1.-.Q =.` u.=.: ` =.-.g.Q.l.g.=.n Q +.) R / ..[ Y ) / i ` 1.t.t.I.Q Q q.r.",
"T g a / n i 2.[ g / _ / Y ) ..e.+._ X.q.t.t.1.1.u.T.u.J.=.B c 1 =.,.c n 3.-.u.u.3.g.-.Q ) } } e.O.+.+.R ) Y f 1.q.-.l.].=.g ) S.",
"/ ( T g = f ] ) Q g g / g [ ...._ ..r.e.1.1.` ] T.i.Q.~.t.=.B c 1 ,.&.~ ,.Q -.` f ] =.Q _ } +.+.} X.r.} _ f 2.u.q.t.[.[.3.] ..e.",
") 2.) 3 f ' -.u.` f Q ` p Y Q 2.[ ..C.2.] 1.] 1.1.] l.~.t.g.3.g.` -.t.~ s Q -.T.` / q.[ +.+.+.Y ) X.m.+.e.Q q.l.u.[.|.-.w 1.e./ ",
"Q _ Q i ] -.] ` s s b ] g i ' [ 1.1.u.u.[ q.i g Q Q 1.i.l.~.J.i.-.t.1.Q i / ) u.q.[ q.) / Q / Y Q [ e.2.q.[ C.T.t.Q.Q.=.~ Q ..R ",
") ] ] ] -.-.` ~ 5 v = n i 5 q.' l.1./ -.1.u.f i Q Q 1.4...e.e.[ ..e./ R Q _ [ ) ..e.q...f f s n f Q 1.-.q.e.C.q.1.u.g.g.g.g Q R ",
"! ! ) N.l.` b B c ~ c ~ s n ,.` t.-.` n Q -.q.f p f / / ) _ r.r.C.+.X.} [ e.C...q.e.[ _ s &.N b s B 3.3.1.q.1.-.1.` ` t.u.-.Y R ",
" .X.| | q...n n =.z.7.G 1 ` 9.0.9.n ,.B / u.[.] Q ] -.1...[ r.q.1.Y ) 2.) [ u.q.] [ Q f 5 M &.b : f t.q.p ] [ 1.] n ` Q.[.[.w.O.",
"] e.| @.X._ Q =.d.;.;.;.t.t.f.f.b s A ,.Q 1.l./ ` -.J.u.] ] 1.q.u.n Q 1.Q / t.t.Q ` / : c c B 5 1 n <./ f ] ` -.q.i.~.J.f.y.i.T.",
"f C._ } +.) Q ] ,.=.;.;.c.-.f.0.= B A t.t.l.l.] Q -.J.1.] ` / 1.i.] ` ] ` <.u.-./ [ n 3 b c 1 ; s f n i f ] ] [ u.Q.~.s 1 ` t.q.",
"A q.[ ....../ n ` =.B B n v -.*.k b ` t.t.l.3.~ ` g.I.u.1.] Q 1.1.1.t.` Q 4.Q.i.1.u.5 n n n 5 c n 3 ; i i [ q.-.i.J.T.n y ' [ w.",
"0.A q.[ ....g / -.-.n b v n -.-.t.] t.B b 3.,.` 1 B t.g.t./ [ t.[ ` u.` g -.J.t.i.u.n n n ` ~ =.b s 1 v n ] ] [ u.H.1.] 1 V / [ ",
"=.` q.i.~.e.) 1.q.<.g i ] t.b.t.!.0.*.b c N =.&.; 1 ~ c.u.] [ 1.] / / n p ] [ ] u.u.n g f -.t.3.v ; B &.n / ` <.u.u.1.i.,.*.q.T.",
"1.<.e.r.q.[ ..e.....g Y t.n -.u.!.c.-.&.v 1 N v 1 1 B I.1.Q Q [ g g Q [ / ] ] ] q.i.g Q 1.i.u.Q 1 O N &.~ / Q -.i.1.l.~.0.*.9.q.",
"3.] ) ! Y ) [ ) ) _ R [ t., v ` l.b.n s N 1 M # > w N d.` / ` i.` p / ] ` Q -.] [ i.Q ) r.u.t.n ; 1 =.&.-.' / -.g.t.^.J.'.!./ V ",
"g.~ n i g Q f Q e._ } +./ = A *.[ [ d y &.M ;.# 7 0 w B Q ] t.l.` f ` Q ~ ~ =.f W u.{ 2.D.~.I.g.~ b &.f.y.y.'.n.s.K f.V 0.0.u l "
};
