/* XPM */
static char *af1d7207554c498ab768fda542b20534qE5AIVMWCc6mDyPV[] = {
/* columns rows colors chars-per-pixel */
"64 65 254 2 ",
"   c #041100",
".  c #3A0A03",
"X  c #311407",
"o  c #1B290A",
"O  c #1C2B12",
"+  c #1A3818",
"@  c #272809",
"#  c #3A2908",
"$  c #2A380A",
"%  c #38370A",
"&  c #283A14",
"*  c #353715",
"=  c #0F3A27",
"-  c #481209",
";  c #452C0A",
":  c #5A270C",
">  c #4A3209",
",  c #543504",
"<  c #583808",
"1  c #4F3212",
"2  c #593813",
"3  c #68260D",
"4  c #623C03",
"5  c #683B04",
"6  c #673713",
"7  c #773011",
"8  c #6B2B20",
"9  c #2A460C",
"0  c #36450D",
"q  c #334C0D",
"w  c #2A5607",
"e  c #36580B",
"r  c #2A4615",
"t  c #374614",
"y  c #344C12",
"u  c #3B4C13",
"i  c #295715",
"p  c #3B5413",
"a  c #395914",
"s  c #2E6C07",
"d  c #376509",
"f  c #3B6C0B",
"g  c #3D7308",
"h  c #3C6313",
"j  c #3A6814",
"k  c #1A4728",
"l  c #114935",
"z  c #1C5737",
"x  c #2C5028",
"c  c #235B31",
"v  c #464713",
"b  c #504910",
"n  c #465917",
"m  c #545A16",
"M  c #67440C",
"N  c #764907",
"B  c #7D510C",
"V  c #6C4F15",
"C  c #754A13",
"Z  c #44680D",
"A  c #43750C",
"S  c #4B750F",
"D  c #467A0C",
"F  c #497D0D",
"G  c #54710C",
"H  c #436B14",
"J  c #486618",
"K  c #456C1B",
"L  c #586819",
"P  c #447413",
"I  c #4A7514",
"U  c #467A12",
"Y  c #4B7D14",
"T  c #45751A",
"R  c #4A751B",
"E  c #4C7B1B",
"W  c #587816",
"Q  c #527D1B",
"!  c #666A1A",
"~  c #677919",
"^  c #757317",
"/  c #495229",
"(  c #725037",
")  c #4B6E24",
"_  c #576827",
"`  c #4C7724",
"'  c #537A25",
"]  c #666F2B",
"[  c #0B5A49",
"{  c #196448",
"}  c #0A6858",
"|  c #197359",
" . c #22664B",
".. c #0D7664",
"X. c #157C65",
"o. c #5F5E41",
"O. c #757150",
"+. c #801E0D",
"@. c #853A0D",
"#. c #912E11",
"$. c #883A11",
"%. c #B62C0A",
"&. c #A83715",
"*. c #B33211",
"=. c #C7350C",
"-. c #D63A0C",
";. c #C33A15",
":. c #D43C13",
">. c #E33D15",
",. c #874608",
"<. c #855508",
"1. c #904E11",
"2. c #964914",
"3. c #B0530F",
"4. c #916D0C",
"5. c #B46B10",
"6. c #8F6B24",
"7. c #C55808",
"8. c #D54014",
"9. c #EF420F",
"0. c #F6480E",
"q. c #EC4313",
"w. c #F84913",
"e. c #C9630C",
"r. c #D86708",
"t. c #D36E0F",
"y. c #E36D07",
"u. c #E97506",
"i. c #F27C05",
"p. c #F27B11",
"a. c #886B53",
"s. c #4C820D",
"d. c #4A8A0C",
"f. c #53880E",
"g. c #4C950C",
"h. c #559A0C",
"j. c #4D8214",
"k. c #4E8916",
"l. c #4E831B",
"z. c #528514",
"x. c #548B15",
"c. c #598B16",
"v. c #53851B",
"b. c #5A8418",
"n. c #558A1B",
"m. c #5A8D1C",
"M. c #579516",
"N. c #5B9115",
"B. c #5C931C",
"V. c #6A8F0E",
"C. c #688719",
"Z. c #738B17",
"A. c #61951D",
"S. c #66981A",
"D. c #789719",
"F. c #55A00B",
"G. c #79A515",
"H. c #74A911",
"J. c #4C8123",
"K. c #548423",
"L. c #5A8623",
"P. c #558A23",
"I. c #5B8C23",
"U. c #55852A",
"Y. c #5A842B",
"T. c #5C8C2A",
"R. c #5D9223",
"E. c #5D9826",
"W. c #5E922A",
"Q. c #5C8A31",
"!. c #5F9131",
"~. c #6E8525",
"^. c #628E24",
"/. c #628D2B",
"(. c #748F24",
"). c #629524",
"_. c #649A24",
"`. c #63942B",
"'. c #659B2B",
"]. c #6A9828",
"[. c #6A9C2B",
"{. c #618C32",
"}. c #649532",
"|. c #699533",
" X c #669A32",
".X c #6B9D33",
"XX c #689539",
"oX c #6B9C3A",
"OX c #729E37",
"+X c #6AA126",
"@X c #6CA22C",
"#X c #73A62A",
"$X c #67A232",
"%X c #6CA333",
"&X c #6DA23A",
"*X c #73A434",
"=X c #73A43B",
"-X c #76A939",
";X c #7BB13B",
":X c #0F846F",
">X c #19856B",
",X c #168D73",
"<X c #189479",
"1X c #1A9A7D",
"2X c #219072",
"3X c #6BA440",
"4X c #78AA45",
"5X c #7DB242",
"6X c #8A9719",
"7X c #A9821C",
"8X c #8BB20E",
"9X c #94BC0D",
"0X c #9ABD0C",
"qX c #86A618",
"wX c #93A91A",
"eX c #8AB715",
"rX c #94BC13",
"tX c #95B817",
"yX c #A9B414",
"uX c #839326",
"iX c #88A922",
"pX c #98B328",
"aX c #D19011",
"sX c #E88807",
"dX c #F28F09",
"fX c #EA960B",
"gX c #CEA90E",
"hX c #F5A507",
"jX c #EEB512",
"kX c #C4BD26",
"lX c #96C00D",
"zX c #9BC20D",
"xX c #9BC312",
"cX c #98C515",
"vX c #A4C80C",
"bX c #A3C814",
"nX c #A1C623",
"mX c #F3C214",
"MX c #F8C514",
"NX c #C3DB31",
"BX c #888754",
"VX c #86B552",
"CX c #9A8E6A",
"ZX c #A28B67",
"AX c #B4A776",
"SX c #1B9D81",
"DX c #209E81",
"FX c #1DA184",
"GX c #21A584",
"HX c #BEB682",
"JX c #D8C994",
"KX c #E4D8A0",
"LX c #FCEDAE",
"PX c #FFFDB7",
/* pixels */
").n.x.x.m.j.P.).).W.R.R. XT.P.`.`.%X@X$X'.k.l.%X.XE.'.'.'.).R.m.s.M._.@X@X'.E. X X&XR.m.n.P.P.k.R.E.B.M.z.x.s.x._.f.F z.s.f.n..X",
"'.I.n.R. XP.P. X=X&X`.P.W.&XI.).B.).A._.&X'.'. XR.'.$X%X+X_.'.E.k.B.+X@X$X'.R.'.R.R.n.j.P J.U.l.n.k.M.M.c.N.x.c.x.F A A j.z.j.`.",
").n.v.'.5X.X).%X-X4X4X%X'..XI.).).A.A.B.%X$XE.'.E.%X&X$XE.B.E._.B.E.E.n.R.n.n.$XR.j.R.j.T U.T.n.j.k.M.M.c.x.A.N.f.F d f '.B.D Y ",
").R.Y n.%X[.[.%X_.*X5X*X*X[.n.)._.A.@X_.%X$XR.-X&X'.E.E.n.Y n._.E.R p f k.k.n.'.E.R.$XR.l.P.P.l.V.iX#XM.c.n._.A.x.g d P ).m.g f ",
").%XR.n.B._.*X*X_._.@Xm._.[.x.R.B.j._.%X&X$X'.5X-XP.a v M C M b p E v M e n.n.n.E.E.%X'.l.P.n.wXMXjXjXkXiX'.R.N.x.z.v.m.'._.v.P.",
"m.%X5X*X).[.;X-X[.B.).n.x.n.j.z.j.g v.'.E.E.'.%X%Xr 2 5.p.i.u.t.5.b % e.C j n.n.E.E.%XE.n.P.b.jXMXfXfXhXmXpXn.m.B.A.).).@X@X%X=X",
"z.R.VX5X)..X-X.Xm.I.R.z.F n.v.j.A d d l.n.R.E.'.'.U.J b ,.t.u.y.u.t.: 2.t.> U l.'.'.$XE.n.m.Z.hXMXhXhXfXfXMXiXB.#X_.).[.B.)..X`.",
"z.j.-X.XI..X=XW.P d g P.n.I.l.P P j w j l.n.n.'.R.K.n t # 1 3.u.r.y.5.2.i.C 9 $ l.R.R.'.'.n.G t.jXmXhXhXfXhXjX#X#XS.A.A.s.z.I.K.",
"l.Y `.I.E K.{.R d w f K.|.T.P h R ) w h T.R.W.T.u M 3.e.e.3.3.y.r.7.r.t.y.1.1 2 K l.I.%X%XI.A 4.fXmXMXhXhXfXMXpX_.c.).m.A P.T.E ",
"v.v.I.T.' T XX' K ` U.Y.oXK.R R ' K w j P.I.) b 5.u.u.u.r.r.r.y.u.e.r.u.r.e.5.2 R E /..XOX/.E W 5.sXjXmXjXjXMXpXc.B.'.I.J.J.Q.U.",
"P.P.P.T.{.' 3XXXY.4X4XXXVX|.H K T e j ` v.H 2 e.7.7.7.7.7.3.2.2.2.$.$.$.,.3.2.n `.T.^.I.`.T.Q Q ].7Xt.fXhXjXgX].c.).&XW.P T U.!.",
"I.`.T.|.|.T.XX{.Y.3X3XoX=X|.K.R T K ' U.' * 6 3 7 3.3.2.7 7 #.&.*.;.;.;.*.&.3 p /./.T.v.T.T.L.L.I..X^ 4.5.5.uX).A._.'.P.T U.XX}.",
"`.oX}.}.}./.L.K.Y.|.T.T.I.P.I.W.W.Q.U.T.` p # @.3.2.7 7 &.:.q.w.0.0.0.0.w.w.w.&.v Y./.`.T.I.T.' T.T.Y Q P.`.%XB._.'.j.T.T.T.T.E ",
"|.oX`.P.T./.T.v.I I Q `.I.R..X&X3XoX}.oX`.t 2.7.@.7 &.:.>.9.9.0.0.0.9.9.q.0.w.w.2.> T.|.T.T.a t u /.|.L.Y n.[.m.m.n.j. XT.U.K.U ",
" X.XW.P.L.|./.I d Z L..X'.E.$X XW.oX4X4Xn @.3.7 +.:.-.=.:.;.;.8.&.$.2.,.1.2.&.$.$.: n L.Q t L pXu Y.|.I.E Y ).m.B.m.R. XT.T.W.P.",
"T.W.&X.X`.|.L.I Y L.`.).$XE.E. XP.P.3X4X1 3.3 #.8.=.=.*.7 @.,.1 ] tXeXtXrXiXV 3.t.7 @ R 9 ~ cXH.q ' E I U I n.x.).'.%XoXoX&X%X.X",
"T.W.VXoXJ u u p J ) ' T.=X&X.X4X&XP.!.!.2 6 #.-.%.=.:.7 3.y.u.t.C wXvXvXvXqX2.e.C m @ $ m bXS.k.y ' P d j ' R P.).).].).'.&X XE.",
"!.}.4X) m uXD.D.Z.! m n u n K 4X=X`..XY.# +.=.%.=.*.: 6 1.<.1.3.3.^ xX0XvXwX3.^ iXbX~ * tXqXj M.9 ` ` K K ' K Y./.|.].z.n.E.R.n.",
"T.I.I.U.u tX6X^ D.tXbXbXwXZ.m u J I..XR : %.%.;.#.! v ! wXtXZ.L 6.6.0X0X0XyX7X] L ~ iXn pXJ d.x.9 ' Q.Y.K j ` Q.T..X/.F D j.l.k.",
").).m.R.y ~ gXe.2.M m Z.tXvXbXwX~ u h > &.%.*.#.1 iXqXbXwXm ] O._ wXvX0X0XzXqXO.KXCX~ L ] h F.Y t T.|.T.T K {.{.Y.L.v.Y A Y j.Y ",
"B.B.A.m.R t yXdXdXy.3.,.M ~ 8XvXvXtXL ; %.%.7 2.1.qXvXeX/ AXPXKXO.] 0X0X0XzX~.O.BXLXBXL * Y F.j n .X=X/.E Y.4XY.K.I S E v.P.E I ",
"F c.).v.Y p ~ gXi.sXi.r.7.2.M Z.vXvXvXD.2 7 $.r.1.qXvX~ CXPXKX/ & / qXzX0XbXL O O.AXHXL q h.h.9 {.-X[.I.K XXVXY.R d d I T.T.I.P.",
"z.'.@X).W./.u yXsXi.i.u.r.r.7.6 L tXzXvXD.1 3.7.B tXzX! JXPXAX  O.o.C.vX0XqXn @ / BXJX~.p d.j.r OX*Xb.p n p 4XT.d w f K.L.L.T.T.",
"R.[.[..X.X[.) L gXi.i.i.u.r.r.4.w n tXzXxX! 3.7.! xXzX! JXPXAX  & O C.vXqX~ Z.pXu CXAXqXZ.a a J [.].z.n nXn ) }.P a p p T Q E K.",
"I.m.n.).|.`..Xt 6XgXi.i.i.r.e.G s w n tXvXD.,.3.^ xXzXZ.CXPXJXo   o qXzXrX0XbXNXiX_ uX9XxXn & /./.m.I.p cXC.p |.a L iX' a K.I Q ",
"P.v.z.).`.I.b.Y.t wXgXi.i.u.r.! s g w n tXxX! 7 ^ xX9XtX~.AXLXAX/ ~ rX9X9X9X9X9XS.J rX9XxXC.n `.L.Q K m cXL r J D.bXtXp Q /.v.v.",
"E I.m.R.L.v.A Q ) 0 qXgXsXi.u.5.g s d t C.zXtXn ~ zX9X0XrXqXpXNXnXrX9X9XH.H.H.N.a Z.xX9XxXD.n `.L.E t D.cXL L cXtXC.y U b.|.|.L.",
"f U.P.I.v.E w 0 < 3 > Z.yXgXsXy.4.g w L qXeXzXtXwX0X0XtXL v L C.8X0XzXzX8XH.A.Q D.tXrX9XxXZ.p L.T.E n cXlXD.C.cXm o y J p ` |.v.",
"d ' E T.E v 7 ;.:.:.#.: m G.yXgXgX6Xf.W tXzX9X9X9X9X9XtXL . a.AXBX! C.V.G.qXD.D.~ C.rX9XxXW a v.Q r L xX9XG.C.cXW L qXtXiXt `.L.",
"j K j Y.K # &.-.-.-.=.=.3 # b C.qXtXtXrX8XV.c.eX9X9X9XzXD.. : a.HXJXAXBXBXBXo.X m rX9X9XtXu H a u ~ (.rX9XiXqXlXC.~.tXG.W u `.T.",
"` h i Y.E H 0 : &.=.*.#.3 #.3 $ 0 u u 0 0 $ $ H.9X9X9XlXqX; - - - ( ZXAXAXZX8 X D.zX9XxXC.o u ~ tXxXeXrXrXeXrXlX~ @ y y p /.|.|.",
"` i j Q.A f v.T q ; : 7 %.*.> A n.I.Y A j.).p Z G.9X9X9XrXm #.;.*.+.. . . . . b rX9XlXqX0 P tXxX9X9X9XrXrX9X9XxXD.n y h U.L.OX=X",
"T T R T.v.U `.K.d 1 *.=.&.; d j.L.L.j e d K H @ I G.rX9X9XG.6 :.q.q.&.- - - # D.lXlXtXn h H.lX9X9X9XrXeXG.9XrXqXiXnXtX~ K ).=X=X",
"U P.l.v.'.n.'..X0 6 +.: % f Y a p n J Z r  .{ k O H H.rX9XlXD.6 *.:.>.3 . X C.cXzXqXn + x.eX9X9X9XrXeXN.a H a q y J W J Q [.@X[.",
"l.l.U v.R.).'.-XY.K H U f K p ~ qXrXxXbXC.>XGX1X| = 9 b.G.9XxXqX! M 7 2 n D.cXrXC.r l k f.eX9XrXeXS.K 9 H H H m.N.v.R z.z.).).R.",
"l.j.Y v.z..X.X'.n.j.E a q L eXbXzX0X9XzX8Xc SXGXSXX.= o q S V.eXrXeX#XqXtXqX~ u = [ } k d.H.G.S.I r p v.m.x.B.A.m.c.c.z.z.m.R.).",
"l.m.m.n.n.'.).m.A p L C.qXrXzX0X9X0X0XzXbX` ,XFXGXDXX.l = = + 9 n Z G J y k l = } } } x z.Y a 9 q P '._.B.x.n.B.x.s.x.m._._.R.'.",
"I.'.[.m.R.R.n.Y y qXbXvXzX0X9X9X0X9X8XG.H.H >XGXGXGX1XX.X.} [ = r h H y l } ..z l [ [ + q p Z z.z.F B.R.m.k.D n.x.D F R.@X@XB.n.",
"I.@X#XB.R.m.j.a W xX9X0X9X9X0XrXV.Z e r + + X.>XX.X...,XFX1X,X>X| { c { ..:X1Xz O k = q S ^.A.].].x.s.x.v.n.j.I.).Y A j.n.).R.j.",
").*X@XB.R.m.Y e I Z.0X9X9X9X0XrXn h Y.K & r k k + [ ..1X1X1X1X1XSXSXSXSX1X1XFXz n K H b.b.[.[.].[.c.s.B.R.).).).).j.Y F j.n.n.v.",
"[.#XS.B.l.I.Y f $ V.8XqX9XzX9XbXG R P.I ' ' K.0 & [ :XFX1X1X1X1XSX<X<XSXSXSX2Xi R.'.m.R.m.].].m.c.m.b.].m.n.).I.v.v.b.b.z.z.m.).",
"*X@XB.m.I P.v.D p e W qXzXD.W rXn K.T.v.`.oXQ.% 4 % k { >X>X<X,X{ / /  .>X| x 0 I.'.R.R.).).m.b.).*X[.A.F j.n.m.b.A.C.b.b.^.-X].",
"-X).z.z.Y P..Xm._.n $ H.lXS q G J `.W.E E p k & 4 N N 4 < v * & 5.fXfX4.* < , & c x h I.].].b.).*XY.K I s.z.B.A.z.].].b.z.^.*X].",
"'.v.Y Y A v.4X%X[._.` e f.e $ ) I.v.l.P & { } } k < ,.<.<.<.5 B hXy.u.fXM *  .>X| c o K ].[.b.Q u 2 1 @ Z M.A.A.m.;XOXC.b.v.I.m.",
"I.I.`.n.j.).;X%X_.@X;XQ a Z ).'.D A W.`.r } ..,X<X{ x < 4 N , <.hXy.sXaXx >XSX{ H D.D.n H z.Z % C C ; > % z.B._.*X*Xb.S b.^.m.z.",
"m.'.-X[.R.'.*X).B.#X#XB.B.x.m.j.g e n ) J k ,XSX1XSX<X>X| z l & 5.aXaXm X.FX{ Z rXxXtX' @ e 0 B C # , < # A x.].*XL.Q Z I *X).^.",
"s.c._.@XR.R.[.A.A.+XS.N.x.B.m.D q ; 4 , $ 9 z 1XSX<X1X1X,X:X<X} l x k } SX| i H.cXG.v < B > < <.; > < < # A z..X/.T K Z H OX^.m.",
"s.A.S.A.m.B._.+XN.N.f.s.s.).).e ; 4 4 , , > @ k >XSX1X<X<X1X1X<X,X:X,XFX>Xx d.H.iXv 6 <.B 1 B M # , , , % z.v.T.K.K K ) Q ].).z.",
"c.).c.z.A.m.B._.N.f.c.s.s.A.m.# 4 5 < < 5 > $ d 9 { >XSXSX1X1X1XSXSXSX>X+ 9 h c.n < <.N # 2 <.# , , < > p m.z.v.L.P.K.|.P.m.].m.",
"c.z.F z.B.j.m.m.j.x.m.s.f.B.n , 4 4 5 5 % e d g.d.d r z | >X,X,X,XX.z r a K ) r % <.N 1 2 B M # , , < # Y f.D v.R.`. X&Xv.F B.@X",
"s.F F s.A D B.n.F j.x.z.s.z.% 4 4 4 5 < e g.d.g.g.g.g.e $ y r r r a h E W.L.`.J < <.1 M B B > > , < > q z.s.j.R.).I.&X4XI.j.c.#X",
"x.m.z.A s U n.m.z.F j.z.F P # 4 < > , < d F.H.8XF.h.g.q Y.T.l.I P P.P.l.n.j.I.H < M > B <.M # , , , % c.n.Y R.'.). X4X=XI.I.B.A.",
"x.B.z.g Y n.I.).k.D k.n.F e > 4 < , # , 0 d.eXxXcXG.e '  X.X X XP.I.`.v.A j.m.`.% ; > <.B ; , , < # Q _.).z._.%X[.4X4XP.P I._.z.",
"j.c.j.F n.I.P.v.A A A v.F e > 4 < 4 # 0 % $ Z C.G q K '.[.*X%X'.B.).m.j.D z.x.).I.H # B < # < < # h ).R.).B.@X%X).%X=XT.v.j.m.f.",
"x.x.x.R.W.P.v.E g P d U A f # 4 4 > q n.v.L.h w e Y m.R.m.)._.B.A._.x.z.z.B.B.n.B._.u < ; , < # q l.R.I.)._.[.).R.).|. X'.j.s.f.",
"x.x.M.'. Xn.I Y U K.R E A Y H % v a v.Y j.R.).Y D F z.x.x.c._._.+XA.B.B.m._.[.B.R._.z.0 @ # % a A Y W.W.m.B.R.R.I.v.v.`..X).z.f.",
"m.M.M.M.).m.j.Y P.!.Q.' P v.`.T.L.E L.Y z.'.-Xm.j.n.R.).m.m.'._.R.j.z.R.x.n.'.).n.m.j.A e a E U f D ).R.F v.m.R.m.j.n.=X4X4X].).",
"n._.M.S.B.x.j.P.!.U.J.U.}.`.|.`.I A Q I.v.).[.v.v.R.%X'.n.n.I.).'.j.j.m.j.v.).R.j.z.j.g P T T f f Y m.j.D v.n.I.)..X=X.X`.`.[.*X",
"Y ].N.N.B.x.z.v.I.U.K.K.`.T.`.T.d I Q `.`..X'.n.j.R.%X).n.v.z.R.'.m.n.n.v.R.'.R.v.I.Y g U T f d A D F A D n.m.m.'.-X=XU f v.).).",
"v./.A.m.N.m.z.Y v.I.l.E E I T.L.U E v.I.`..XW.l.l.`.&X'.R.n.z.R.R.R.).v.j.).=X[.).).P Y Y Y A U U g f A D n.R.I.[.%X%XY f v.m.).",
"T.v.A.A.).B.s.z.I.I.Y D I Q /./.`.L./.Q I T.T.v.f E W. X).v.m.).m.n.).v.F I..X'.[.'.Y Y Y v.v.P.Y g g U Y n.n.I.'..X).n.A Y v.A.",
"I.v.).@X-X_.x.R.).m.F A v./..X|.=X`.L.E P R K.K.d f v.oX'.n.n.R.v.z.z.j.D n.m.m.'.'.j.F F R.'.R.P d E K.Y j.z.R.'.'.).[.T.b.^.*X",
"R.R._._.).m.B._.A.N.s.j./.E I.`.=X.XT.v.I f T I f f E oXR.j.j.m.Y F j.n.z.n.n.n.).'.Y j.R.'.'.j.d w T K.v.k.j.I.'.).%X=X`.I.^.).",
"E.m.x.j.s.x.m.n.c.x.f.m.I.f U b.|..XQ P T f T d d f T W.v.j.n.'.v.D z.n.v.j.m.n.m.'.j.n.'.[.).Y d f K.K.L.m.v.I.`.`.=X*X=XOXb.Y ",
"}.v.Y A F j.F j.).M.N.A.z.d E I.m.m.F A K.R ' i h j P E j.n.).[.v.F z.j.l.l.P.U j._.m.E.$X-X&X`.l.I P.|.|.|.4XoX/.Y.|.Q /./.S S "
};
