/* XPM */
static char *_fa97a298ebf4b63c0987b9aa885939bCyOABg0evuIzv3Ou[] = {
/* columns rows colors chars-per-pixel */
"64 65 255 2 ",
"   c #0A2B02",
".  c #113608",
"X  c #163809",
"o  c #253B09",
"O  c #393A0C",
"+  c #3A390F",
"@  c #48360C",
"#  c #47390C",
"$  c #58380C",
"%  c #673A0E",
"&  c #1C470C",
"*  c #1F4A11",
"=  c #23430C",
"-  c #244C0D",
";  c #39470D",
":  c #275508",
">  c #2B530E",
",  c #355B0D",
"<  c #284517",
"1  c #244C12",
"2  c #2B4D12",
"3  c #384911",
"4  c #255311",
"5  c #2B5413",
"6  c #2D5A13",
"7  c #295915",
"8  c #375716",
"9  c #335B14",
"0  c #2F6108",
"q  c #376608",
"w  c #3C6C0B",
"e  c #3E720A",
"r  c #2D6214",
"t  c #346314",
"y  c #3C6414",
"u  c #3C6B14",
"i  c #386918",
"p  c #3C7518",
"a  c #3A5824",
"s  c #3D6923",
"d  c #48450C",
"f  c #5A4B0D",
"g  c #484813",
"h  c #584811",
"j  c #475814",
"k  c #5A5413",
"l  c #6D460F",
"z  c #6A4811",
"x  c #784712",
"c  c #655915",
"v  c #795816",
"b  c #43690D",
"n  c #43750C",
"m  c #49750B",
"M  c #457A0C",
"N  c #4A7C0C",
"B  c #517E0E",
"V  c #426C14",
"C  c #436D1B",
"Z  c #486918",
"A  c #447414",
"S  c #4A7614",
"D  c #467A12",
"F  c #4B7C14",
"G  c #44721A",
"H  c #4A751B",
"J  c #447B1A",
"K  c #4C7B1B",
"L  c #527918",
"P  c #527D1B",
"I  c #676416",
"U  c #756A19",
"Y  c #445A26",
"T  c #486926",
"R  c #497523",
"E  c #4D7B24",
"W  c #537C26",
"Q  c #526A33",
"!  c #656F35",
"~  c #6A7946",
"^  c #873C0E",
"/  c #874813",
"(  c #895714",
")  c #985215",
"_  c #BA5B0E",
"`  c #A65010",
"'  c #A75416",
"]  c #B75C16",
"[  c #876819",
"{  c #936B15",
"}  c #AB6D18",
"|  c #B96918",
" . c #AB741D",
".. c #937820",
"X. c #B47B20",
"o. c #C65D06",
"O. c #CF6B09",
"+. c #C76915",
"@. c #D56B13",
"#. c #C8781B",
"$. c #D77519",
"%. c #DB7D1B",
"&. c #E47B06",
"*. c #E87D1B",
"=. c #3E811B",
"-. c #46800F",
";. c #4D820D",
":. c #51840E",
">. c #548A0F",
",. c #4D8314",
"<. c #498618",
"1. c #4D841B",
"2. c #4D8A1D",
"3. c #528515",
"4. c #548B14",
"5. c #5A8A15",
"6. c #53841B",
"7. c #5A841C",
"8. c #548A1B",
"9. c #5A8D1C",
"0. c #4E921E",
"q. c #5B9115",
"w. c #53931E",
"e. c #5C931C",
"r. c #5B991A",
"t. c #65881E",
"y. c #628C1C",
"u. c #61941D",
"i. c #639A1E",
"p. c #69981D",
"a. c #73931E",
"s. c #64A11F",
"d. c #4D8222",
"f. c #548423",
"g. c #5A8523",
"h. c #558A23",
"j. c #5B8C24",
"k. c #54852A",
"l. c #5A852B",
"z. c #5C8C2A",
"x. c #569521",
"c. c #5C9223",
"v. c #569921",
"b. c #5D9A23",
"n. c #5E922B",
"m. c #5F9929",
"M. c #5D8C32",
"N. c #5F9131",
"B. c #668B23",
"V. c #638E24",
"C. c #628D2B",
"Z. c #629524",
"A. c #649A24",
"S. c #6A9D24",
"D. c #63942B",
"F. c #6B9428",
"G. c #659B2B",
"H. c #699C2C",
"J. c #749D26",
"K. c #628D32",
"L. c #659432",
"P. c #699533",
"I. c #659B32",
"U. c #6B9C33",
"Y. c #6A9939",
"T. c #729D38",
"R. c #6BA423",
"E. c #6CA22C",
"W. c #74A221",
"Q. c #7AA727",
"!. c #73AA22",
"~. c #7BAB24",
"^. c #71A42C",
"/. c #7DB324",
"(. c #7DB029",
"). c #67A131",
"_. c #6CA333",
"`. c #6DA23A",
"'. c #6FA939",
"]. c #72A434",
"[. c #73A43B",
"{. c #76A93A",
"}. c #7CB13E",
"|. c #749747",
" X c #7AA944",
".X c #7DB242",
"XX c #93851E",
"oX c #B48A17",
"OX c #AE8827",
"+X c #84AB24",
"@X c #84B324",
"#X c #87B727",
"$X c #8ABB26",
"%X c #92BC27",
"&X c #BAA523",
"*X c #BEBC28",
"=X c #DE811C",
"-X c #CB9417",
";X c #EB8F15",
":X c #E3851D",
">X c #EA861D",
",X c #D6A318",
"<X c #F5A314",
"1X c #FFB917",
"2X c #C88724",
"3X c #D68623",
"4X c #C9942C",
"5X c #D99729",
"6X c #E78A21",
"7X c #F28D22",
"8X c #E89728",
"9X c #F39323",
"0X c #F59C26",
"qX c #F99A27",
"wX c #FB9C26",
"eX c #D4AC29",
"rX c #E6AC2D",
"tX c #FAA42C",
"yX c #FBAA33",
"uX c #FEB538",
"iX c #8DC126",
"pX c #94C425",
"aX c #99C626",
"sX c #9CCA26",
"dX c #96C529",
"fX c #9DCB2A",
"gX c #9ED12D",
"hX c #9AC930",
"jX c #9FD130",
"kX c #A5CA28",
"lX c #A2CE2C",
"zX c #A4D22C",
"xX c #AAD82D",
"cX c #A8CC33",
"vX c #A4D332",
"bX c #A9D632",
"nX c #A7D832",
"mX c #ABDA33",
"MX c #B1E138",
"NX c #C1C52B",
"BX c #868949",
"VX c #8C9156",
"CX c #89B34F",
"ZX c #9C9E61",
"AX c #B1B172",
"SX c #FFBA45",
"DX c #D9D16A",
"FX c #B9BA88",
"GX c #D8D28F",
"HX c #EADA8B",
"JX c #EAE199",
"KX c #F7ECAB",
"LX c #FFF4A6",
"PX c #FFF4AB",
"IX c #FFF8B2",
/* pixels */
"Z.8.4.4.9.,.h.D.D.n.c.c.I.z.h.D.D._.E.).G.,.1._.U.n.G.G.H.A.c.w.;.q.A.E.E.H.b.I.I.`.c.9.8.h.h.8.c.b.e.e.3.4.;.4.A.:.N 3.;.:.8.U.",
"G.j.8.c.I.h.h.I.[.`.D.h.n.`.j.Z.e.Z.u.A.'.G.G.I.c.G.)._.).A.).b.,.e.).E._.G.c.G.c.h.8.<.A d.h.2.8.,.e.q.4.q.4.q.4.N n n ,.3.,.D.",
"Z.8.3.H..XU.D._.{. X X_.H.U.j.Z.Z.u.i.e._.).m.G.m._.'.).b.w.b.A.e.b.e.8.x.8.8.).x.,.x.<.J k.z.8.,.,.e.4.4.4.u.q.>.M q w G.e.M F ",
"Z.c.F 8._.H.H._.A.]..X].].H.8.Z.S.i.E.A._.).c.'.'.G.m.c.w.4.e.A.b.b.4.M <.<.w.G.G.x.).c.1.h.h.<.M w.r.e.4.8.A.u.4.e q A Z.9.e w ",
"D._.c.8.e.A.].].A.A.E.9.A.H.4.c.e.,.A._.'.).G..X'.x.8.<.G 5 6 i d.A.4.,.<.8.8.8.c.c._.G.2.h.8.D ,.w.e.c.G.G.e.q.4.3.3.9.H.A.6.h.",
"9._..X].Z.H.}.{.H.e.Z.8.4.8.,.3.,.e 3.G.m.G.G._._.G.9.8.X 8.@XS.y t ,.<.,.8.8.w.m.m.).m.8.h.8.,.b.w.8.G.[.H.8.q.e.i.Z.Z.E.E._.[.",
"3.c.CX.XZ.U.{.U.9.j.c.3.N 8.3.,.n 0 0 1.2.c.m.G.G.G.x.9.5 i !.gXgXj.5 <.,.-.-.x.G.G.).b.w.9.,.8.m.2.2.c.`.n.8.e.^.S.A.H.e.Z.U.D.",
"3.,.}.U.j.U.[.n.A q e h.8.j.1.A A u : u 2.8.8.G.c.c.d.p 5 . * 1.#XzX9.- u e M 2.x.x.c.G.G.8.M ,.x.x.c.h.z.f.8.S.^.i.u.u.;.3.j.f.",
"1.F D.h.K f.K.H 0 : w f.P.z.A y H R - t z.c.n.L.i 5 9 H Z.~.~.~.iXfXsXZ.C 6 4 i 6.,.j._._.j.m D 3.8.n.j.1.F 9.E.A.4.Z.9.n h.z.K ",
"6.6.z.z.W G L.W C E k.l.Y.f.H H W C > y h.k.s 5 H (.hXnXMXvX#X#XvXmXfXzXvXhX^.C 2 y V.U.U.j.F K j.z.P.D.F D 9.A.4.9.G.j.d.k.M.l.",
"h.h.h.z.K.W |.Y.l. X XP.CXP.V V G , y H C 1 G #XvXnXvXnXZ.& & & 6 (.vXfXvXvXnXvX(.9 1 5 W z.P 6.D.[.Y.C.F 1.c.e.4.Z.`.n.A A l.N.",
"j.D.z.L.P.z.P.K.l.|.|.Y.[.P.f.H G V E s 1 S.gXvXfXvXmX6.X P ~./.Z.P fXzXvXvXfXzXvXV H S.5 R g.g.g.Y.6.K g.n.G.Z.u.A.G.k.J k.L.L.",
"D.U.D.D.L.C.l.f.l.P.z.z.j.h.h.n.N.M.T 4 ~.gXfXvXvXbXQ.6 @XzXzXxXmXfXfXvXvXbXvXlXfX(.jXmX@X2 l.z.C.z.P P h.D._.e.A.G.,.z.z.z.z.K ",
"P.T.D.6.z.C.z.6.S S P D.c.c.U.`.`.M.1 (.vXdXvXnXnXbXQ.@XvXvXhX@X#XfXvXvXvXvXlXlXlXvXvXnXmXj.i 6.z.D.P.g.K h.H.9.9.8.,.I.z.h.f.D ",
"I.U.f.9 9 i C u q b g.U.G.m.).I.n.7 j.gXsXfXvXvXnXvXvXvXhXK - 8 8 , W.vXfXfXfXfXfXvXhXK S Z.9 S 7.P.U.V.K F Z.9.q.8.c.I.z.z.n.h.",
"z.n.2 ..OX..U j 2 6 T h.).m.m.I.R - #XdXdXfXlXvXvXvXvXhXt Y AXHXHXAXQ Z.vXlXlXfXfXzXH BXAXT & f.P.D.F S D F 8.4.Z.G._.T.T.`.`.U.",
"z.N.a 4XuXyXtXtXrXOXI 3 9 E I. Xs u iXsXsXvXzXvXvXvXbXF Y HXPXPXPXGXZXY +XzXfXfXzX@XT ZXGXJX8 R P.K.A y y W H h.Z.Z.G.Z.G.'.I.c.",
"N.L.E U yX9X$.$.6XyXuXrXOXI 2 s 1 <./.fXfXvXvXvXvXvX%X5 DXIXPXPXVX. o < V zXfXfXzXJ.< Q a GXAX> W W E C C W C l.C.F.F.3.8.b.c.8.",
"z.j.h.3 5XtX7X:X$.+.3XyXuXuXeXU = 7 r.fXfXlXvXbXvXmXp.! LXPXIXGXX   FXFX& $XfXsXvXS.< KX~ Q KXa f.W M.l.C y E M.z.Y.V.N M ,.1.,.",
"Z.c.9.t [ tX9X7X7X>X$.| 3XyXuXuX5Xc * R.zXfXzXvXlXmX7.BXPXPXIXZX    AXFXX Q.lXsXbX(.. a * X JX~ 5 R P.z.C C K.K.l.g.6.F m F <.F ",
"e.e.u.6.3 5XwX7X7X7X7X:X+.| 8XuXuXuXOX> @XzXlXvXzXmX7.VXLXPXPX~   . X X . J.fXfX@XL g d o . FXVXk c 8 l.K l. Xl.f.S m F 6.h.K F ",
"N 4.Z.8.5 U tX9X7X7X7X7X*.@._ 3XuXuXuXOXZ dXlXlXlXbXu.BXLXLXPXVX  . .   X ~.zX%X..2X0XtX8X..Q Q #.wX{ 9 P Y.CXf.H q q S z.z.h.h.",
"3.H.E.D.k.3 3XwX7X7X7X9X*.*.+.` #.yXyXuXOX+XmXvXlXlX@XT HXPXPXAX  . .   - dXkXeXwXwXtXSXSXyX..o #.>X{ > L l. Xz.q : w f.l.l.z.z.",
"c.H.H.U.U.R c wX9X7X7X7X*.$._ +._ +.tXyXrXkXzXvXlXlXbX7.BXLXPXKX!   .   B.xXeX0X0X0XtXuXyXwXtXj ( $.h V F S z.L.A A K.f.K P K g.",
"j.9.8.Z.P.D.5  .wX7X7X7X:X@._ @.@._ #.rXrXkXfXlXvXlXzXfX6.BXGXIXKX|.8 P fXlXrXqXtXtX0X0X0X0XtXI ; v 8 6.7.7.P P.L.P.H.3.6.f.S P ",
"h.6.3.Z.D.z.K 3 2XwX7X7X7X$._ @.$.$._ oXNXkXsXlXvXfXfXkXcX+XJ.CXDXDXcXzXfXaX5XwX0X0X0X0X0XwX9Xk & 5 f.6.V.t.P P. X{.e.4.Z.C.6.6.",
"K h.9.c.g.P n u 3 2XwX7X9X:X@._ +.+._ oXkXsXsXfXlXbX*XrXtXtXeXiXaXxXzXfXfXsXXX*.9X9X0X9X9X7X| j j.9 K 6.B.B.g.P. X_.9.q.9.P.P.g.",
"u h.h.j.6.F q w > 2  .9XwX9X>X$.+.+.-X*XkXlXfXfXfXlXrXwX0X0XeXfXW.P Q.lXlXxX/.v +.*.>X>X*.| ; ~.J.9 g.V.V.B.V.P.U.c.H V j W P.6.",
"0 E K z.6.P A S w H 1 k X.8X9X7X>X6X,X&Xa.$XlXfXfXlX*XeXeX*XlXsX7.X Q.xXlXfXzXR.j c ( ( c 2 p.xXK C z.z.F.F.V.W 8 ; k [ [ + D.g.",
"u G u l.h.g.F S S K S : & 3 c [ { [ I 8 p s.dXsXfXfXfXfXfXfXfXlXbXV.t %XzXlXfXzX#X2.p p 2.@XbX%X5 K S 6.C.Z 3 k ..4X8XwX3X# D.z.",
"R t 6 l.6.F F F P P n w n A u 6 4 4 X . <.r.!.fXfXsXsXfXsXsXfXsXsXzXZ.9 y.%XlXlXkXsXdXdXfXzXzXP 5 F F T g [ 4XtXwX9X>X>X#.g P.P.",
"R 9 t M.n w 6.6.V z.z.m 9.8.F M 8.j.A X X J w.!.sXlXsXfXfXsXfXsXfXlXbX%XP G 7.y.J.pXlXlXlXzXy.2 A S R h 5XyX0X:X:X:X%.9X} 8 T.[.",
"G G H z.6.D D.f.q j.j.6.K t > 9 5 5 5 X   . t 2.R.pXfXaXaXsXsXsXfXfXlXzXbXdX#X@X%XfXfXlXsX7.2 S m 3.3 OXtX:X%.:X6X%.:X9X( Z [.[.",
"D h.1.6.G.8.G.U.k.c.D 6 9 6.Q.@X@X@X@XW.,.6 & - u w.!.pXsXaXsXsXfXfXfXfXfXfXfXfXfXzXfXQ.y 9 7.m :.V c 0X:X=X%.:X%.:X>X6Xh f.E.H.",
"1.1.D 6.c.Z.H.{._.G 5 Z.fXzXzXfXfXsXfXfXfX$Xi.p - = t <.R.$XpXsXzXlXkXkXlXzXzXfX%XJ.V 5 Z F.y.B 3.; 2X9X=X%.>X=X=X>X>X=X# c.Z.c.",
"1.,.F 3.3.U.U.E 5 y $XxXfXsXdXpXaXsXsXsXsXsXsX/.<.+ $ + - p r.R.R.!./.@X@XW.9.V 9 8 R F.J.p.5.:., v 0X>X%.:X:X=X>X%.>X} ; 9.c.Z.",
"1.9.9.8.8.H.C 9 W.fXlXsXsXsXsXsXsX~.!.@X$XdXaXkX$XD $ ^ @ t 0.<.u 6 - 5 5 > 9 C T.CXF.F.J.y.m m ; 2X7X%.:X:X:X:X:X:X9Xv C A.c.G.",
"j.G.H.9.c.E 9 pXzXsXsXfXfXaXlXdX8.- 1 7 t t H p.lXdXZ % ^ # p w.w.J X 2 g.7.6.9.].{.Z.Z 8 L B 8 [ 9X:X:X=X:X>X=X>X7X=X# D.E.e.8.",
"j.E.^.e.c.5 W.fXsXaXdXaXfXlXpXu 1 E M.T X 6 J !.sXkX#Xf ' ) g w.r.2.6 i 9 7.3.7.U.U.H # { g Z g 3X>X:X%.=X6X>X>X7X=Xv 3 8.Z.c.,.",
"Z.].E.e.c.> @XpXpXaXaXfXaXfXdX5 E z.W + o 0.!.sXdXdXzXa.x +./ a.pX~.6 2.t 5 6.3.F.F.3 ) 6XX.+ v 9X6X$.$.6X:X>X7X| # 2 D ,.8.8.6.",
"H.^.i.e.1.8 F 9.#XaXfXfXsXlXgXS G f.+ x % 8 !.gXsXaXaXfXI ' ] I fX#X5 2.r.P 5 y c.G.8 ( ] %. .z #.%.#.6X>X7X6X( + V 7.5.3.3.9.F.",
"].E.e.9.F E & t dX#X#XsXaXp.A.t h.R $ / / / k a.sXzXfXzXW.% / $ +X@X5 w.#XzXQ.y 5 R 5 , j ( %.} l | >X=X6X#.$ 8 6.y.y.5.3.V.{.F.",
"{.Z.3.3.F h.M.- e.6.W.lX9.4 J 9 U.T @ ^ ) ] ) x c a.#X+Xk { oX( I S.7 b.dXaXlXfXS.- J.sX/.j ' $.} l | =X{ # C e.3.S.F.5.3.V.].F.",
"G.3.K F n 3. Xl.4 1 K R.J - 9 P.E * 6 @ ) ] ' ] ' / z d -X1X<X1X{ + - 2.dXsXaXzXW.y.%X#XzXK $ ] $.| z z ; ,.A.p.9.{.T.t.5.7.V.7.",
"9.j.D.6.,.Z.}._.c.E 5 r 6 A Z.G.- r =.r d / ' ] ] +./ { 1XO.o.;X,Xx g * i.sXlXzX+X$XK +XzXH X h ] $.#.# , q.e.A.].].7.m 7.V.7.3.",
"9.A.{.H.c.G.].A.e.^.A.K K t 6 t , 1 p =.<.y d / ' ] % oX<XO.&.;X,Xx j R 1 8./.pXlX/.6 H P V $X7.z ] $.#.z b 4.G.].g.L b S ].F.V.",
";.q.S.E.c.c.H.i.u.R.i.4.5 p 2.r 5 T - <.v.w.<.u j h @ { <X;X;X1X{ @ Z D.L 2 i K fXp.d ; t V lXxXH l | $.| + 3.U.C.H C y V U.V.7.",
";.u.i.u.9.e.A.E.q.>.:.- J b.b.x.r 5 X * <.w.x.w.0.<.6 # #.<X<X{ ; o H z.7.L 9 > W.k x t.xX9.A ~.J o x ) $ b 3.z.g.C C R P F.Z.3.",
"5.Z.5.3.u.9.e.A.q.>.9 p b.v.v.w.x.5 7 4 * 1.w.w.2.<.0.r ; z f y 0.p.5 6.j.z.6.8 k / $ H zXzXu.& 5 P j ; S 9.3.3.g.h.f.P.h.9.F.9.",
"5.3.m 3.e.3.9.9.,.V 6 v.v.v.v.v.v.J <.p 4 & 1.v.6 * x.<.r X p 0./.zXp.9 j.z.l.h | #.x + 9.#Xe.> 4.u.q.;.4.:.M 3.c.D.I.`.3.N e.E.",
":.N N ;.n M e.8.;.> 1.v.v.v.2.c.v.v.v.<.p 4 & 7 9 1 r 4 5 1 u i.aXsXfXV E g.z.g ) | ] $ & 6 5 9.u.i.i.4.3.;.,.c.Z.j.`. Xj.,.4.^.",
"4.9.3.n q D 8.9.A 6 x.w.x.b.p i v.v.v.b.2.1 9 u P.f.R Y.D.f.- 1.iXaXsXW.9 A i 9 3 f ( # 3.9.i.e.q.u.S.e.8.F c.G.D.I. X[.j.j.e.u.",
"4.e.3.e F 8.j.D.t p v.2.v.w.4 = t 2.v.2.6 y 3.9.j.8.H.[.I.P.R t #XsXsX#X- 9 p.$X!.1 8 H e.e.e.;.3.e.S.i.A.3.A._.H. X Xj.A j.A.3.",
",.4.,.N 8.j.h.3., i p J 1.1 t h.C 5 5 5 C c.M M ,.,.c.H.H.].L.4 !.sXpX7.9.aXfX!.2.6 Z.8.3.;.;.;.,.8.Z.c.Z.e.E._.D._.[.z.6.,.9.:.",
"4.4.4.x.n.h.1.K w 1 X 1 - , c.j.H.c.F 6.j.Z.F n F ,.9.c.9.A.A.5 r.sX@XW.kXpXi.w.t H Z.e.N S m F D 1.c.j.Z.A.H.Z.c.D.I.I.H.,.;.:.",
"4.4.q.H.I.8.D F D f.G C n F j.8.D.j.3.S ,.c.D.F M F 3.4.4.q.A.9 8.dXaXkX%Xr.w.J 9 F.9.4.D 6.K D n F n.n.9.e.c.c.j.1.3.D.U.Z.3.:.",
"e.r.r.r.Z.9.,.F k.N.M.E A 6.D.D.z.F g.P 3.G.{.9.,.8.c.Z.9.9.G.i J pXsX@Xe.v.J 5 6.9.,.n e G f.D w M Z.c.N 3.9.c.9.,.8.[. X XG.Z.",
"8.A.r.i.e.4.,.h.N.k.k.k.L.D.P.D.S n P j.6.Z.H.3.3.c._.G.8.8.j.R t @X~.w.x.p 5 h.,.3.,.e A A J w w F 9.,.M 3.8.j.Z.U.[.U.D.D.F.^.",
"S G.q.q.e.4.3.6.h.h.f.f.D.z.D.z.q S P D.D.U.H.8.,.c._.D.8.3.3.h.5 w.w.1.6 9 n.x.3.j.F e D A w q n M N n M 8.9.9.H.{.[.D w 6.F.Z.",
"6.V.y.9.q.9.3.F 6.h.1.K F S z.g.D F 6.j.D.U.n.1.1.D.`.H.c.8.3.c.C 6 6 5 y Z.[.G.D.D.A F F F n D D e q n M 8.c.j.H._._.K w 6.7.Z.",
"z.6.y.u.Z.e.;.3.j.j.K M S P C.z.D.g.C.P F z.z.6.w K n.I.D.3.9.D.9.K f.3.N j.U.F.H.G.F F F 6.6.h.F e e D F 8.8.j.G.U.Z.8.n K 7.u.",
"h.3.Z.E.{.A.4.c.Z.e.N n 6.C.Y.P.T.D.g.F A H f.f.q w 6.U.H.8.8.c.3.3.3.,.M 8.9.9.G.G.,.N N j.D.c.A q K f.F ,.3.c.H.G.Z.H.j.7.Z.^.",
"c.x.A.A.Z.9.e.A.e.q.;.,.V.K h.D.[.U.z.6.A w J A w w K U.c.,.,.9.F N ,.8.3.8.8.8.D.H.F ,.c.H.G.,.q : J f.6.,.,.j.H.Z._.[.D.j.V.Z.",
"n.9.4.,.;.4.9.4.q.4.>.9.j.w D 7.P.U.P A H u G 0 t u J n.6.,.8.G.3.M 3.8.3.,.9.8.9.H.,.8.H.H.D.F q w f.f.g.9.6.j.H.D.[._.[.T.6.B ",
"I.6.F n N ,.N ,.Z.q.q.u.3.q K j.9.9.N n f.H E 6 t u A K ,.8.D.H.3.N 3.,.2.1.h.D ,.A.e.b.).'.'.D.1.F f.L.P.P. XT.C.g.P.P C.C.S b "
};
