/* XPM */
static char *b976af09cb1f45fa9b020fdacd4bc2a4TrqvgjfEt9SFQWDX[] = {
/* columns rows colors chars-per-pixel */
"64 65 254 2 ",
"   c #0E1B2B",
".  c #311B30",
"X  c #172633",
"o  c #2E3434",
"O  c #283839",
"+  c #4A3430",
"@  c #74343D",
"#  c #2C550E",
"$  c #385A1A",
"%  c #2F6108",
"&  c #386809",
"*  c #3E7209",
"=  c #3B6715",
"-  c #334B2C",
";  c #3A5628",
":  c #294639",
">  c #364639",
",  c #3A5636",
"<  c #3E6232",
"1  c #456D0C",
"2  c #42750C",
"3  c #457A0C",
"4  c #497C0C",
"5  c #456C19",
"6  c #437313",
"7  c #477617",
"8  c #4B7C14",
"9  c #4C7C1A",
"0  c #527C1A",
"q  c #455A29",
"w  c #534F33",
"e  c #455938",
"r  c #725634",
"t  c #466927",
"y  c #4B7725",
"u  c #537A26",
"i  c #57683C",
"p  c #4F7036",
"a  c #6A713A",
"s  c #162C46",
"d  c #1B354A",
"f  c #1A3957",
"g  c #2D2D4D",
"h  c #293746",
"j  c #353846",
"k  c #333B4C",
"l  c #373B55",
"z  c #183D62",
"x  c #383C64",
"c  c #473855",
"v  c #4D3E66",
"b  c #1D445D",
"n  c #284546",
"m  c #374847",
"M  c #375845",
"N  c #254757",
"B  c #3B4454",
"V  c #2A5358",
"C  c #335552",
"Z  c #3B6348",
"A  c #366658",
"S  c #1D4364",
"D  c #1C476A",
"F  c #194A73",
"G  c #1B5679",
"H  c #234B68",
"J  c #394E68",
"K  c #285868",
"L  c #214E72",
"P  c #265878",
"I  c #386866",
"U  c #2A6579",
"Y  c #357072",
"T  c #4D4F4F",
"R  c #465747",
"E  c #434A5B",
"W  c #674F5F",
"Q  c #476846",
"!  c #586B45",
"~  c #5A7747",
"^  c #4C7154",
"/  c #667945",
"(  c #6B764D",
")  c #4E4769",
"_  c #4C5463",
"`  c #555A67",
"'  c #4D6E6D",
"]  c #6B7172",
"[  c #85373E",
"{  c #865C36",
"}  c #926D34",
"|  c #AA7732",
" . c #9D5859",
".. c #8F7154",
"X. c #D96867",
"o. c #4D820D",
"O. c #52860E",
"+. c #4D8214",
"@. c #4E8917",
"#. c #4E831B",
"$. c #528514",
"%. c #558B15",
"&. c #598A17",
"*. c #54841B",
"=. c #558A1B",
"-. c #5A8D1D",
";. c #599318",
":. c #5C931C",
">. c #608D1C",
",. c #61971D",
"<. c #548423",
"1. c #598522",
"2. c #558A23",
"3. c #5B8C24",
"4. c #57852B",
"5. c #5C8C2A",
"6. c #598C2D",
"7. c #5D9323",
"8. c #5D9726",
"9. c #5E922A",
"0. c #5C8832",
"q. c #628D27",
"w. c #629524",
"e. c #649A24",
"r. c #63942C",
"t. c #659B2B",
"y. c #699A29",
"u. c #699C2C",
"i. c #699336",
"p. c #669833",
"a. c #6B9C33",
"s. c #6BA22C",
"d. c #72A72F",
"f. c #6CA233",
"g. c #6BA237",
"h. c #73A639",
"j. c #3E8679",
"k. c #56874E",
"l. c #558753",
"z. c #6A874A",
"x. c #778847",
"c. c #6F924C",
"v. c #689955",
"b. c #789B53",
"n. c #79A844",
"m. c #79AB4A",
"M. c #518B73",
"N. c #659C74",
"B. c #6EAA78",
"V. c #98983E",
"C. c #B48737",
"Z. c #CC8D34",
"A. c #D79739",
"S. c #E3A13D",
"D. c #86984B",
"F. c #898F50",
"G. c #AB8F4C",
"H. c #85A754",
"J. c #90AC51",
"K. c #97B557",
"L. c #A5B64C",
"P. c #B1B04C",
"I. c #A6BB56",
"U. c #8B936D",
"Y. c #95AC69",
"T. c #97B16D",
"R. c #9CB275",
"E. c #A4B67B",
"W. c #D39C43",
"Q. c #D6A74A",
"!. c #E8AC47",
"~. c #D2A671",
"^. c #9DC45A",
"/. c #ABC657",
"(. c #B5C957",
"). c #BACE59",
"_. c #ACD55C",
"`. c #BCD25A",
"'. c #BAD559",
"]. c #AFCD64",
"[. c #CAC84E",
"{. c #C1D65A",
"}. c #C7D758",
"|. c #C4DA5C",
" X c #CCE15E",
".X c #C6D66D",
"XX c #1C5C83",
"oX c #265D81",
"OX c #1D6792",
"+X c #266888",
"@X c #2D728C",
"#X c #267699",
"$X c #2D7B9A",
"%X c #337B97",
"&X c #1F75A2",
"*X c #277EA4",
"=X c #564E87",
"-X c #6D528B",
";X c #755691",
":X c #7A5895",
">X c #607984",
",X c #8D788F",
"<X c #368491",
"1X c #36879A",
"2X c #2C83A5",
"3X c #3287A5",
"4X c #3894AA",
"5X c #2E97B6",
"6X c #379BB5",
"7X c #39A5BD",
"8X c #47938A",
"9X c #698791",
"0X c #75959C",
"qX c #59A78B",
"wX c #6DB38B",
"eX c #449CAE",
"rX c #7B9BA1",
"tX c #46A7B8",
"yX c #52ADB6",
"uX c #79C58B",
"iX c #7AC494",
"pX c #73C898",
"aX c #79CAA7",
"sX c #37ADC6",
"dX c #47ADC1",
"fX c #57BBC3",
"gX c #5CC1C7",
"hX c #61C7CC",
"jX c #66CDD2",
"kX c #8C8C8B",
"lX c #ADAF95",
"zX c #829FA5",
"xX c #86A5A9",
"cX c #97B2B2",
"vX c #ACB6B4",
"bX c #F4928B",
"nX c #D7A7A6",
"mX c #85D393",
"MX c #A5C5A6",
"NX c #AFC2BF",
"BX c #CBCEAE",
"VX c #B7BAC1",
"CX c #A9C7C4",
"ZX c #B5CFCA",
"AX c #BCD8D1",
"SX c #84D7E0",
"DX c #DEDAC7",
"FX c #C7D9D3",
"GX c #E4DBCC",
"HX c #C8E4DA",
"JX c #E4E1CC",
"KX c #F3EBD8",
"LX c #D7ECE4",
"PX c #EFF8F1",
/* pixels */
"w.=.%.%.-.$.3.w.w.9.7.7.p.5.2.r.r.f.s.f.t.@.#.f.a.8.t.t.s.e.8.-.o.;.e.s.s.t.8.a.p.g.7.=.=.2.2.=.8.8.:.;.$.%.o.%.e.O.4 $.o.O.=.a.",
"t.3.=.7.p.2.2.p.h.g.r.2.9.g.3.w.:.w.,.e.f.t.t.a.8.t.f.f.s.e.t.8.@.:.s.s.f.t.8.t.7.2.=.+.6 #.2.#.=.@.;.;.%.;.%.%.%.4 2 2 +.$.+.r.",
"w.=.$.u.m.a.w.f.h.n.n.f.u.a.t <.w.,.,.:.f.f.8.t.8.f.0.p Q Z Z t 9 8.7.= ; 9 =.f.2.+.2.+.7 2.6.2.+.@.;.%.%.%.,.;.O.4 % * t.:.3 8 ",
"w.7.8 =.f.u.s.f.e.d.n.a.t ^ ` t y.,.s.e.f.f.8.h.r., Y tXyXfXhXyX' , +.= I I 7 t.8.2.f.8.#.2.2.#.3 -.:.-.%.=.e.,.%.* % 6 w.-.* & ",
"w.f.7.=.:.e.d.d.e.e.<.R cXLX] -.:.+.e.f.f.f.t.n.p O K 3X7XtXfXhXjXyXC & A jXI 6 8.8.f.t.#.2.=.8 +.-.:.7.t.t.:.;.%.$.$.-.t.e.*.2.",
"-.f.m.f.w.u.h.h.u.= ` FXPXvX; $.+.* $.t.8.t.t.f.f.2.$ o K 4X6XyXhXjXfXM : gXhXM 8.8.f.8.=.2.=.@.8.-.=.t.h.u.=.&.:.,.w.w.s.s.f.h.",
"$.7.K.m.w.a.h.a.= ] LXLXLX9X= +.2 % % #.=.8.8.y Z Y ' ' K U 5X6XfXgXjXyXh yXjX8Xy t.f.8.-.=.@.=.8.@.@.8.g.9.=.:.d.e.e.u.:.w.a.r.",
"$.+.h.a.3.a.h.y ] LXHXHXAXR 9 6 6 = # = #.#., 8XfXjXjXhXgXyX6X5XtXgXgXhXY eXjXyX< 9 u t.t.=.3 @.2.2.8.2.5.<.=.y.d.,.,.,.o.$.3.<.",
"$.8 r.2.9 <.0.T LXLXHXHXzX, 6 & 9 y # = 5.M eXdX6X4X6XtXfXgXfXtX4XfXgXgXyXyXhXhXM - , f.f.3.3 8 $.=.9.3.#.8 =.s.e.%.w.=.2 1.5.9 ",
"*.*.5.5.u 7 e NXLXHXHXvX9X; 9 9 u 5 # = , @X3X#X*X2X2X2X3XtXfXfX6XtXgXgXfXyXhXfXn %XQ a.a.q.8 8 5.3.p.r.8 6 -.e.%.-.u.3.<.<.0.4.",
"2.2.2.5.0.5 ] PXHXHXZXxX>Xp 6 5 5 % = 5 : M , n P 2X2X2X*X*X5XdXdX6XfXfXfXyXhXyXY yX< 3.r.q.0 *.r.h.a.q.8 #.7.:.%.w.f.9.6 6 4.9.",
"3.r.5.p.i.e FXPXHXHXcXxX' u <.7 7 5 u 4.2.4.M +X*X#XXXK I Y Y 1X7X6XtXgXtXyXhXeXfX8Xt *.3.3.1.1.1.a.*.9 1.9.t.w.,.e.t.2.7 4.p.r.",
"r.a.r.r.0.] PXPXLXZXxXxX` 7 2.5.9.6.4.4.<.C *X2XXXC x.L.(.(.(.K.B.eX6XfX6XyXfXtXyXm q r.3.3.3.3.q.3.0 0 u r.f.:.e.t.+.5.5.5.5.9 ",
"p.a.r.*.t kXLXLXPXNX0XxX_ <.a.g.g.a.p.a., #X2XD ! /.|.|.|. X X X}.].wXdX6XyX6XeX^ L.D.e 1.3.1.*.3.q.t e e t u.-.-.=.+.p.5.2.<.6 ",
"p.a.9.1.q CXHXFXPXcXrXxX^ 7.f.p.9.p.n.c.K 2XD / }.{.`.{.D.( / D.`.}.{.wX3X3X8Xb.).|.{.D.; 1.*.7 t e c.J.b.; w.-.:.-.7.p.5.5.9.2.",
"5.9.g.a.e FXHXAXFXxXrXxX^ 8.8.p.2.2.n.k.@XG / }.`.`.(./ R ! ! R ! (.}.{.T.T.(.}.(.! e ( e y 1.; ! ^.K.z.z.$ =.%.w.t.f.a.a.g.g.a.",
"5.9.H.n.! FXAXAXZXxXrXxX^ h.a.n.g.2.p.Q XXM (.`.`.`.x.b.].].].].D.D.{.`.}.}.{.{.z.~ K.H.( q t ~ _.K.~ l.~ < 7 1.w.w.y.w.u.h.a.8.",
"9.p.n.g.^ FXAXAXCXrXrXxX_ e ; p p.w.a.0.d D.|.).).(.I.`._.K.H.K.]./.).`.`.`.`.).K.^./._.(.> i './.! l.v.e t 7 0.r.y.w.$.=.8.8.=.",
"5.3.3.9.Q ZXAXAXCXrXrXrX` K.I.D.i e p 5.- (.`.`.`.).`.(./ R T R / (.`.`.`.`.`.`.K.( Q c.{.! J.'.z.Q l.v.; = y 0.5.a.q.4 3 +.#.@.",
"w.w.-.7.; CXAXZXCXxX0XrXE ~ K.{. X/.x.; e `.`.`.`.`.`./ ` ] ..vX] x.{.).`.`.{./.R ] lX` J.x.J.I.Q l.l.~ ; 5 0.0.1.1.*.8 3 8 +.8 ",
":.:.,.3.$ xXAXCXZXzX0XrX_ Z ^ ! J.|.|.(./ x.`.`.`.|.J.` T O kX,XGXU.L.{.).).|.a ` ] kXDX( x.J.z.Q l.v.e 5 0.n.4.<.7 6 8 *.2.9 8 ",
"4 &.w.=.6 ] HXCXZXxX0XrX' Q v.l.M / ).|.{.D.D.`.`.{.F.`   O kXc VXDXK.{.).{.`.> ] ] l KXU.a / M l.v.z.; 0 i.H.<.7 & % 7 5.5.2.1.",
"$.t.s.w.9.! ZXCXCXcX0XrX' Q v.l.^ Z ! (.|.{.K./.`.).U.`   X   g vXKX].`.).(.P.o     c GXlXa O Q l.v.e 5 0 1.m.5.& # & <.1.1.5.5.",
"7.u.u.a.a.t cXZXCXcX0X0X' Q v.v.^ l.Z ! (.{.`.).).`.Y.:XX     c VXKX.X).~.~.bXbXT X W GXE.x.: l.v.~ ; $.8 7 4.e ; 6 0.<.9 0 9 <.",
"3.-.%.w.a.4.] AXCXNX0X0X>XQ b.v.l.^ l.M e ).`.).).`.I.lX;Xg c ,XKXJX).~.bXbXbXbXbXW VXDXI.(., l.k.- 1.*.-.*.; B.^ u u.$.*.*.7 0 ",
"2.*.$.w.r.3.e vXCXCXxX0X9XM b.m.v.l.l.Q n z.`.`.).).`.(.BXnXVXKXJX.XQ.bXbXbXbXbXbX .BX.X).|./ M , 7 1.*.q.0 Q mXN.p :.%.w.q.*.*.",
"9 2.-.7.1.*.% ] ZXCXcX9X0Xm > b.H.v.l.Q ^ k.K.{.).).`.).`. X.X.X).).P.bXbXbXbXbXbX .I.`.`.|.D.- 1.8 0 *.q.q N.mXM.0.-.t e u p.1.",
"= 2.2.5.*.8 & > vXCXcX0XrX` t , z.H.H.v.Q c.).`.).).).).).x.i L.{.).(.G.X.bXbXbX .( `.`.).|.x.5 3.*.1.q.u ^ mXmXQ 0 , N.wXe a.*.",
"% u 9 5.*.*.6 $ ] CXcXrX0X' y r.; , / ~ F.G.I.D./.`.).).`.D.X i I.`.|./.F... ...x.(.`.).).{.i $ *.3.3.u M wXmXM.o Q B.mXwXe y.1.",
"= 5 = 5.2.0.4.8 , cXcXxX0X9X< w.+.8 q } !...; - x.|.).).`.`.w . + i D./.`./.L.L.J.K.).).`.I.n f 5 *.7 , wXmXmX^ M.uXuXB.Z u y.3.",
"y = # 4.*.v.wX8 = ] CXxX0X9Xm q = =.u C.} t =.$.- I.|.).).`.D.@  .[ + + > e > e D./.`.).`.i z +X: $ : M.mXiXiXB.uXwXM.< y y.a.p.",
"y # = 0.k.jXSXB.6 , xXxX9X' G.r w w = = 5 w.-.7 - > I.|.).).`.(  .X.X.[ .     D.|.`.`.`.x.s D G d U @XwXiXiXiXuXwXM = 4.1.3.h.h.",
"7 7 9 5.k.aXSXv.& q ..U.G.Q.W.} W.W.w * 8 y : N H S n D.`.`.`.(.F.{  .X.@ o D.`.`.'./.! s f f O U sX1XwXiXiXwXwXuX^ Q ^ ^ t h.h.",
"6 1.#.*.t.v.B.a.q r W.!.W.C.| W.Q.!.} = 6 n XXOX#X2XOXb R D.(.|.'.K.F...F.I.|.'./.x.> s f h z.D.<XsX4XqXiXwXqXuXuXuXuXmXuX, s.u.",
"#.#.6 *.7.u.u.p } Z.| C.G.G.W.A.A.!.r 7 # N A ^ I +X&X*XOXf m / D.I.(././.I.D.! > d f +XG c.'.J.%XsX7X8XiXuXuXuXN.N.B.M.Z u w.7.",
"#.+.8 $.$.a.u.w Z.S.!.Q.!.!.A.A.A.{ ; $ w V.P.[.[.L.( U &X*XXXf d O > > o X s f D G G #XZ ^._.L.Y sX7X3X8XwXwXN., $ ; $ 8 ;.7.e.",
"#.-.-.=.-.u.y } Z.Z.W.W.Z.A.A.| w V : w } ! > e x.L.}.P.^ +X&X&XOXF s r } w D XXG G *XK k.^.).`.z.#X6X5X+XN m ; 8 o.%.-.e.e.7.t.",
"3.t.u.-.3.w.q | Z.Z.W.Z.| r w n 8XpXN.o s s R z.k.Q i J.[.I.M.U XXF r P..XV.N XX+X#XU ~ b.H././.J.M G U M = 2 =.%.3 4 7.s.s.:.=.",
"3.s.d.:.7.-.q C.A.Q.Z.} C Y V Y aXiXwXN +XK J.'.J.v.k.M e D.P.I.Y.z.r P.K.G.T OX+Xb O Q Q Q Q Q e n b h 7 $.+.-.w.8 2 +.=.w.7.+.",
"w.d.s.:.7.-.q Z.W.A.} V 8XpXM.' aXqXI U sX5X^ /./.b.v.M G G V Q / ~ O } C.{ N H N s f d d f d f f S @X+XV y w.8.w.+.8 4 +.=.=.*.",
"u.d.,.:.#.2.q Z.W.Z.w K qXwX' V M.K Y U 6XsX@XJ.'.m., D *X*X#X#X#X$X1XU I U 1X1X@Xd f z S S S S D f P +X@XP M t 5 0 &.&.$.$.-.w.",
"d.s.:.-.8 2.q C.A.Z.C b I M.M.M.N N <XY 4XsX%XD.K.M s S #X2XeXeXtXtXeXeXtXtXtX1XN d z z S S S S D S b #X$X$X$X+XK V ; 7 $.q.h.y.",
"h.w.$.$.8 ; d } A.Z.C D M.aXaXwXV b <XU 3X6XU i m f f o T K @X1X4XeXeX4X4X<XY m o f z S S S S H H H f P 2X$X$X$X2X2X@Xe 5 q.h.r.",
"t.$.8 8 $ P OXw Z.Z.T F V M.M.' I N K U 2X#Xd d z D s + r r r T T m T T T + + + o g f f S D D H H H D f @X$X$X$X$X$X1XH.q &.q.&.",
"3.3.r.5 K 2X$XH } Z.| N f I qXqXY N X b H f f D S d x J j w { } } w { | } + j ) -X-Xv g s S H H H L L S N $X$X$X$X$X%XK.i 3.-.*.",
"-.e.h.M $X$X$X#Xm } Z.} w m M.I D I r h S D L D h ) =X=X=X) ) c T c c T j c -X:X) ' M.M.n f L H H L L h $ K 2X$X$X$X%XK.i i.w.q.",
"o.&.w.K 3X$X$X3XP o r | | } r o ! P.Q.m F L L f x =X=X-X;X:X:X;X-X-X=X) =X:X;XE M.uXuXmXwXn f m , : > u $.$ U $X$X#X8XL.i a.q.-.",
"o.,.0 P *X$X$X@XN L S h m m o C.!.!.| h L L L f l =X-X;X;X;X;X;X-X-X-X-X:X;XE Y uXuXuXB.M.m ; 1.5.r.p.a.-.$.- @X$X#XN.P.q w.w.$.",
"&.w.0 K 2X$X$XN : n S L F F S w } { m D L L S f X v :X:X;X;X;X;X;X;X;X:X;X) A j.qXuX' K P U V 5 8 q , > ; =.8 n #X%XL.D.< -.w.-.",
"&.$.1 V 2X$X+X; +.$.5 : L L L D f f D L L N f H d h ) ;X:X:X;X;X:X:X:X-Xc h V V 8X' P $X%X@X@Xn > _ ` _ B - 3 5 K b.P.i 9 8 :.s.",
"o.4 4 : $X3XV 0 4 +.%.7 n P L L L L L H f d P H A 8XI B ) -X;X;X;X-X) l x J k - C P %X%XU J N N ` ` E h k O 6 7.q L.a p 5.o.&.d.",
"%.-.$.$ U $X, -.$.4 +.$.1 n H L L H f , o N P V M.8X8XM.Y C o m m > O l l > u =.h %X%XK B E k _ ` E h k l h y t.y w p h.3.-.:.,.",
"%.:.$.* : U t w.+.3 +.=.4 2 ; > : , 4.t j H oXH j.8X8X8XqXZ 4.p.<.5.4.t * +.-.r.N %XU k ` _ _ ` _ j k k l h u a.p.p m.2.6 3.e.$.",
"+.%.+.4 y O < $.2 2 2 $.8 2 =.3.3.7.2.k E N P P V j.8XM.C 0.f.t.3.w.-.+.3 $.%.w.C +Xn E _ _ ` _ k k k k B > u.f.w.f.h.5.*.+.-.O.",
"@.%.%.7.9.y y 9 * 6 & 6 2 2 7.3.u.7.; E E k H oXP H H H - e.e.:.,.e.%.$.$.:.:.%.t H k E _ ` _ B h k k l k y u.w.7.w.p.p.u.+.o.O.",
"%.%.;.t.a.=.8 8 7 <.9 9 2 8 3.=.r.*.> E B k h H P oXP n 9 &.e.e.s.,.;.:.-.e.u.:.:., O B _ _ E h k k l k - :.7.7.3.$.$.r.a.w.$.O.",
"-.;.;.;.w.-.+.8 2.0.0.u 6 *.r.r.3.5 k E B k h O h n , 1.-.-.t.e.7.+.$.:.%.=.t.w.-.-.; B E E j h k k k ; 4 $.-.7.-.+.=.h.n.n.y.w.",
"%.e.;.,.:.%.+.2.9.4.<.4.r.r.p.r.7 = k E E E B k O 0 f.t.=.=.3.w.t.+.+.-.+.$.w.7.$.$.5 k E k k B k h < +.3 $.=.3.w.a.h.a.r.r.u.d.",
"8 y.;.;.:.%.$.*.2.2.<.<.r.3.r.3.& 5 h _ ` ` _ E B t f.w.=.$.$.7.t.-.=.=.$.7.u.7.=.3.6 o l k B B k ; 4 2 3 =.-.-.u.h.h.6 * *.w.w.",
"*.q.>.-.;.-.$.8 *.2.#.9 8 7 3.r.4.i.m B ` ` ` E B R E.R.Y.Y.Y.Y.Y.Y.Y.H.b.H.J.n.h.a.6 & O h h O $ * & 2 3 =.7.3.u.f.f.8 * *.-.w.",
"5.*.>.>.w.:.o.$.3.3.8 3 7 H.MXBXBXJXlXB k B B k h kXJXDXDXDXDXDXDXDXDXDXDXDXDXDXBXBXlXE.U.z.p 2.8 * * 6 8 =.=.-.t.a.w.=.2 8 &.>.",
"2.*.w.s.h.e.%.7.w.:.4 2 *.c.Y.E.lXlXBXlX] ] ] kXvXJXJXJXGXGXJXJXJXJXJXJXJXJXJXKXKXKXKXKXGXDXBXH.6 & 7 *.8 +.$.7.u.t.w.u.3.&.q.d.",
"7.7.e.e.w.-.:.e.:.;.4 $.q.0 1.r.h.a.3.4.0.0.c.b.b.b.Y.R.R.Y.T.R.R.R.R.E.R.R.R.R.T.Y.b.b.n.n.a.*.& % 7 <.*.@.+.3.u.w.a.h.r.3.q.w.",
"8.=.%.+.o.%.-.=.&.%.O.-.q.& 6 &.y.a.0 6 7 * 7 % % * 7 5.*.+.=.t.$.3 $.=.$.+.=.=.-.t.+.=.t.u.w.8 & & <.<.1.-.*.5.a.r.h.a.h.h.*.8 ",
"p.*.8 2 4 +.4 +.w.;.;.,.$.& 9 3.-.-.4 2 <.9 u # = = 6 9 +.=.w.u.$.4 $.+.#.#.2.3 +.e.-.8.f.h.h.r.#.8 <.r.y.r.n.g.q.1.i.0 q.q.1 1 "
};
