/* XPM */
static char *b310463ef8964333eb2d9d00a12da12fOn1cKhXrXjOhqcKc[] = {
/* columns rows colors chars-per-pixel */
"64 65 255 2 ",
"   c #0B3302",
".  c #023805",
"X  c #293C0A",
"o  c #571114",
"O  c #6A1518",
"+  c #751C1A",
"@  c #573E0B",
"#  c #4B3210",
"$  c #701F22",
"%  c #6C2926",
"&  c #184D11",
"*  c #2B4A0B",
"=  c #36480B",
"-  c #29580B",
";  c #35590B",
":  c #285B13",
">  c #315C13",
",  c #2C630D",
"<  c #2A670D",
"1  c #33650D",
"2  c #366909",
"3  c #3C6D0B",
"4  c #2F730F",
"5  c #3D730B",
"6  c #38760B",
"7  c #2D6313",
"8  c #296513",
"9  c #346513",
"0  c #346B12",
"q  c #3B6D13",
"w  c #386818",
"e  c #3B6D1A",
"r  c #3C7214",
"t  c #3A7615",
"y  c #3D721B",
"u  c #0C532C",
"i  c #2D562C",
"p  c #196B2D",
"a  c #376C29",
"s  c #48490C",
"d  c #57470D",
"f  c #5C420B",
"g  c #59550D",
"h  c #5A4813",
"j  c #4A5710",
"k  c #62440C",
"l  c #664D0C",
"z  c #78550C",
"x  c #744E10",
"c  c #665416",
"v  c #42680D",
"b  c #43750D",
"n  c #49750C",
"m  c #457A0D",
"M  c #4A7C0C",
"N  c #446D17",
"B  c #566E10",
"V  c #437413",
"C  c #4A7614",
"Z  c #457A12",
"A  c #4B7C14",
"S  c #43741A",
"D  c #4A751C",
"F  c #467A1B",
"G  c #4C7C1B",
"H  c #567A14",
"J  c #527E1B",
"K  c #6D7512",
"L  c #4E572B",
"P  c #4A7824",
"I  c #527D25",
"U  c #51703B",
"Y  c #687121",
"T  c #08534F",
"R  c #03555B",
"E  c #325947",
"W  c #0A6E4D",
"Q  c #156F5E",
"!  c #004767",
"~  c #025769",
"^  c #015B7B",
"/  c #547546",
"(  c #637D4A",
")  c #942B18",
"_  c #AC341C",
"`  c #C03A22",
"'  c #85570C",
"]  c #8D5D0B",
"[  c #965E06",
"{  c #935D0B",
"}  c #8A4F13",
"|  c #B95A03",
" . c #AA4B10",
".. c #91780D",
"X. c #B17308",
"o. c #CA4E13",
"O. c #C86302",
"+. c #D46903",
"@. c #CB790A",
"#. c #E96C05",
"$. c #EB7907",
"%. c #F47B07",
"&. c #DB4C23",
"*. c #E75025",
"=. c #915C4B",
"-. c #3B8710",
";. c #359036",
":. c #4D820D",
">. c #48870C",
",. c #53880E",
"<. c #57970D",
"1. c #4D8214",
"2. c #4C8815",
"3. c #4E831A",
"4. c #528514",
"5. c #548B15",
"6. c #5A8B15",
"7. c #53851B",
"8. c #5B8518",
"9. c #558B1B",
"0. c #5A8D1C",
"q. c #4B9810",
"w. c #5B9114",
"e. c #579618",
"r. c #5C921C",
"t. c #66980D",
"y. c #648916",
"u. c #728A15",
"i. c #649312",
"p. c #6C9A12",
"a. c #61951D",
"s. c #669819",
"d. c #749915",
"f. c #52A112",
"g. c #67A50D",
"h. c #78A709",
"j. c #74A313",
"k. c #78A715",
"l. c #7CAB13",
"z. c #78AD10",
"x. c #7DB312",
"c. c #4C8125",
"v. c #548422",
"b. c #598522",
"n. c #558A23",
"m. c #5B8C23",
"M. c #56862B",
"N. c #5B8C2A",
"B. c #449726",
"V. c #5D9223",
"C. c #5C9626",
"Z. c #5E9924",
"A. c #5E912A",
"S. c #5C8B31",
"D. c #5F9131",
"F. c #628E24",
"G. c #628D2B",
"H. c #6A8829",
"J. c #629524",
"K. c #649A24",
"L. c #63942C",
"P. c #6E912F",
"I. c #659B2B",
"U. c #6A9928",
"Y. c #6A9C2C",
"T. c #649432",
"R. c #6A9533",
"E. c #669B32",
"W. c #6B9C33",
"Q. c #6B9C39",
"!. c #739A39",
"~. c #68A129",
"^. c #6CA22C",
"/. c #72A42B",
"(. c #67A332",
"). c #6DA333",
"_. c #6DA23A",
"`. c #72A434",
"'. c #73A43B",
"]. c #75A939",
"[. c #77B13A",
"{. c #0F8357",
"}. c #3DA857",
"|. c #098869",
" X c #0A9072",
".X c #0C987A",
"XX c #119A78",
"oX c #73874F",
"OX c #4BAA4A",
"+X c #7AAA44",
"@X c #7CB243",
"#X c #918F15",
"$X c #B2910D",
"%X c #88B80A",
"&X c #91AE13",
"*X c #87B513",
"=X c #8CBB13",
"-X c #93BE13",
";X c #9DBA14",
":X c #B7AC19",
">X c #ADB114",
",X c #969323",
"<X c #91AA2B",
"1X c #A8B72F",
"2X c #D08A08",
"3X c #DE980A",
"4X c #EA8F09",
"5X c #F68209",
"6X c #EA9B06",
"7X c #D0B117",
"8X c #EEA401",
"9X c #EEA90E",
"0X c #F2AC04",
"qX c #F6A80A",
"wX c #EDB50E",
"eX c #FBB608",
"rX c #E9A815",
"tX c #E8B618",
"yX c #F9B714",
"uX c #FE9A23",
"iX c #F6B12A",
"pX c #9AC70E",
"aX c #96C211",
"sX c #93C710",
"dX c #9AC411",
"fX c #9DC912",
"gX c #98C914",
"hX c #A2CA0C",
"jX c #A2CD12",
"kX c #A5CF1F",
"lX c #A8D314",
"zX c #B2D231",
"xX c #D9C21C",
"cX c #FDC415",
"vX c #FBCD13",
"bX c #FCC818",
"nX c #F9C421",
"mX c #869755",
"MX c #8DB355",
"NX c #979E6B",
"BX c #ACAF75",
"VX c #C49975",
"CX c #BEC564",
"ZX c #005D87",
"AX c #005A90",
"SX c #0A6387",
"DX c #13A684",
"FX c #B4AF83",
"GX c #C8BA8D",
"HX c #CFC591",
"JX c #E5C699",
"KX c #ECD7A6",
"LX c #FAE7AF",
"PX c #FFEBB4",
"IX c #FFF6C2",
/* pixels */
"J.9.5.5.9.1.n.J.J.A.V.V.E.N.n.L.L.).^.).I.2.3.).W.C.I.I.~.Z.V.0.>.w.K.^.^.I.Z.E.E._.V.9.9.n.n.9.V.Z.r.e.4.5.:.5.K.,.M 4.:.,.9.W.",
"I.m.9.V.E.v.n.E.'._.L.n.A._.m.J.r.J.a.K.).I.I.E.C.I.).(.~.K.I.Z.2.r.~.^.).I.C.I.V.n.9.1.V c.n.9.9.2.e.e.6.w.5.6.5.M b b 1.4.1.L.",
"J.9.7.I.@XW.J.).].+X+X).I.W.V.J.J.a.a.r.).(.Z.I.Z.).(.(.Z.r.Z.K.r.Z.C.9.V.9.9.(.V.1.V.1.F n.N.9.1.2.e.5.6.5.r.w.,.m 2 3 I.r.m A ",
"J.V.A 9.).Y.Y.).K.`.<X].`.Y.9.J.U.a.^.K.).(.C.].).I.Z.C.9.2.r.K.Z.Z.5.m 2.2.9.I.Z.V.(.C.3.n.m.3.y.&X~.0.6.9.K.r.5.5 2 V J.0.5 3 ",
"J.).V.9.r.K.`.`.<X7XbXnX,XI.5.V.r.1.K.).).(.I.@X].V.9.2.9.9.Z.~.Z.K.5.1.2.9.9.9.C.Z.(.I.9.n.9.#XbXbXtX:X/.I.V.w.5.4.7.0.I.K.7.n.",
"0.).@X`.J.Y.[.1XyXqXeXvXrXu.1.4.1.5 7.I.Z.I.I.(.(.I.n.9.C.Z.~.^.Z.Z.2.2.2.9.9.9.Z.Z.).Z.9.n.y.rXvX8X8XyXtX<X9.6.r.a.J.J.^.^.).'.",
"4.V.MX@XJ.W.1XyX6X8X0XbXrX..7.1.b , 1 3.9.C.Z.I.I.I.V.9.9.K.~.Z.5.5.0.2.1.>.>.V.I.I.(.Z.9.9.K rXbX0X8X6XqXtXa.r./.K.K.Y.r.J.W.L.",
"4.1.[.W.m.`.tXqX8X8XeXbX3X#X3.V V 0 - 0 3.9.9.I.C.m.F 0 0 q r 3 1 < 0 r 1.m m 9.V.V.C.I.I.9.H @.iXbX8X8X8XeX:XU./.s.a.a.:.4.m.v.",
"7.A L.m.G ,XyX6X8X0XbX9XX.F.V 9 D P * 9 N.V.A.T.w q 6.l.=XaXfXfXaX=Xk.4.0 : N 7.7.A N.).).0.b ..3XnXcX0X8XeXtX/.K.6.J.9.b v.N.G ",
"7.7.N.N.I 7XyX8X0XcXwX2X,Xb.D D I N - w v.n.e r j.fXlXlXjXfXdXdXfXfXjXjXgXl.V e v.A F.W.W.N.A H ..2XtXbXcXvXtXK.6.0.I.m.c.c.S.M.",
"n.n.n.N.S.:XvXcXbX9X2X#XMXR.N N S ; w D S : w.gXlX=XA : A -XfXdXdXdXdXdXfXp.V 7 e N.F.m.L.N.J 7.L.,X@.6XqX9X,Xr.6.J._.A.V V M.D.",
"m.L.N.R.R.P.tXyX6X@.,XQ.'.R.v.D S N I P : z.jXjX*X& & q q d.fXdXdXdXdXfX*XV Z V 7 e N.7.m.N.b.b.n.Q.y...X.#XI.J.a.K.I.n.F M.T.T.",
"L.W.L.L.T.G.H.....P.N.N.m.v.m.A.A.S.P : z.fXdXaX1 A -XjXfXaXdXdXdXdXdXdXaXdXlXfXl.N I L.m.N.N.P e e H J v.J.).r.K.I.1.N.N.N.N.G ",
"R.Q.L.7.N.G.N.7.C C J L.m.V.W._._.Q.8 <.aXpXdXk.i.jXjXpXfXjXdXdXdXdXdXdXdXfXh.h.jX*X9 R.m.N 7 A j.1.I b.A 9.Y.0.0.9.1.E.N.M.v.Z ",
"E.W.A.G N I P v 2 v b.W.I.Z.(.E.A.c.4 x.fXdXdX-XdXpXp.A A i.-XfXdXdXdXdXfXi.U oXG aXA D : Z =XgXdXA S.N.G A J.0.r.0.V.E.N.N.A.n.",
"N.A.Q.9 4.1.A M q 9 w y N.Z.Z.E.n.8 q.=XdXdXdXdXfX,.oXGXHXNXb.%XfXdXdXfX%XmXPXIXFX8.w.& p.lX*X..;Xr C C Z A 9.5.J.I.).Q.Q._._.W.",
"N.D.+Xy gX;X&X*X=XsX*Xi.Z w y _._., g.aXdXaXaXfXt.oXPXPXPXLXGXd.pXdXdXpX/.oX( HXPXmX:.i.lX=XK @.&Xe V 9 w I D b.J.J.U.J.I._.E.C.",
"D.T.+XP w.>X@.[ z K k.gXlX=Xp.r w , g.aXdXaXdXaXI JXPXKX( & oXNX-XfXgXfXi.. ( ( KXHXA i.lXH | 6Xp.w I N N #Xy.M.G.R.U.4.9.Z.C.9.",
"N.m.m.A.7 =X3X%.$.| ' B j.fXlXgXi.: <.dXdXdXdX%XoXPXPXNX. i NXoXaX;X$XX.X.x L & BXLXy.i.k.z #.3X4.N S.M.u.wXu.S.N.R.F.M m 1.3.2.",
"J.J.0.V.e 2.:X%.%.%.$.O.z H =XfXjX*XV *XfXdXdX%XoXPXPX/ . & U q ;XX.#.5XiXuX|   BXLXd.4.B | $.7Xt b.R.N.H H S.D.M.b.7.A b A 1.A ",
"r.r.r.0.3.7 *X4X%.5X5X$.+.[ B l.fXjX*Xs.dXdXdX%XP.LXPX( . & . 2 $X$.5X5XiXuX%.{ KXBXk.1.g +.$.&Xe Q.'.G.G M.+XM.v.C n A 7.n.G A ",
"M 6.J.9.A S >.7X%.%.5X$.O.+.| g l.fXdX=XaXdXdXpX8.FXIXFX. . . i.@.%.5X%.%.%.5X@.CX=XdXaXH | 6Xi.c.].v.S J R.MXb.S - ; C N.N.m.v.",
"4.I.^.J.A.E.w l.3X%.%.$.O.O.+. .g *XfXpXaXdXdXdXp.F.CXLXBXU s.-XX.%.5X5X5X5X#.X.sXhXdXfXk.] :X0 !.N.A i.9 b.+XI 1 w., v.b.b.N.N.",
"V.Y.Y.W.W.Y.W.0 ;X4X%.%.+.O.O.|  .B aXdXaXaXdXaXdXpXpXkXzXkXfXfX#XO.#.#.#.#.| &X*X6.*XfX=XH A F Y.G i.lXb C P V -XlXq b.G J G b.",
"m.0.9.J.E.L.W.P Z >X4X%.$.+.O.| | } u.fXaXdXaXdXdX*Xy.8.p.%XpXpXaX..| | | X.&XsXC V =XfXdXq w L.F.J n lXA : A gXfX4.P 4.7.v.C J ",
"n.7.4.J.L.N.7.L.P 1.>X4X%.$.+.O.| | ] -XfXaXdXdXdXj.# =.BX!.s.h.%X%Xh.h.h.h.j.P.# d.jXdXdXN L.L.b.N 4.jXj.4.fX=X0 e r 5 V G.7.7.",
"G m.0.V.b.J b J G.e t ;X3X5X%.$.+.O...j.=XdXaXaXdXgXh $ VXGXHXNXmX!.P.R.!.mXFXVX# l.pXdX-Xe R.L.b.> j.fXdXp.dX*Xq i.=XlXV G.R.b.",
"q M.n.N.7.H 2 3 3 N.S < p.>X2X2X2X#Xg.<.g.aXdXaXdXfXB o O % VXLXJXJXLXKXJXJX=.$ # =XdXjXp.N N.J 0 9 *XfXaXj.aXdXk.gX*Xp.q G.E.7.",
"1 I G N.y.7X$XH 3 b.b.b - < 6 ,.q.q.>.< >.x.dXaXaXpXd.o O o o % % =.VX=.% % o o j gXpXgXq v 7 5 j.-X=XdX=X*XaXfX4.: r F b.G.L.b.",
"e S 0 M.N.>XvX#XC A C 3 2 A S 0 , , 7 e < g.=XfXaXdXaXj + ) ) ) + o o o o O O # p.jXjX6.& b k.fXjXdXdXdX-XaXaXjXl.Z q c.v.R.L.N.",
"P 9 > M.J A y.y.H J 3 1 1 A 0.9.1.9.9.9.0 < g.aXdXaXfXl.h _ &.&.o.) ) _ + O o B fXjXp., j.jXfXdXaXaXdXaXfXfXfXl.=XlX=X9 b.L.R.R.",
"P > 9 S.b 3 7.7.N N.w *Xx.9 A m 9.0.A m 1.y , <.=XfXdXfXj.h  .&.&.&.&.*.` o j aXjXp.< <.aXdXaXaXaXfXaXt.,.w.m 9 1 M A y v.n.!.'.",
"F F F N.7.Z L.v.1 N.y j.jXZ , 1.n.n.Z 5 A n.F - 6 h.pXjXjXx.H x  . . . .x y.fXdX4.< q.z.dXdXdXfXdX*X>., q F A w.a.7.7.V.J.J.'.'.",
"Z v.3.7.I.1.r V q r < 1 -XfXi., q 9 7 7 , 8 p u u u 5 p.%XjXjX*Xd.d.d.d.*X=Xi.: 8 <.<.=XfXdXaX*X<., 0 4.a.K.w.w.a.^.~.K.a.Y.^.Y.",
"3.3.Z 7.V.S s.lXdX=X*Xi.k.jXjXi.Z i.p.l.%Xx.OXXXXX|.W u i e 8.p.j.j.i.6.A 8 u ! u ,.g.%Xx.g.>., < 7.r.r.a.r.0.0.w.K.K.w.4.J.J.V.",
"3.1.A 7.4.N.r i.p.i.-X=Xj.pXdX-X=XjXjXpXfXpXfX}..XXXXXT ! ! u 4 5 6 6 m >.W T ^ ~ 0 <.>.4 < 1 n 4.r.K.r.0.5.r.a.0.6.6.4.4.0.V.J.",
"3.0.0.9.9.I.J.q - - j.fXk.*XdXdXdXaXaXaXaXaXhX(..XXXXX{.R ZXR p ;.B.B.;.{. XW ~ ZXu 1 q b.y.M M M 5.I.K.r.y.>X:Xd.:.5.0.K.K.V.I.",
"m.I.Y.0.V.V.q Z d.aXk.dXdX-XaXdXdXfXfXfXfXfXhX(..X.XXX XT ZX^ W  X X X X.X.X{.R SXT D 8.8.y.4.8.4.M r.J.0.7XvXyXwX#XM V.^.^.r.9.",
"m.^./.r.V.G V lXjXj.q *XfXfXjXl.t.*X*Xx.z.z.g.;.{.W |.XXW ZXAXR  X.X.X.X.X.X|.i 7X7XH H H F.a.U.U.5.:.5.K tXcX6X6XyX#X1.9.J.V.1.",
"J.`.^.r.V.7.0 5.Z & 1 gX*Xl.i.7 8 0 < , - : : : - u  XDXQ Q oXU |. X|.W W W T Y eXeX#XG 8.U.U.U.U.6.:.r.#XrXbX8X8X6XyXu.1.6.9.7.",
"Y./.s.r.3.m.A 3 A , =XgX1 , y n.n.7.v.C I T.M.c.q u W |.W $XeX0Xa R R ~ ~ ^ ^ E 0XcX#Xw 0.U.U.0.6.0.6.U.u.2XnXeX8X8XqX7X4.4.0.J.",
"`.^.r.0.A n.7.m v.V gXb 3 m Y.).J.N.N.7.L.Q.T.S.: T R ~ E 0X0XeX/ AXZXZX^ ~ T i K ..j s g j C 6.J.`.U.a.M ..6XbXeX8X8XtX8.F.].Y.",
"].J.4.4.A n.W.0.L.F y n.0.4.Y.`.W.L.A.G n.T.M.M.: T ~ ^ R ..eX2Xi E L L c z ' { x h z ] g = * 9.`.A.q > 5 y.X.6XcXeXeXtX8.F.`.L.",
"I.7.A A b 7.+X).Y.K.[.[.Y.r.J.).m.7.3.Z 3.P q M.w s g c c h c c ' [ [ [ [ { { { ] { { j >.w.- G F s c d * 4.d.X.6XyXbX:X8.7.F.7.",
"m.m.L.7.1.J.[.).U.^.[./.K.5.J.I.m b A.P * s = y w l ' [ [ ' ' ] { ] ] ] ] ] ] ] ] { g >.aXlXw.- s ' @ @ d 3 r.U.#X$X#Xn 8.F.0.4.",
"0.I.].Y.V.I.`.K.&X7XxX&Xr.5.0.1.5 A N.= f k f * & l ' ] ] ] { ] ] ] ] ] ] ] ] ] { z 5 x.fXfXl.* z k @ f d 1 5.U.`.b.H v C `.J.F.",
":.6.U.^.V.V./.7XyXqXbXcXu.r.0.m 3.V.> d f f v 4 s x ] ] ] ] ] ] ] ] ] ] ] ' z ' { g q.aXdXfX6.h x @ f f s 2 4.Q.G.N D v N !.F.0.",
":.a.s.a.0.s.tXeX6X6XeXbX..J.J.1.J.c.s k @ j q.6 d ' ] ] ] ] ] ] ] ] ] ' ' x l z ' * 6 =XfXaXj x k @ f f = Z 7.N.M.N N P J L.J.4.",
"6.J.6.4.a.:XyX6X8X0XcXrX..a.K.a.K.> d f @ v q.-.= ] ] ] ] ] ] ' x x l g s s l x l # X p.fXH h } @ f f d - 9.4.7.n.v.b.R.v.0.J.0.",
"6.4.M 4.d.tX6X8X8XyXyX2Xy.w.a.^.r.= k f @ = q.q.4 g { { ] ] { l * > - , y y 9 s d s X 4 y.l } k @ f k = 5 ,.m 7.V.L.E._.7.M r.^.",
":.M M :.u.cXqX0XyXyX3X..:.5.r.K.V s k f f = 4 <.f.4 s z { { x * F N.Z G A.n.L.F - - S , j } z @ @ @ d - 4.:.1.V.J.m._.+XN.1.6./.",
"5.0.4.b n tXbXyX9X2X..4.M 5.w.r.r s k f k = : 6 <.f.-.1 s s - r V n.n.3.9.1.m.m.A 9.m.0 s } f @ f f * 2.9.A J.I.J.E.+X'.m.m.r.a.",
"5.r.4.5 A u.2X2XX.K 1.7.M M 4.r.A = k k s q 7.0 < 6 -.8 y N.L.E.n.N.A.3.b 1.0.).9.7.V.A s x @ f f = F K.K.&X:XW.Y.+X+Xn.V m.K.4.",
"1.6.1.m 9.m.7.y.5 b b 7.M b 9.0.V.q = = q V.m m Z 0 y A.Y.`.).I.V.J.0.1.m 4.5.J.C.V.J.7.* d @ d = 0 J.V.J.>X<X).J.).'.N.7.1.0.,.",
"5.5.5.V.A.m.7.G 5 V 2 Z b b V.m.I.V.A 3.m.J.A b A 1.0.V.0.K.K.r.a.K.5.,.4.r.r.9.r.K.J.r.6 * = * 1 3.V.N.J.K.Y.J.V.J.R.E.I.1.:.,.",
"5.5.e.I.E.9.A A Z v.F G b A m.9.L.m.7.A 1.V.J.A m M 4.5.5.6.K.U.~.a.r.r.0.K.Y.r.V.K.0.5.Z G r Z b A A.A.0.r.r.V.m.7.7.L.W.J.4.,.",
"0.e.e.e.J.0.1.A n.D.S.I V 7.L.L.N.A b.H 4.I.].0.1.9.V.J.0.0.I.K.V.1.4.V.5.9.I.J.9.0.1.b r F v.C 3 m J.V.M 7.0.V.0.1.9.'.+X+XU.J.",
"9.K.e.s.r.5.1.n.D.v.c.M.T.L.R.L.C b J N.7.J.Y.7.7.V.).I.9.9.m.J.I.1.1.0.1.7.J.V.1.4.1.5 V V F 3 3 A 0.1.m 7.9.m.J.W.'.W.L.L.Y./.",
"A U.w.w.r.5.4.7.m.M.c.v.L.N.L.N.2 C J L.L.W.I.9.1.V.).J.9.7.4.V.I.0.9.9.7.V.I.V.7.m.A 5 Z V 3 3 b m M b m 9.0.0.I.].'.Z 3 7.J.J.",
"7.F.a.0.w.0.4.A 7.m.3.G A C N.b.C A 7.N.L.W.A.3.3.L._.I.V.9.4.V.V.V.J.7.1.J.'.Y.J.J.V A A A b Z Z 5 2 b m 9.V.m.Y.).).A 3 7.0.J.",
"N.7.a.a.J.r.:.4.m.m.A m C J G.N.L.b.G.J A N.N.7.3 G A.E.J.7.0.J.0.9.J.7.M m.W.I.Y.I.A A A 7.7.n.A 5 5 Z A 9.9.m.I.W.J.9.b A 8.a.",
"m.7.J.^.].K.5.V.J.0.M b 7.G.Q.R.!.L.n.A V A v.7.3 3 7.Q.I.9.9.V.7.4.4.1.m 9.0.0.I.I.1.M M m.L.V.V 2 G v.A 1.4.V.I.I.J.Y.N.7.F./.",
"V.V.K.K.J.0.r.K.r.w.:.:.F.J N.L.'.Q.N.7.C 3 F C 3 3 G Q.V.1.1.0.A M 1.9.4.9.9.9.J.I.A 1.V.I.I.1.3 - F v.7.2.1.m.I.J.).'.L.m.F.J.",
"C.9.5.1.:.5.0.9.6.6.,.0.N.3 Z 7.E.W.J V F q S , 1 q F A.7.1.9.I.7.m 4.9.7.1.9.9.0.I.1.9.I.Y.J.A 2 3 v.v.n.0.7.N.L.L.'.`.'.!.8.H ",
"T.7.A b M 1.M 1.J.w.w.a.4.2 G m.0.0.M b v.F I > 9 q V G 1.9.J.Y.7.M 4.1.3.3.n.Z 1.K.0.Z.).'._.L.3.A v.T.R.R.+X!.G.b.R.J G.G.n n "
};
