/* XPM */
static char *d6132de228fa41c1c87985e582571fabD45I6uUDdpDkjlsT[] = {
/* columns rows colors chars-per-pixel */
"64 65 254 2 ",
"   c #0F1113",
".  c #0B1919",
"X  c #161715",
"o  c #2D1813",
"O  c #0A2614",
"+  c #132E12",
"@  c #153916",
"#  c #2A240B",
"$  c #362B0C",
"%  c #243808",
"&  c #2F2E15",
"*  c #090C2C",
"=  c #081527",
"-  c #041B25",
";  c #0B1C25",
":  c #041C2C",
">  c #0B1C2B",
",  c #14182B",
"<  c #021D32",
"1  c #0B1B33",
"2  c #181A39",
"3  c #221E2E",
"4  c #072726",
"5  c #03232C",
"6  c #0C222C",
"7  c #152528",
"8  c #14342C",
"9  c #042334",
"0  c #082736",
"q  c #04243B",
"w  c #09263B",
"e  c #042B3B",
"r  c #152736",
"t  c #093737",
"y  c #193837",
"u  c #263827",
"i  c #272F31",
"p  c #483509",
"a  c #4E390E",
"s  c #5D2920",
"d  c #413725",
"f  c #1D4A11",
"g  c #1B4819",
"h  c #25490B",
"j  c #2B560C",
"k  c #274A15",
"l  c #2A5815",
"z  c #355111",
"x  c #365A17",
"c  c #18641D",
"v  c #386809",
"b  c #38720D",
"n  c #296617",
"m  c #386816",
"M  c #397717",
"N  c #134936",
"B  c #1B5739",
"V  c #28462A",
"C  c #275829",
"Z  c #375827",
"A  c #254937",
"S  c #325031",
"D  c #1A642D",
"F  c #396725",
"G  c #316D2D",
"H  c #514D12",
"J  c #66450A",
"K  c #744F0D",
"L  c #476B0D",
"P  c #42750C",
"I  c #48750F",
"U  c #467A0D",
"Y  c #497D0C",
"T  c #446A18",
"R  c #437314",
"E  c #467717",
"W  c #4B7C14",
"Q  c #4C7C1B",
"!  c #537B18",
"~  c #666215",
"^  c #4A4F2C",
"/  c #75512E",
"(  c #446828",
")  c #497726",
"_  c #527B26",
"`  c #4C6E34",
"'  c #48793A",
"]  c #717326",
"[  c #1E1E42",
"{  c #231D45",
"}  c #042A43",
"|  c #082A44",
" . c #053549",
".. c #183249",
"X. c #063753",
"o. c #053C5B",
"O. c #252348",
"+. c #32344B",
"@. c #352859",
"#. c #522F6D",
"$. c #124E4B",
"%. c #054559",
"&. c #284B55",
"*. c #2E5352",
"=. c #166751",
"-. c #33704F",
";. c #054867",
":. c #06536A",
">. c #13516D",
",. c #064B75",
"<. c #065777",
"1. c #325B65",
"2. c #08657A",
"3. c #176A70",
"4. c #2F6F6F",
"5. c #545851",
"6. c #4A7748",
"7. c #585D66",
"8. c #48656C",
"9. c #4C6D71",
"0. c #5A7578",
"q. c #6D7474",
"w. c #87580E",
"e. c #956A15",
"r. c #A97115",
"t. c #884B3C",
"y. c #96712A",
"u. c #A9694E",
"i. c #CE675B",
"p. c #ED786F",
"a. c #378227",
"s. c #4D820D",
"d. c #51860E",
"f. c #4D8214",
"g. c #4D831B",
"h. c #498819",
"j. c #528514",
"k. c #558B15",
"l. c #5A8917",
"z. c #53851B",
"x. c #558A1B",
"c. c #598D1D",
"v. c #4B911E",
"b. c #599519",
"n. c #5C931C",
"m. c #688E1C",
"M. c #61951D",
"N. c #669A1D",
"B. c #70A51E",
"V. c #4C842D",
"C. c #548422",
"Z. c #5A8523",
"A. c #558A23",
"S. c #5B8C23",
"D. c #55852C",
"F. c #5C8C2A",
"G. c #5D9223",
"H. c #5D9825",
"J. c #5E922B",
"K. c #598934",
"L. c #5E9337",
"P. c #628D27",
"I. c #629524",
"U. c #649A24",
"Y. c #6A9B25",
"T. c #63942C",
"R. c #659B2B",
"E. c #699C2C",
"W. c #649433",
"Q. c #699532",
"!. c #689435",
"~. c #669B32",
"^. c #6B9D33",
"/. c #689A3B",
"(. c #6BA229",
"). c #73A728",
"_. c #7CB325",
"`. c #6DA334",
"'. c #6AA238",
"]. c #74A837",
"[. c #72A53B",
"{. c #7CB13D",
"}. c #358350",
"|. c #348770",
" X c #4C8548",
".X c #699A49",
"XX c #78AA44",
"oX c #7CB345",
"OX c #71A354",
"+X c #6C986E",
"@X c #54A16A",
"#X c #6CC177",
"$X c #A29F22",
"%X c #87B727",
"&X c #90B82E",
"*X c #D29924",
"=X c #98C429",
"-X c #98C433",
";X c #A5CA2C",
":X c #A8CC33",
">X c #B2CF34",
",X c #B8D537",
"<X c #C3DC3D",
"1X c #CDE13E",
"2X c #88B04C",
"3X c #88AE6F",
"4X c #B2B97A",
"5X c #CB9A50",
"6X c #EF8871",
"7X c #ADC947",
"8X c #A1CE5E",
"9X c #C6DD40",
"0X c #CCE148",
"qX c #085885",
"wX c #09598E",
"eX c #086888",
"rX c #0B7899",
"tX c #107390",
"yX c #276C8A",
"uX c #0D79A4",
"iX c #627482",
"pX c #90659B",
"aX c #128396",
"sX c #0B86A8",
"dX c #1587A9",
"fX c #118FB1",
"gX c #1796B8",
"hX c #2495B0",
"jX c #2EA1A6",
"kX c #748D8A",
"lX c #61AA8D",
"zX c #46C1B3",
"xX c #199EC3",
"cX c #0BA2C2",
"vX c #1CA6C6",
"bX c #2CB1CE",
"nX c #2BB8D4",
"mX c #38C4DB",
"MX c #3FCDE3",
"NX c #4BCADB",
"BX c #5FDBE7",
"VX c #64DCE7",
"CX c #8E9596",
"ZX c #B2B690",
"AX c #9EA1A7",
"SX c #8FAFB2",
"DX c #FC998A",
"FX c #AECFAE",
"GX c #A1BEC6",
"HX c #B8D0CF",
"JX c #A5DCDF",
"KX c #CDD8D4",
"LX c #D7EBED",
"PX c #EEF8F7",
/* pixels */
"I.x.k.k.x.f.A.I.I.J.G.G.~.F.A.T.T.`.`.`.R.f.g.`.~.H.R.E.R.I.H.b.s.b.U.E.(.R.H.~.~.`.G.c.x.A.A.x.H.U.n.b.j.k.s.k.U.d.Y j.s.d.x.E.",
"R.S.x.G.~.C.z.~.[.'.T.A.J.'.S.I.n.I.n.U.`.R.R.~.G.E.`.`.R.U.R.H.j.n.R.6.4. XA.~.G.A.c.h.R g.A.g.x.j.b.b.k.b.k.k.k.Y P P f.j.f.T.",
"I.x.j.R.oX^.I.`.].XXXX`.R.^.S.I.I.M.N.n.`.`.H.R.H.`.'.`.H.n.H.U.G.H.G.K.tXrXtX-.C.f.S.) F C.A.x.f.j.b.k.k.k.M.b.d.Y v v R.n.U W ",
"I.G.W x.`.E.E.`.U.`.2X`.`.E.x.I.Y.N.(.Y.`.`.G.].`.R.R.K.-.-.3.3.4.-.G U 4.rXgXfXtXV.`. X3.) A.h.U x.b.b.k.x.U.M.k.b v R I.c.b v ",
"I.`.G.x.n.U.].].U.U.(.c.Y.E.k.G.n.f.U.`.`.~.R.XX.X-.>.<.eXrXuXuXuXuXuX3.-.eXgXvXxXaXL./.tX3.z.W f.x.n.G.R.R.n.b.k.j.j.c.R.U.z.A.",
"c.`.oX`.I.E.{.].E.n./.F.k.x.f.j.f.b x.E.H.H.R./.-.>.,.:.<.eXrXdXfXfXgXgXeX<.fXbXbXbXaXJ.tXdX-.f.H.x.x.R.[.R.x.k.n.N.I.I.`.`.`.[.",
"j.G.2XoXI.^.{.^.c.3XSXK.Y x.j.f.P v v g.g.G.H.~.~.L. X1.:.:.<.rXgXvXvXbXxXtXsXmXnXnXvX XtXxXtXV.H.x.h.G.'.J.x.n.).Y.U.E.n.I.^.T.",
"j.f.{.^.S.^.[.J.+XLXSXD.x.S.g.R R m h m g.x.x.R.G.H.L. X3.;.<.eXrXvXnXmXMXvXsXNXBXNXmXaXdXbXdX-.S.S.G.A.F.C.x.Y.).N.M.M.s.j.S.C.",
"g.W T.A._ C.L.OXLXHXkXD.W.F.R v Q ) h m F.G.J.[.+X4.>.;.;.;.:.<.eXsXnXMXMXnXsXNXJXVXBXgXvXnXgX=.z.x.J.S.g.W c.(.Y.k.I.c.P Z.F.Q ",
"z.z.S.F.C.E OXKXLXSXkXK./.Z.Q Q _ T j m C.A.OXlXeX:.:.,.,.;.;.:.eXrXsXvXnXmXfXbXBXVXVXbXNXVXbX3.Z.S.Q.T.W U c.I.k.c.E.S.C.D.K.D.",
"A.A.A.F.L._ FXPXJXSXkX!.2XQ.R R E v m ) z.K.4.,.;.;.;.;.;.%.o.o.;.eXtXuXvXnXgXxXmXmXNXbXNXVXnX3.P..X^.P.W g.G.n.k.I.'.J.M M D.L.",
"S.T.F.W.!.3XPXPXJXSXCX/.XX^.C.E E T _ D.D.>.;.o.%.o.X. .} t t t  .o.<.eXrXxXfXgXnXnXbXnXNXmXgX-.6.-.z.Q A.J.R.I.M.U.I.A.E D.W.W.",
"T.^.W.W.W.HXPXLXGXSXkXF.S.C.A.F.L.K.D.D.' -.' ' *. .%.%.B n M h.M C N ;.<.rXrXsXvXvXvXbXnXvXtX4.dX-.! ! C.T.`.n.U.R.f.F.F.F.F.Q ",
"W./.T.z.OXLXPXLXGXSXkXT.L..X/.'.[./.W./.W.C.S.-. .<.tX=.M v.(._.%X_.G.G %.<.eXtXdXfXxXvXxXrXtXvXdX' Q.Z.W A.E.P.F.E m ~.F.C.C.U ",
"~.^.J.C.FXPXPXLXGXSXkX.X-.V./..XL./.XXoXT.v -.%.>.dX=.n h.(.%X=X=X;X;X%XV.$.:.2.tXsXfXfXrXtXgXdX-.Q.Q.S.Q C..XW.S.m T ~.F.F.J.A.",
"J.J.[..XKXPXPXLXHXSXkXL.-.l E (.`.W..XoXT.) >.X.dX3.D M b._.=X;X>X>X,X>X:X`.=.:.2.rXrXeX<.eX2.B T.T.W I D.L.E.c.x h T././.'.`.^.",
"F.L.2X3XLXPXPXLXGXSXkX/.-.g % m Y.%X`./.~.-.o.>.hX=.n h.(..X@X#X8X<X,X,X,X,X{.=.<.eX:.%.N B ) g._ W.R ' W.).c.h % z T.I.E.'.~.H.",
"L.W.XX3XLXLXPXKXSXCXkXT.6.l h % j S.%X&X`.-.X.tXaXD M v.}.eXsXcXzX8X1X<X<X,X,X].=.=.G _ Y.%X%XB.E D. XW.B.M.j % h ( I.j.x.H.G.c.",
"F.S.S.3XHXHXKXGXCXkXkX/.K.C z z h h g.%X-X).G tX=.c M h.B $.2.sXvXzX8X0X<X9X<X,X{.%X;X>X>X-X@X}.) ( D.Y.U.j % z k D.P.Y P f.g.f.",
"I.I.c.+XGXAXHXCXkXkXkXOXE.C x x z z h Q %X&X).a.D n M h.x.b.n N eXvXzX0X0X<X<X<X,X,X>X>X7XlXsXeX=.R c.Y.m % z z l Z.z.W U W f.W ",
"n.n.M.OXCXCXAXkXkXq.kX+X`.' m ! ! L h h x.%X&X).M n M h.x.m + + . :.gXlX1X<X,X,X,X>X>X>XlXfX2.$.N m I.E h x T x m E I W z.A.Q W ",
"Y k.I. XkXkXCXkX0.0.iX+X2XXXC ! m.l.j h h c._.%X(.M M h.E + ^ +., * %.aX2X,X>X>X>X:X:X#XsX%.O m R m g.h j T T l T v v E F.F.A.C.",
"j.R.`.W.kXiXkXkX9.0.0.0.[.].G M m.N.v j % j G._._.h.h.x.j 5.q.2 * +.i X.|.{.&X;X;X=XoX3.< i ^ k R m l f x E m F v j v C.Z.Z.F.F.",
"G.E.E.^.+XiX0.kX0.9.9.9.D.G.L.C z.Y.E j h % j c.(.x.h.n.T CX7.*   5.+.; N G %X&X&X(.B : 5.O.q.^ m k @ k m E C K.R R L.Z.Q Q Q Z.",
"S.c.x.I..XiX0.iX0.8.8.9.6.x.x.) M Y.M.j h h h M x.h.b._.Y.ZXiX{ .   * +.R B.&X=X%XQ ; = i { q.6.j @ @ l T F F Q.W.^.E.j.z.C.E ! ",
"A.z.j.I.W.0.9.0.0.8.8.1.6.S.f.x.F g.).c.j h j h.h.h.n.%X&XZXAX#.{ 2 @.q.N.=X>X7X;XZ.{ = * @.CX` f @ g l F Z ! W.XX].n.k.I.T.z.z.",
"Q A.c.G.Z. XiX9.0.8.1.1.1.W.c.c.z.m x.).N.W j b h.M b.%X;X7XZXAXpXpXCX2X&X5X6X6X6Xu.7.#.#.pXZX) D @ k x F P.Z.Q.XX`.c.b.l.Q.Q.Z.",
"b Z.A.S.z.Q 9.9.9.8.*.*.1.6.T.I.x.W m g.m.m.N.x.M M v.).=X,X7X8X4X4X7X=X5Xp.6XDXDXp.u.pXAXZX&Xb.-.g l g S ( ` Q.^.G.c.c.S.P.Q.z.",
"v _ Q F.z.z.6.9.8.8.1.&.&.*.I.T.j.W x.) ~ r.Y.(.M n M b._.=X:X=X=X=X;X;Xu.p.p.6X6Xp.i.2X7X:X&XN.-.C @ 9 } } w y Z ) V.D.F.P.Q.Z.",
"m T m D.A.Z.W 9.1.1.1.&.&.&.D.I.f.f.x.T.] e.j m n B G h.b.B.x.j R %X;X&X/ t.u.i.i.i.u.&X;X=X%Xb.G t : q } } X.;.,.,.,.>.&.` P.S.",
") m l D.! W W ' 4.1.1.&.&.&.F ! W x.x.z.H a # z f.-.=.n h.k.k.% + g.%X=X] d s t.t./ ] =X%X_.B.h.B < q } X.,.qXqX,.>.*.^ d u u ` ",
") x m K.P v z.z.-.1.*.&.&.&.y $ J ~ W U T a H ! |.>.$.D b h.b.! X & ` Y.).g.x ^ ^ T c.x.n.N.v.G 9 < } o.qXwXwXqX5./ a 7 : < < 6 ",
"E E Q F.z.R T.C.G 1.&.&.6..XG @ p w.~ b W C.S.|.wXq 9 $.n b h.Y.d o d & z T j h h j j M h.h.n 4 : q X.qXwXwX4.y.K 7 : < < < < < ",
"U C.g.z.T.z.R.^.A.-.&.$. XK.G c J r.K T R  X4.;. .q 9 : N n M v.] s s s o o o X + h m M M l 4 - 9 X.,.qXqXq.y.d - : : < < < < < ",
"g.g.U z.G.I.R.]./.*.&.$.G G a.k r.r.a T 4.<.;.o.X.} q < - O l M k.] t.t.s s o # x b m l g 0 }  .X.o.,.>.y.y.7 - : : : < < < 9 9 ",
"g.f.W j.j.^.^.W.S $ &.$.c c G y.r.K p *.o.: : q o.;. .9 < - O f n h.Z.] t./ H m n l g t ;.qXqX<.,.;...^ H ; - : : < < 9 q q q 9 ",
"g.c.c.x.c.R.I.` a p d V z H $X*Xw.J p ..q : e t O  .,.X.r 7 . O @ l M h.g.h.m g @ e ,.wXuXrX<.$.N 8 7 ; < : : : : < < q q q } y ",
"S.R.E.c.G.I.V.^ J J K K r.*X*Xe.K a ^ yX>.X.N C f + e o.A g V & . . + @ @ @ 4 9 X.qXuXtX:.N T N.B.) t q 9 : : : : < q q q q | Z ",
"S.`.).n.G.c.` J J w.w.r.*X*Xe.w.J $ X.o.X.;.$.m j f O 7 S }.6.K 7 < < < < < } ;.qXeX:.t @ E %X%X|.aXeX<.X.0 : : : < q q q q w T ",
"I.`.(.n.G.D.^ K w.e.r.*Xr.w.w.J & %.%.e ;.qXeX-.v k + ; u ( ] H } } q }  .o.;.<.;.e . + l g.A.4.sXsXsXeX:. .9 : : < q } } | y z.",
"E.).N.n.g.' ^ K w.e.*X$XK K p . %.rXeXX.:.qXeX:.m h + > , & & , } X.o.o.;.;.X.w = . O @ k x B qXrXfXgXrX<.%.0 9 6 1 9 } | | ( I.",
"`.(.n.c.W ` J K w.r.*Xw.J & e 0 :.eX%. .X.<.<.%.g @ O > 2 * 2 { 2 1 1 9 9 > , 2 2 = . O + @  .;.eXsXrXeX<.;. .0 w 9 9 q | A ].E.",
"].I.j.j.W ( J K w.r.r.a &  .<. .;.:.9 e  .o.o. .+ O - 1 1 2 { @.@.@.{ { { O.@.@.2 = = - - 5 } } :.<.2.tXtX2.%.0 w w 9 9 | ( [.T.",
"R.j.W W P ( a J J e.w.p 4 X.X.4  . .5 9 q e } 0 . - = 6 . , [ O.@.@.@.@.@.@.@.{ 2 = = : : : e 9 X.2.aXhXfXrX2. .9 | w 9 w V S.c.",
"c.c.T.x.f.` a a J w.K # - 5 e %.0 - 9 9 5 9 q : - : w > X X , 2 { O.@.@.@.O.[ , =   - 9 < : 5 e :.eXrXjXjXaXtX:.e w w w w w ( z.",
"c.R.].E.G.D.& p J K J u 5 e %.:.e 4 } e 5 9 5 - w | | ;   X $ $ & & 3 2 2 , X X     = 9 9 9 0 ;.<.<.eXrXtXtXtX<.X.r r w | w Z P.",
"s.k.Y.(.G.G.k $ p J J T N 0 e e } 0 t S 7 : 5 X.o...2 2 ,   # # # p # X X X X X   = = 1 0 w | %.%. .;.<.:.:.2.<.%.V u r w | S c.",
"s.M.N.M.c.n.( & & p J L F e 9  .X.6 _ Q.u 9 w | ; ; 2 @.@.2 X # # # # X X X   . = = = > r i y } 9 9 ;.;. . .%.X. .y T u w ..Z j.",
"l.U.l.j.M.c.c.V & $ a H Y Z 6 0 q u ~ _ y } 1 - t t 8 r @.@.2 ; , X . = = = , 2 2 , = > u z.F | 9 0 ;.,.} | } q q u Z.` ..y Z.c.",
"l.j.Y j.n.f.c.Q u u $ p L Q 7 ; 6 a H ( y | r X.$.*.*.8 6 @.@.2 = 2 , , 2 [ { O.2 2 1 > u c.Q  .e 9  .X.q X.} 9 0 ) ~.' ..Z n.(.",
"s.Y Y s.P P n.x.R V u $ p & # # p a H ( ..S S $.N *.*.N 4 > O.O., , [ [ 2 [ O.[ 2 2 2 > - 7 Z _ V 0 5 0 q } e e V S.^.6.Z f.k.).",
"k.c.j.P v W x.c.j.U m V & $ $ # # X Z.S ( ) y r y $.N N 4 O > O.2 = 2 O.O.[ [ { [ 2 2 - 4 - r Z l.( ) F A V S ( G.~.XX/.S.S.n.M.",
"k.n.j.b W x.S.I.g.U j.z.P L x 6 9 A E._ C.y r i +.+.y 8 4 4 4 r O.; , O.O.O.O.O.[ 2 > - 5 - 6 w E n.Y.U.I.j.U.`.E.XXXXA.R S.U.j.",
"f.k.f.U x.S.A.j.P P P j.Y P A X...D.I.I.F r r ..*.+.O.r 4 7 ( Z.Z ( Z i O.O.O.[ 1 - 5 5 5 : > 6 Z x.I.G.I.n.`.`.I.`.[.F.x.f.c.d.",
"k.k.x.G.J.S.z.Q P R v E m A o.$.D.' S S r > ; 6 y +.y r 6 x U.n.M.U.k.T i S i 6 4 5 9 9 5 6 > : 7 E G.S.I.Y.E.I.G.I.W.~.~.f.s.d.",
"k.k.b.R.~.x.W W E ( $.$.X...S C.G X.;.<.;.} : < < > r r 6 x Y.Y.Y.M.n.n.x.U.T.8 6 5 5 : > > > > w S J.J.c.n.G.G.S.j.j.T.^.I.j.d.",
"b.b.b.b.I.c.f.W Z.W._ F x Q T.D.t | o.,.qX;.X.} } 9 - > 7 ( R.R.G.f.j.G.k.x.R.) 7 > ; > > - ; - 9 y F.G.Y j.c.G.c.f.x.[.XXXXY.U.",
"k.U.b.N.n.k.f.A.L.D.D.D.W.T.Q.` r r y +.X.o.o.X.X.e : - 7 z.S.I.T.f.f.c.f.j.I.G.T i 7 > > : : < 9 r ) f.U j.x.S.I.^.[.^.T.T.E.`.",
"W Y.b.b.n.k.j.z.A.Z.C.C.W.S.T.V > > > r r w } } X.} : ; u j.j.G.R.c.x.x.j.G.R.G.j._ z 7 : : < 9 9 r x P U x.c.c.R.].[.U v z.I.I.",
"z.P.m.c.b.c.j.W z.A.g.Q W I S.Z 7 > > - ; 6 6 9 } q 6 V _ x.j.G.G.G.I.j.f.I.[.E.I.I.R u 6 9 q q } r k P U x.G.S.E.`.`.W v z.c.U.",
"F.z.m.M.I.n.s.j.S.S.W U W ! P.S.Z 7 6 ; ; ; > 6 < 9 6 K.I.j.c.I.c.x.I.j.W S.^.R.E.R.W Z r q } } q r z R W x.x.S.T.^.I.x.I ! z.M.",
"A.z.I.(.].U.k.G.I.n.Y P z.P.^.Q.[.( u 7 ; ; ; ; 6 6 8 W.R.x.x.G.j.j.j.f.U x.c.c.R.R.f.R y | } } 0 7 T C.W f.j.G.R.R.I.E.S.z.P.`.",
"G.G.U.Y.I.c.n.U.n.b.s.f.P.! S.Q.[.^.S.T 7 ; . . 6 6 k /.G.f.f.c.W Y f.x.j.x.x.x.I.R.Y f.) S y 8 8 k E C.z.f.f.S.R.I.`.[.T.S.P.I.",
"H.c.k.f.s.k.c.x.k.k.d.c.S.v I z.^.`.! R T k u + + @ R J.z.f.x.R.j.U j.x.j.f.c.x.c.R.f.x.R.E.I.W v b C.C.A.c.z.S.E.T.[.`.[.[.z.! ",
"~.z.W P Y f.U f.I.b.b.M.j.v Q S.c.c.U P C.Q _ l m m R Q f.x.I.E.j.Y j.f.g.g.A.U f.U.b.H.`.[.'.T.g.W C.W.Q.Q.XX/.P.Z.Q.! P.P.L L "
};
