/* XPM */
static char *_8227e54b222494191502168b741eb34Yfa0Loc7eZimHoHr[] = {
/* columns rows colors chars-per-pixel */
"64 64 198 2 ",
"   c #4F2E26",
".  c #4D342D",
"X  c #513027",
"o  c #55362D",
"O  c #5B362C",
"+  c #56382F",
"@  c #5C392E",
"#  c #4F3730",
"$  c #4F3933",
"%  c #523730",
"&  c #553A33",
"*  c #5C3C33",
"=  c #573F39",
"-  c #5B3F38",
";  c #6F3826",
":  c #61362A",
">  c #643A2E",
",  c #6C3B2D",
"<  c #7F3522",
"1  c #773927",
"2  c #7C3A25",
"3  c #743D2D",
"4  c #7B3E2C",
"5  c #633D32",
"6  c #6B3E31",
"7  c #723F30",
"8  c #7A3F30",
"9  c #5F4036",
"0  c #5D4139",
"q  c #77402E",
"w  c #7C412E",
"e  c #644035",
"r  c #6C4234",
"t  c #684837",
"y  c #654339",
"u  c #6A4439",
"i  c #644A3B",
"p  c #6D4C3B",
"a  c #744233",
"s  c #7B4332",
"d  c #754936",
"f  c #7C4B35",
"g  c #744638",
"h  c #7B4738",
"j  c #744C3A",
"k  c #7C4E3A",
"l  c #74513E",
"z  c #7C533E",
"x  c #7D5540",
"c  c #7C5944",
"v  c #7F5F48",
"b  c #843B26",
"n  c #8B3D26",
"m  c #843E2A",
"M  c #8B3E29",
"N  c #923D25",
"B  c #9A3E23",
"V  c #913E28",
"C  c #8E4127",
"Z  c #84422D",
"A  c #8C422C",
"S  c #8D492E",
"D  c #954126",
"F  c #9C4226",
"G  c #93442C",
"H  c #9A462B",
"J  c #934A2E",
"K  c #9C492E",
"L  c #834431",
"P  c #8C4631",
"I  c #844A33",
"U  c #8C4B33",
"Y  c #834D39",
"T  c #8C4C39",
"R  c #934630",
"E  c #994730",
"W  c #934B33",
"Q  c #9B4B32",
"!  c #944E39",
"~  c #9A4E38",
"^  c #8D5136",
"/  c #84533B",
"(  c #8B533A",
")  c #87583F",
"_  c #8D583E",
"`  c #935135",
"'  c #9B5133",
"]  c #92563A",
"[  c #9B5239",
"{  c #92593E",
"}  c #995B3E",
"|  c #A34525",
" . c #A54827",
".. c #A1462A",
"X. c #A24A2D",
"o. c #A84C2D",
"O. c #A84525",
"+. c #A34D31",
"@. c #A84F30",
"#. c #A45235",
"$. c #A95133",
"%. c #A6543B",
"&. c #835B43",
"*. c #8D5D44",
"=. c #915C42",
"-. c #846047",
";. c #896247",
":. c #84634B",
">. c #8C654B",
",. c #8B684E",
"<. c #906147",
"1. c #91654B",
"2. c #916A4F",
"3. c #9B6B4F",
"4. c #9C634A",
"5. c #8C6C53",
"6. c #936D52",
"7. c #9C6B50",
"8. c #8E7055",
"9. c #8D735A",
"0. c #937356",
"q. c #9E7154",
"w. c #90765C",
"e. c #9B7659",
"r. c #95785C",
"t. c #9D7C5E",
"y. c #A16247",
"u. c #A16C4F",
"i. c #B26F4E",
"p. c #B2704F",
"a. c #A06F52",
"s. c #AE6F50",
"d. c #A27356",
"f. c #AD7455",
"g. c #A4765A",
"h. c #AD7759",
"j. c #A17E5E",
"k. c #AC7B5C",
"l. c #B37454",
"z. c #B57957",
"x. c #B27B5B",
"c. c #B97D5B",
"v. c #BA7754",
"b. c #947B62",
"n. c #9D7F61",
"m. c #A17F60",
"M. c #AC7E61",
"N. c #B2805F",
"B. c #BC815D",
"V. c #938066",
"C. c #9E8263",
"Z. c #97846A",
"A. c #9E8669",
"S. c #9F896A",
"D. c #A38363",
"F. c #AB8566",
"G. c #AD8667",
"H. c #AA8565",
"J. c #AC8867",
"K. c #A38769",
"L. c #AE8768",
"P. c #AC8668",
"I. c #AA8768",
"U. c #A28A6C",
"Y. c #AF896A",
"T. c #AB8A6B",
"R. c #B18262",
"E. c #B28365",
"W. c #B38363",
"Q. c #BB8463",
"!. c #BD8966",
"~. c #B08768",
"^. c #B18A6A",
"/. c #B18968",
"(. c #B5896A",
"). c #B68C6B",
"_. c #B38E6E",
"`. c #B28D6D",
"'. c #A8906F",
"]. c #B4906F",
"[. c #A38E71",
"{. c #AE8E70",
"}. c #B08F70",
"|. c #A59173",
" X c #AD9374",
".X c #AF9877",
"XX c #A79779",
"oX c #AE9778",
"OX c #AF9C7C",
"+X c #B49373",
"@X c #B89776",
"#X c #B49A79",
"$X c #BD9A79",
"%X c #C08562",
"&X c #AC9E80",
"*X c #B8A081",
"=X c #B5A789",
"-X c #B4A181",
/* pixels */
").M.H.W.W.W.E.(.G.M.W.W.$X*X(.(.)._./.F.F.T.L.F.F.L.L.L.G.F.F.T.T./.L.G.G.G.L.F.~.#X.X~.T./._.T./._._.).T./.^.T.G.L././._.+X@X@X",
"J A m Z 4 a L U I Z s 1 x.,.D K +.[ n A G K K M G A m P Z A G ~ ~ E W W W E +.J H G.&.n E R W U m G A m A G W J Q G $.#.K K W P ",
", q 7 5 * r g h s 8 a a g.v 2 q a s I ! #.U Z 4 P T I 4 4 Z P W W W [ W W W R ~ %.g./ V A Z Z m Z q 3 3 s L I Z W P A W U J A Z ",
"3 h 6 : a h h s s w 4 s g.&.A L > 6 , 3 Z w 3 3 3 s I P P U Z P W W W W W W G A ~ d.) H W W ! W T a g r , 3 L w 4 m Z U ! W ! T ",
"L s g 6 r s a 5 u L L L d.>.W ! g r g 3 P a a h a 6 s I T T Y s P U W W ~ E #.R A e.) D W A U I T s a 3 4 Z Z I I U J W U Q W T ",
"I A Z 8 3 L Z m 4 m A M 4.&.n Z 7 a 5 7 a a 8 Y 5 a a P ~ R R W Q ~ %.Q Q G H J ..g./ N D J A A A Z s s 2 Z A M G G R A G G K W ",
"<.*.=.*.*.*.1.=.*.;.*.*.K.V.*.) j l p j l z z ;.l z &.=.=.*._ ] ] ^ ] { =./ _ ( ] K.8.{ =.*.=._ *.&.z x / ( ( ( { { ( ( ] ^ ] ] ",
"=X XT.T.T.T._.T.+X}.T._._.+X+XT.T.I.T.I.T.K.D.D.Y.T.T.T.T. X+XOXU.K.D.T.I.T.I.F.T._._.^.T.T.F._.T.T.F.I.T.T.I.T.K.T.T.T.T.T.T.#X",
"b.H D D D b n G M E J D D D K J G K K H A A A b H X.H H K #.+.x.c P L A G A I P A 4 A Z Z m n K W A A A A A 3 5 3 4 , s Z Z W c.",
"9.J Q J K G A W A 2 A A A A A R G G H J W J J J K W [ Q A G n a.c 3 a 5 j I 5 y y 0 5 * e g s P W I L I Z 4 5 * g a u s q a I k.",
"b.G +.G K J E W Q E E [ W A Q E W W G G A M A A P P E E K ~ G 7.c s , O r a 5 = = 0 0 = * 5 g I W I h a L 4 , O , O , a L L A h.",
"b.Q Q E A A G A A G E ~ W A W ~ R E ~ G W A A A A G A G J Q K g.c 8 s s , a a * & 0 e * e 5 a Z Z L s s 4 L r 5 > O   X @ 6 A x.",
"w...+.o.X.H K G E Q K Q H G H G G V Q D n b V H K Q D D D D F f.x P L W Z 3 3 6 , s 3 6 s s P E J G J W P P I 3 5 g a > > 3 G f.",
"V.( } ] ] ( _ / _ { { _ T ^ { _ ( Y =.{ ] Y ( ( ^ ( ( ( ^ ( ` L.9.Y ( ^ _ Y f Y ( ( ( / / ( ] ] ] T T ^ ( ( _ _ z z / k k / ^ I.",
"@XU.A.A.C.n.C.D.D.D.D.D. XXXI.T.T.T.K.F.I.T.T.T.K.T.K.K.T.T.T.@X+XT.K.K.F.I.K.A.K..X[.H.J.F.F.D.D.K.D.D.j.j.m.D.F.F.m.j.m.D.F.].",
"Q P a s 3 7 s A R H H F v.e.B F +.Q J E J G J G A R P L m A P J K H Q H K G J J D k.&.O. .F F H ..+.+.H K H F H H F N n H K H H ",
"L u - e * 5 6 a L G K F p.0.| D H E G W P P P L I L I L L 3 I ~ P Z P s a s L U A q./ | ....H H H E ~ G A G G G G G E M M G M R ",
"7 5 = & - * 5 * r Z H F p.6.F D G E R W R Z U L 4 3 s I U L L P U L w , 5 3 3 h A d./  .H D D H K J G E W A G R W G J E G A A R ",
"7 > * * o @ * o * s A G s.2.F D G R A P P L I T 4 s s L I I L I I I L , > O o > A 3.)  .K G n n n n G E G A A A W W G W G G G W ",
"a 7 5 5 * * 5 a 6 6 Z N y.;.F D D H G G A L L A G P L L P A Z Z m P W a 5 * & - P u./ O.H X.X.X.D G N D G G A A G H J H D H D G ",
"/ z z z z z j k / z / Y d.0.J ` ` ` ^ ^ ^ ( / Y ` T Y Y T Y I L s ^ / p p p i i d t.&.Q ` W W ` W ' ` ` U U U ^ ^ U U U P U U W ",
"&XK.K.I.K.D.I.K.t.t.C.C.[.U.A.C.D.F.D.D.D.D.D.K.K.F.D.D.H.H.j.{.|.T.T.T.K.F.T.K.T.@X XK.D.D.D.D.D.K.D.D.D.m.t.n.n.n.D.D.D.D.K. X",
"Z.A P P P A Z Z L a g e % * * 5 7 L s a P U L W E E J G n H B x.6.F H +.K G K K H J Q E G Q E K X.+.Q K H E A m m 4 Z A G W X.Q.",
"b.K R L L L a r 6 O @ = & 9 = - * * 6 > 3 s q 4 Z A G Q G G F k.;.N G J E E K J M J G G J J E G D H W W m P P L I L 3 4 Z m G x.",
"b.K A Z w , 6 * y 0 e o o + & e e r s s 6 s I P W E G E J G F x.;.N G G J G J D G n M M A A J D M A A A A b m L I I w Z P W E Q.",
"b.H G Z a * > r 5 5 y 0 - * 5 > 6 L s s 7 8 L P W Q E J G m n h.>.D A J A G H G G E ~ G R W G Q G P A M A Z 4 L s L L L Z A G x.",
"b.H X.+.A s 4 7 * r 6 * - 0 e a s L P L 4 A A A K +.Q Q K K F f.1.B H H K K K D G n G G G H V H E M G G A m m m m L Z m R M V f.",
"Z.^ ` ^ ^ ] Y k k j k / f d d f Y U T T T ^ ] W U ` ^ ! ` ` W T.r.J ` W U ! ' ` ` U S P I ` U P I Z I I I I L L s s I s T T P k.",
"_.D.D.D.D.D.D.H.K.F.D.m.T.|.D.K.D.D.D.K.K.D.C.D.n.C.C.D.K.K.T.@X].F.D.D.K.D.D.D.D. X|.D.n.C.D.t.C.n.n.n.t.t.D.j.m.t.t.j.t.j.D.].",
"o. .X...F K K F H +.K F c.n.H K A A w L J A 4 q 4 s s I W K K G D K H K +.K K X.F Q.6.J P Z I Z Z s I W A A A J G J Q K K X.K X.",
"J X.+.X.K G Q J G J J F z.5.H Z 4 , : 4 A w 7 * @ @ > , 3 w L I A G J E G M G Q H x.,.b s a , q 6 * 5 s a q I P Z 2 m Z G K G G ",
"~ K H H K H G Q G G A D c.5.H A A L 3 G P 6 5 6 * * 5 6 s A w L A A A E Q Q A G K W.,.1 * o * 5 * $ % 5 6 3 s L U Z Z A A G A A ",
"Q +.G G Q G H K H E J N l.6.H E A A G m 4 @ @ 5 * * * 5 q q 3 3 4 m A A G A G G K x.>., 0 5 o O , = & 5 , , 3 w Z Z P A E Q K G ",
"K F ..K @.K H D N F H ..l.,.F H H J M m Z > > : > > 5 7 q 3 h h Z M A M E E J E F x.5.4 * a a > , O o > 3 4 4 Z A A J G ....D ..",
"} ` ` ` ` ` ` U Z Z U W H.w.S S P T I Z w Y T / f f d f f Y f s Z w L w L L Z P b j.9.I d r d g j j j f f Y I f Y T T T ` ] U S ",
"OXT.D.D.D.D.D.D.D.K.K.T.+X{.T.D.D.j.m.j.D.D.H.T.T.T.F.K.K.K.T. X[.m.D.D.D.D.C.e.j._._.T.F.D.j.j.j.j.j.j.m.m.j.D.n.D.D.F.T.K.F. X",
"t.H K A G A G A Z J J ~ ! 1 A G A E K K X.+.X.+.X.D H +.+.X. .!.t.H J D Q H $.H H +.H F F X.o.X.X.K H +.K K H H H H +.+.+.K H %X",
",.G w 6 5 O @ o 5 s 5 * & & 6 s , 3 w A A G G G H H n J G A F N.>.D G A M n G H D Q K H G G K n A G J E W m A M A m G G G R D l.",
">.W a * & % & % * * o e * $ . a r > s Z A A G G J H H E #.~ H k.,.F G J K G M n n J G H X.G E J A M J E W W A b A A A ~ W W V f.",
":.P r 5 * # % = & = 5 @ o o o O > > 3 Z W G E A A G A G A G F x.,.F n n H H K D G K D n n n G E J G G G E A A A A A b A R W G f.",
":.Z 6 6 * & 5 & * * y u * 5 6 5 5 7 Z A A G G J D H J H Q G F x.6. .K G G H H D D @.X.H D G M n G G J E H G G A M G G G E J N l.",
"5.I d t e r a r g g d p t t k j d I P U P T T ! U ! ! U ` ! W L.r.J ' ' ' W ' ' Z S W W J W W Z Z U U T T P T P U W ! U U U Z k.",
"T.D.D.D.D.m.D.D.D.D.K.K.+XXXD.D.K.K.D.D.D.D.D.D.D.D.K.K.K.K.T.@X XU.K.D.D.K.D.m.K.'.U.D.D.D.K.K.K.K.D.C.D.D.D.D.D.D.n.D.n.n.D.T.",
"+.K +.K K K +.K #.+.Q ..B.t.F K +.X.X.K H H H J H Q K H Q #.K A J G Z Z s s I I G Q.q.F K K X.+.K X.X.+.K G K H K K J G H Q K X.",
"%.E E ~ M E A 2 m A m n z.>.F A D H K G A G E A b G [ A A G A 3 w Z a > > * * u 4 M.>.N D W G A G G J G G A G Z b M M M b G G J ",
"H H E ~ R A A R A P P b x.5.N J M G G G m b M E G R ~ A A A m 4 3 , , 5 * & * @ L k.>.D G W ~ W E J E J A G A W A A A G A M A b ",
"G G E R A A A G P U I R h.>.D G A G G A A A Z m A m A b b m 4 w w , 6 @ % * * @ 4 g.>.F G W W E G G A G A A A W A Z P P R G R G ",
"o.H K Q J G E J G ~ W H l.,.| X.X.Q E G R E ~ E G K J G G Z w 3 s , 6 5 % * 5 u A f.*.| H H G G D M A A M n M G E A G R A W J J ",
"[ ` U ^ Y I Y Y I ^ ( I F.5.C U W U P P I I P T I Z W T U T f s w T d g p t d d Z m.-.A S W S S P L Z Z Z Z L I I T T I Z I Z Z ",
"U.K.j.j.m.t.t.j.t.j.t.D.+XF.t.j.t.j.j.t.t.j.j.j.t.t.t.j.j.F.J. XS.t.D.K.K.K.D.D.D.Y.K.t.C.n.D.D.D.t.t.r.t.t.n.n.n.t.t.n.n.t.t.S.",
"2.N n n H H F  ...H F F B ..o..... . ...H  .| F F ..H H H ..| !.e.F J K G Z s U A Z s s I W J K K H n G K H X.Q H H Q K K Q o.!.",
"6.H K M n n n n A J G G n n D n n A G H D N D H D G H G H J F W.;.N 2 , , q a > 5 * & 5 5 a q R H G G b n n n A G G G A b A H B.",
"1.D ..H D G G G M M M A M G J A A M A H H D n G J M G G G G N k.;.D Z , O o o o - % o 5 5 > , A G G H E A A W A m G A E G G H c.",
"1.G H N n M M G M M M n n n J J A A M M G H n A G M n A n A D k.&.n q * * - = . . % . % * 5 , m A J n A A A R A m A A A G G H c.",
"1...+.K H n < b n n n n n G n E ~ G A G K H F H H V D D D D H W.&.2 q 6 * & & - * - 0 & O > w M J Q J G M J J A G A J J A G H z.",
"5.S S J W W S Z A U Z S A J Z U ` ! W U W S S J J J W J J U J /.:.2 Z s t r r e 5 r * e 5 , Z Z Z S S Z S S U Z U I S W W J J W.",
" XK.K.K.C.C.D.D.t.t.C.t.U.S.D.C.D.D.n.t.t.C.D.n.D.K.K.D.K.K.T.#XT.K.C.C.K.D.C.K.D.U.A.m.D.C.D.D.n.C.C.C.n.t.n.D.D.m.n.C.n.t.D.@X",
"Q Q Q Q K +.+.$.+.K +...c.w.H E W ! U T U U W I U Q K Q K G K K +.#.#.W Q ~ #.#.$.!.>. .K X.G C A A K Q W Z Z J A m A C A W P U ",
"P 1 m A A G M G G M A D l.:.n A 2 4 3 , 3 , , , q Z A A A m A A A G A A A G A G N k.) | G G A m Z Z A b 2 ; 3 , r 5 a 6 6 5 6 s ",
"I 3 4 Z A M M M A M A N l.,.G w 7 6 5 X @ 5 > , > > , 1 4 Z P Z P A G A M G #.Q F x.>.D J A G Z q 3 q A 3 > , > 5 > 5 & 5 5 5 g ",
"W Z Z A A A R M M G J H l.:.m 7 6 6 5 % . * 5 5 5 5 r 3 4 4 I Z Z P W A R m A K | B.6.D G G G Z 4 w C C w w , @ 5 > @ * & 5 5 r ",
"E G J G M G J G G G H F i.:.A L 3 3 > O > O > 5 + 5 5 , 3 4 L U P W E A A ~ J K F x.3.X.Q K J J A C D G A Z a 6 u u 5 e * > s P ",
"` W W W A S A G A S A G f.5.A T I w w I I Z Z s a s s a L f L I T P W ` P P U W J H.,.D J J W J J S C J J P I w s a a g r s Z S ",
" X XU.U.K.K.D.D.C.K.K.K. X.XU.U.U.A.U.U.A.S.S.S.U.U.U.U.U.U.U.|.|.U.[.[.|.|.[.U.|.-X|.S.A.A.A.A.A.A.A.A.A.A.A.A.K.K.S.K.A.K.U.U."
};